<svg width="701" height="956" viewBox="0 0 701 956" fill="none" xmlns="http://www.w3.org/2000/svg">
<g clip-path="url(#clip0_251_13960)">
<rect width="1350" height="960" transform="translate(-142.803 -4.23114)" fill="url(#paint0_linear_251_13960)"/>
<g clip-path="url(#clip1_251_13960)">
<rect width="96.067" height="96.067" transform="matrix(1 0 0 -1 145.397 956.439)" fill="#D6D6D6"/>
<path d="M721.799 956.439V2116.07L-98.1836 1296.09L-194.251 1200.02L-1014.23 380.037H145.397H241.464H721.799V860.372V956.439Z" fill="#9F9F9F" stroke="#D6D6D6" stroke-width="960.67"/>
<path d="M721.799 860.372V-299.259L-98.1836 520.724L-194.251 616.791L-1014.23 1436.77H145.397H241.464H721.799V956.439V860.372Z" fill="#474747" stroke="#D6D6D6" stroke-width="960.67"/>
<path d="M-334.937 860.372V-299.259L485.046 520.724L581.113 616.791L1401.1 1436.77H241.465H145.398H-334.937V956.439V860.372Z" fill="#656565" stroke="#D6D6D6" stroke-width="960.67"/>
</g>
<g clip-path="url(#clip2_251_13960)">
<rect width="96.067" height="96.067" transform="matrix(1 0 0 -1 145.397 860.372)" fill="#D6D6D6"/>
<path d="M721.799 860.372V2020L-98.1836 1200.02L-194.251 1103.95L-1014.23 283.97H145.397H241.464H721.799V764.305V860.372Z" fill="#9F9F9F" stroke="#D6D6D6" stroke-width="960.67"/>
<path d="M721.799 764.305V-395.326L-98.1836 424.657L-194.251 520.724L-1014.23 1340.71H145.397H241.464H721.799V860.372V764.305Z" fill="#474747" stroke="#D6D6D6" stroke-width="960.67"/>
<path d="M-334.937 764.305V-395.326L485.046 424.657L581.113 520.724L1401.1 1340.71H241.465H145.398H-334.937V860.372V764.305Z" fill="#656565" stroke="#D6D6D6" stroke-width="960.67"/>
</g>
<g clip-path="url(#clip3_251_13960)">
<rect width="96.067" height="96.067" transform="matrix(1 0 0 -1 145.397 764.305)" fill="#D6D6D6"/>
<path d="M721.799 764.305V1923.94L-98.1836 1103.95L-194.251 1007.89L-1014.23 187.903H145.397H241.464H721.799V668.238V764.305Z" fill="#9F9F9F" stroke="#D6D6D6" stroke-width="960.67"/>
<path d="M721.799 668.238V-491.393L-98.1836 328.59L-194.251 424.657L-1014.23 1244.64H145.397H241.464H721.799V764.305V668.238Z" fill="#474747" stroke="#D6D6D6" stroke-width="960.67"/>
<path d="M-334.937 668.238V-491.393L485.046 328.59L581.113 424.657L1401.1 1244.64H241.465H145.398H-334.937V764.305V668.238Z" fill="#656565" stroke="#D6D6D6" stroke-width="960.67"/>
</g>
<g clip-path="url(#clip4_251_13960)">
<rect width="96.067" height="96.067" transform="matrix(1 0 0 -1 145.397 668.238)" fill="#D6D6D6"/>
<path d="M721.799 668.238V1827.87L-98.1836 1007.89L-194.251 911.819L-1014.23 91.8358H145.397H241.464H721.799V572.171V668.238Z" fill="#9F9F9F" stroke="#D6D6D6" stroke-width="960.67"/>
<path d="M721.799 572.171V-587.46L-98.1836 232.523L-194.251 328.59L-1014.23 1148.57H145.397H241.464H721.799V668.238V572.171Z" fill="#474747" stroke="#D6D6D6" stroke-width="960.67"/>
<path d="M-334.937 572.171V-587.46L485.046 232.523L581.113 328.59L1401.1 1148.57H241.465H145.398H-334.937V668.238V572.171Z" fill="#656565" stroke="#D6D6D6" stroke-width="960.67"/>
</g>
<g clip-path="url(#clip5_251_13960)">
<rect width="96.067" height="96.067" transform="matrix(1 0 0 -1 145.397 572.171)" fill="#D6D6D6"/>
<path d="M721.799 572.171V1731.8L-98.1836 911.819L-194.251 815.752L-1014.23 -4.23114H145.397H241.464H721.799V476.104V572.171Z" fill="#9F9F9F" stroke="#D6D6D6" stroke-width="960.67"/>
</g>
<g clip-path="url(#clip6_251_13960)">
<rect width="96.067" height="96.067" transform="translate(-46.7363 -4.23114)" fill="#D6D6D6"/>
<path d="M529.666 -4.23114V-1163.86L-290.317 -343.879L-386.384 -247.812L-1206.37 572.171H-46.7363H49.3307H529.666V91.8358V-4.23114Z" fill="#9F9F9F" stroke="#D6D6D6" stroke-width="960.67"/>
</g>
<g clip-path="url(#clip7_251_13960)">
<rect width="96.067" height="96.067" transform="matrix(1 0 0 -1 241.465 956.439)" fill="#D6D6D6"/>
<path d="M817.867 956.439V2116.07L-2.11623 1296.09L-98.1832 1200.02L-918.166 380.037H241.465H337.532H817.867V860.372V956.439Z" fill="#9F9F9F" stroke="#D6D6D6" stroke-width="960.67"/>
</g>
<g clip-path="url(#clip8_251_13960)">
<rect width="96.067" height="96.067" transform="translate(-46.7363 91.8358)" fill="#D6D6D6"/>
<path d="M529.666 91.8358V-1067.8L-290.317 -247.812L-386.384 -151.745L-1206.37 668.238H-46.7363H49.3307H529.666V187.903V91.8358Z" fill="#9F9F9F" stroke="#D6D6D6" stroke-width="960.67"/>
<path d="M529.666 187.903V1347.53L-290.317 527.551L-386.384 431.484L-1206.37 -388.499H-46.7363H49.3307H529.666V91.8359V187.903Z" fill="#474747" stroke="#D6D6D6" stroke-width="960.67"/>
<path d="M-527.071 187.903V1347.53L292.912 527.551L388.979 431.484L1208.96 -388.499H49.3306H-46.7364H-527.071V91.8359V187.903Z" fill="#656565" stroke="#D6D6D6" stroke-width="960.67"/>
</g>
<g clip-path="url(#clip9_251_13960)">
<rect width="96.067" height="96.067" transform="matrix(1 0 0 -1 241.465 860.372)" fill="#D6D6D6"/>
<path d="M817.867 860.372V2020L-2.11623 1200.02L-98.1832 1103.95L-918.166 283.97H241.465H337.532H817.867V764.305V860.372Z" fill="#9F9F9F" stroke="#D6D6D6" stroke-width="960.67"/>
<path d="M817.867 764.305V-395.326L-2.11623 424.657L-98.1832 520.724L-918.166 1340.71H241.465H337.532H817.867V860.372V764.305Z" fill="#474747" stroke="#D6D6D6" stroke-width="960.67"/>
<path d="M-238.87 764.305V-395.326L581.113 424.657L677.18 520.724L1497.16 1340.71H337.532H241.465H-238.87V860.372V764.305Z" fill="#656565" stroke="#D6D6D6" stroke-width="960.67"/>
</g>
<g clip-path="url(#clip10_251_13960)">
<rect width="96.067" height="96.067" transform="translate(-46.7363 187.903)" fill="#D6D6D6"/>
<path d="M529.666 187.903V-971.728L-290.317 -151.745L-386.384 -55.6782L-1206.37 764.305H-46.7363H49.3307H529.666V283.97V187.903Z" fill="#9F9F9F" stroke="#D6D6D6" stroke-width="960.67"/>
<path d="M529.666 283.97V1443.6L-290.317 623.618L-386.384 527.551L-1206.37 -292.432H-46.7363H49.3307H529.666V187.903V283.97Z" fill="#474747" stroke="#D6D6D6" stroke-width="960.67"/>
<path d="M-527.071 283.97V1443.6L292.912 623.618L388.979 527.551L1208.96 -292.432H49.3306H-46.7364H-527.071V187.903V283.97Z" fill="#656565" stroke="#D6D6D6" stroke-width="960.67"/>
</g>
<g clip-path="url(#clip11_251_13960)">
<rect width="96.067" height="96.067" transform="matrix(1 0 0 -1 241.465 764.305)" fill="#D6D6D6"/>
<path d="M817.867 764.305V1923.94L-2.11623 1103.95L-98.1832 1007.89L-918.166 187.903H241.465H337.532H817.867V668.238V764.305Z" fill="#9F9F9F" stroke="#D6D6D6" stroke-width="960.67"/>
<path d="M817.867 668.238V-491.393L-2.11623 328.59L-98.1832 424.657L-918.166 1244.64H241.465H337.532H817.867V764.305V668.238Z" fill="#474747" stroke="#D6D6D6" stroke-width="960.67"/>
<path d="M-238.87 668.238V-491.393L581.113 328.59L677.18 424.657L1497.16 1244.64H337.532H241.465H-238.87V764.305V668.238Z" fill="#656565" stroke="#D6D6D6" stroke-width="960.67"/>
</g>
<g clip-path="url(#clip12_251_13960)">
<rect width="96.067" height="96.067" transform="translate(-46.7363 283.97)" fill="#D6D6D6"/>
<path d="M529.666 283.97V-875.661L-290.317 -55.6783L-386.384 40.3887L-1206.37 860.372H-46.7363H49.3307H529.666V380.037V283.97Z" fill="#9F9F9F" stroke="#D6D6D6" stroke-width="960.67"/>
<path d="M529.666 380.037V1539.67L-290.317 719.685L-386.384 623.618L-1206.37 -196.365H-46.7363H49.3307H529.666V283.97V380.037Z" fill="#474747" stroke="#D6D6D6" stroke-width="960.67"/>
</g>
<g clip-path="url(#clip13_251_13960)">
<rect width="96.067" height="96.067" transform="matrix(1 0 0 -1 241.465 668.238)" fill="#D6D6D6"/>
<path d="M817.867 668.238V1827.87L-2.11623 1007.89L-98.1832 911.819L-918.166 91.8358H241.465H337.532H817.867V572.171V668.238Z" fill="#9F9F9F" stroke="#D6D6D6" stroke-width="960.67"/>
<path d="M817.867 572.171V-587.46L-2.11623 232.523L-98.1832 328.59L-918.166 1148.57H241.465H337.532H817.867V668.238V572.171Z" fill="#474747" stroke="#D6D6D6" stroke-width="960.67"/>
</g>
<g clip-path="url(#clip14_251_13960)">
<rect width="96.067" height="96.067" transform="translate(-46.7363 380.037)" fill="#D6D6D6"/>
<path d="M529.666 380.037V-779.594L-290.317 40.3887L-386.384 136.456L-1206.37 956.439H-46.7363H49.3307H529.666V476.104V380.037Z" fill="#9F9F9F" stroke="#D6D6D6" stroke-width="960.67"/>
<path d="M529.666 476.104V1635.73L-290.317 815.752L-386.384 719.685L-1206.37 -100.298H-46.7363H49.3307H529.666V380.037V476.104Z" fill="#474747" stroke="#D6D6D6" stroke-width="960.67"/>
<path d="M-527.071 476.104V1635.73L292.912 815.752L388.979 719.685L1208.96 -100.298H49.3306H-46.7364H-527.071V380.037V476.104Z" fill="#656565" stroke="#D6D6D6" stroke-width="960.67"/>
</g>
<g clip-path="url(#clip15_251_13960)">
<rect width="96.067" height="96.067" transform="matrix(1 0 0 -1 241.465 572.171)" fill="#D6D6D6"/>
<path d="M817.867 572.171V1731.8L-2.11623 911.819L-98.1832 815.752L-918.166 -4.23114H241.465H337.532H817.867V476.104V572.171Z" fill="#9F9F9F" stroke="#D6D6D6" stroke-width="960.67"/>
<path d="M817.867 476.104V-683.527L-2.11623 136.456L-98.1832 232.523L-918.166 1052.51H241.465H337.532H817.867V572.171V476.104Z" fill="#474747" stroke="#D6D6D6" stroke-width="960.67"/>
<path d="M-238.87 476.104V-683.527L581.113 136.456L677.18 232.523L1497.16 1052.51H337.532H241.465H-238.87V572.171V476.104Z" fill="#656565" stroke="#D6D6D6" stroke-width="960.67"/>
</g>
<g clip-path="url(#clip16_251_13960)">
<rect width="96.067" height="96.067" transform="translate(49.3306 -4.23114)" fill="#D6D6D6"/>
<path d="M625.732 -4.23114V-1163.86L-194.251 -343.879L-290.317 -247.812L-1110.3 572.171H49.3306H145.398H625.732V91.8358V-4.23114Z" fill="#9F9F9F" stroke="#D6D6D6" stroke-width="960.67"/>
<path d="M625.732 91.8358V1251.47L-194.251 431.484L-290.317 335.417L-1110.3 -484.566H49.3306H145.398H625.732V-4.23113V91.8358Z" fill="#474747" stroke="#D6D6D6" stroke-width="960.67"/>
<path d="M-431.004 91.8358V1251.47L388.979 431.484L485.046 335.417L1305.03 -484.566H145.397H49.3305H-431.004V-4.23113V91.8358Z" fill="#656565" stroke="#D6D6D6" stroke-width="960.67"/>
</g>
<g clip-path="url(#clip17_251_13960)">
<rect width="96.067" height="96.067" transform="matrix(1 0 0 -1 337.532 956.439)" fill="#D6D6D6"/>
<path d="M913.934 956.439V2116.07L93.9507 1296.09L-2.1163 1200.02L-822.099 380.037H337.532H433.599H913.934V860.372V956.439Z" fill="#9F9F9F" stroke="#D6D6D6" stroke-width="960.67"/>
<path d="M913.934 860.372V-299.259L93.9507 520.724L-2.1163 616.791L-822.099 1436.77H337.532H433.599H913.934V956.439V860.372Z" fill="#474747" stroke="#D6D6D6" stroke-width="960.67"/>
<path d="M-142.803 860.372V-299.259L677.18 520.724L773.247 616.791L1593.23 1436.77H433.599H337.532H-142.803V956.439V860.372Z" fill="#656565" stroke="#D6D6D6" stroke-width="960.67"/>
</g>
<g clip-path="url(#clip18_251_13960)">
<rect width="96.067" height="96.067" transform="translate(49.3306 91.8358)" fill="#D6D6D6"/>
<path d="M625.732 91.8358V-1067.8L-194.251 -247.812L-290.317 -151.745L-1110.3 668.238H49.3306H145.398H625.732V187.903V91.8358Z" fill="#9F9F9F" stroke="#D6D6D6" stroke-width="960.67"/>
<path d="M625.732 187.903V1347.53L-194.251 527.551L-290.317 431.484L-1110.3 -388.499H49.3306H145.398H625.732V91.8359V187.903Z" fill="#474747" stroke="#D6D6D6" stroke-width="960.67"/>
<path d="M-431.004 187.903V1347.53L388.979 527.551L485.046 431.484L1305.03 -388.499H145.397H49.3305H-431.004V91.8359V187.903Z" fill="#656565" stroke="#D6D6D6" stroke-width="960.67"/>
</g>
<g clip-path="url(#clip19_251_13960)">
<rect width="96.067" height="96.067" transform="matrix(1 0 0 -1 337.532 860.372)" fill="#D6D6D6"/>
<path d="M913.934 860.372V2020L93.9507 1200.02L-2.1163 1103.95L-822.099 283.97H337.532H433.599H913.934V764.305V860.372Z" fill="#9F9F9F" stroke="#D6D6D6" stroke-width="960.67"/>
<path d="M913.934 764.305V-395.326L93.9507 424.657L-2.1163 520.724L-822.099 1340.71H337.532H433.599H913.934V860.372V764.305Z" fill="#474747" stroke="#D6D6D6" stroke-width="960.67"/>
<path d="M-142.803 764.305V-395.326L677.18 424.657L773.247 520.724L1593.23 1340.71H433.599H337.532H-142.803V860.372V764.305Z" fill="#656565" stroke="#D6D6D6" stroke-width="960.67"/>
</g>
<g clip-path="url(#clip20_251_13960)">
<rect width="96.067" height="96.067" transform="translate(49.3306 187.903)" fill="#D6D6D6"/>
<path d="M625.732 187.903V-971.728L-194.251 -151.745L-290.317 -55.6782L-1110.3 764.305H49.3306H145.398H625.732V283.97V187.903Z" fill="#9F9F9F" stroke="#D6D6D6" stroke-width="960.67"/>
<path d="M625.732 283.97V1443.6L-194.251 623.618L-290.317 527.551L-1110.3 -292.432H49.3306H145.398H625.732V187.903V283.97Z" fill="#474747" stroke="#D6D6D6" stroke-width="960.67"/>
<path d="M-431.004 283.97V1443.6L388.979 623.618L485.046 527.551L1305.03 -292.432H145.397H49.3305H-431.004V187.903V283.97Z" fill="#656565" stroke="#D6D6D6" stroke-width="960.67"/>
</g>
<g clip-path="url(#clip21_251_13960)">
<rect width="96.067" height="96.067" transform="matrix(1 0 0 -1 337.532 764.305)" fill="#D6D6D6"/>
<path d="M913.934 764.305V1923.94L93.9507 1103.95L-2.1163 1007.89L-822.099 187.903H337.532H433.599H913.934V668.238V764.305Z" fill="#9F9F9F" stroke="#D6D6D6" stroke-width="960.67"/>
<path d="M913.934 668.238V-491.393L93.9507 328.59L-2.1163 424.657L-822.099 1244.64H337.532H433.599H913.934V764.305V668.238Z" fill="#474747" stroke="#D6D6D6" stroke-width="960.67"/>
<path d="M-142.803 668.238V-491.393L677.18 328.59L773.247 424.657L1593.23 1244.64H433.599H337.532H-142.803V764.305V668.238Z" fill="#656565" stroke="#D6D6D6" stroke-width="960.67"/>
</g>
<g clip-path="url(#clip22_251_13960)">
<rect width="96.067" height="96.067" transform="translate(49.3306 283.97)" fill="#D6D6D6"/>
<path d="M625.732 283.97V-875.661L-194.251 -55.6783L-290.317 40.3887L-1110.3 860.372H49.3306H145.398H625.732V380.037V283.97Z" fill="#9F9F9F" stroke="#D6D6D6" stroke-width="960.67"/>
<path d="M625.732 380.037V1539.67L-194.251 719.685L-290.317 623.618L-1110.3 -196.365H49.3306H145.398H625.732V283.97V380.037Z" fill="#474747" stroke="#D6D6D6" stroke-width="960.67"/>
<path d="M-431.004 380.037V1539.67L388.979 719.685L485.046 623.618L1305.03 -196.365H145.397H49.3305H-431.004V283.97V380.037Z" fill="#656565" stroke="#D6D6D6" stroke-width="960.67"/>
</g>
<g clip-path="url(#clip23_251_13960)">
<rect width="96.067" height="96.067" transform="matrix(1 0 0 -1 337.532 668.238)" fill="#D6D6D6"/>
<path d="M913.934 668.238V1827.87L93.9507 1007.89L-2.1163 911.819L-822.099 91.8358H337.532H433.599H913.934V572.171V668.238Z" fill="#9F9F9F" stroke="#D6D6D6" stroke-width="960.67"/>
<path d="M913.934 572.171V-587.46L93.9507 232.523L-2.1163 328.59L-822.099 1148.57H337.532H433.599H913.934V668.238V572.171Z" fill="#474747" stroke="#D6D6D6" stroke-width="960.67"/>
<path d="M-142.803 572.171V-587.46L677.18 232.523L773.247 328.59L1593.23 1148.57H433.599H337.532H-142.803V668.238V572.171Z" fill="#656565" stroke="#D6D6D6" stroke-width="960.67"/>
</g>
<g clip-path="url(#clip24_251_13960)">
<rect width="96.067" height="96.067" transform="translate(49.3306 380.037)" fill="#D6D6D6"/>
<path d="M625.732 380.037V-779.594L-194.251 40.3887L-290.317 136.456L-1110.3 956.439H49.3306H145.398H625.732V476.104V380.037Z" fill="#9F9F9F" stroke="#D6D6D6" stroke-width="960.67"/>
<path d="M625.732 476.104V1635.73L-194.251 815.752L-290.317 719.685L-1110.3 -100.298H49.3306H145.398H625.732V380.037V476.104Z" fill="#474747" stroke="#D6D6D6" stroke-width="960.67"/>
</g>
<g clip-path="url(#clip25_251_13960)">
<rect width="96.067" height="96.067" transform="matrix(1 0 0 -1 337.532 572.171)" fill="#D6D6D6"/>
<path d="M913.934 572.171V1731.8L93.9507 911.819L-2.1163 815.752L-822.099 -4.23114H337.532H433.599H913.934V476.104V572.171Z" fill="#9F9F9F" stroke="#D6D6D6" stroke-width="960.67"/>
<path d="M913.934 476.104V-683.527L93.9507 136.456L-2.1163 232.523L-822.099 1052.51H337.532H433.599H913.934V572.171V476.104Z" fill="#474747" stroke="#D6D6D6" stroke-width="960.67"/>
</g>
<g clip-path="url(#clip26_251_13960)">
<rect width="96.067" height="96.067" transform="translate(145.397 -4.23114)" fill="#D6D6D6"/>
<path d="M721.799 -4.23114V-1163.86L-98.1836 -343.879L-194.251 -247.812L-1014.23 572.171H145.397H241.464H721.799V91.8358V-4.23114Z" fill="#9F9F9F" stroke="#D6D6D6" stroke-width="960.67"/>
<path d="M721.799 91.8358V1251.47L-98.1836 431.484L-194.251 335.417L-1014.23 -484.566H145.397H241.464H721.799V-4.23113V91.8358Z" fill="#474747" stroke="#D6D6D6" stroke-width="960.67"/>
<path d="M-334.937 91.8358V1251.47L485.046 431.484L581.113 335.417L1401.1 -484.566H241.465H145.398H-334.937V-4.23113V91.8358Z" fill="#656565" stroke="#D6D6D6" stroke-width="960.67"/>
</g>
<g clip-path="url(#clip27_251_13960)">
<rect width="96.067" height="96.067" transform="matrix(1 0 0 -1 433.599 956.439)" fill="#D6D6D6"/>
<path d="M1010 956.439V2116.07L190.018 1296.09L93.9506 1200.02L-726.032 380.037H433.599H529.666H1010V860.372V956.439Z" fill="#9F9F9F" stroke="#D6D6D6" stroke-width="960.67"/>
<path d="M1010 860.372V-299.259L190.018 520.724L93.9506 616.791L-726.032 1436.77H433.599H529.666H1010V956.439V860.372Z" fill="#474747" stroke="#D6D6D6" stroke-width="960.67"/>
<path d="M-46.7363 860.372V-299.259L773.247 520.724L869.314 616.791L1689.3 1436.77H529.666H433.599H-46.7363V956.439V860.372Z" fill="#656565" stroke="#D6D6D6" stroke-width="960.67"/>
</g>
<g clip-path="url(#clip28_251_13960)">
<rect width="96.067" height="96.067" transform="translate(145.397 91.8358)" fill="#D6D6D6"/>
<path d="M721.799 91.8358V-1067.8L-98.1836 -247.812L-194.251 -151.745L-1014.23 668.238H145.397H241.464H721.799V187.903V91.8358Z" fill="#9F9F9F" stroke="#D6D6D6" stroke-width="960.67"/>
<path d="M721.799 187.903V1347.53L-98.1836 527.551L-194.251 431.484L-1014.23 -388.499H145.397H241.464H721.799V91.8359V187.903Z" fill="#474747" stroke="#D6D6D6" stroke-width="960.67"/>
</g>
<g clip-path="url(#clip29_251_13960)">
<rect width="96.067" height="96.067" transform="matrix(1 0 0 -1 433.599 860.372)" fill="#D6D6D6"/>
<path d="M1010 860.372V2020L190.018 1200.02L93.9506 1103.95L-726.032 283.97H433.599H529.666H1010V764.305V860.372Z" fill="#9F9F9F" stroke="#D6D6D6" stroke-width="960.67"/>
<path d="M1010 764.305V-395.326L190.018 424.657L93.9506 520.724L-726.032 1340.71H433.599H529.666H1010V860.372V764.305Z" fill="#474747" stroke="#D6D6D6" stroke-width="960.67"/>
</g>
<g clip-path="url(#clip30_251_13960)">
<rect width="96.067" height="96.067" transform="translate(145.397 187.903)" fill="#D6D6D6"/>
<path d="M721.799 187.903V-971.728L-98.1836 -151.745L-194.251 -55.6782L-1014.23 764.305H145.397H241.464H721.799V283.97V187.903Z" fill="#9F9F9F" stroke="#D6D6D6" stroke-width="960.67"/>
<path d="M721.799 283.97V1443.6L-98.1836 623.618L-194.251 527.551L-1014.23 -292.432H145.397H241.464H721.799V187.903V283.97Z" fill="#474747" stroke="#D6D6D6" stroke-width="960.67"/>
<path d="M-334.937 283.97V1443.6L485.046 623.618L581.113 527.551L1401.1 -292.432H241.465H145.398H-334.937V187.903V283.97Z" fill="#656565" stroke="#D6D6D6" stroke-width="960.67"/>
</g>
<g clip-path="url(#clip31_251_13960)">
<rect width="96.067" height="96.067" transform="matrix(1 0 0 -1 433.599 764.305)" fill="#D6D6D6"/>
<path d="M1010 764.305V1923.94L190.018 1103.95L93.9506 1007.89L-726.032 187.903H433.599H529.666H1010V668.238V764.305Z" fill="#9F9F9F" stroke="#D6D6D6" stroke-width="960.67"/>
<path d="M1010 668.238V-491.393L190.018 328.59L93.9506 424.657L-726.032 1244.64H433.599H529.666H1010V764.305V668.238Z" fill="#474747" stroke="#D6D6D6" stroke-width="960.67"/>
<path d="M-46.7363 668.238V-491.393L773.247 328.59L869.314 424.657L1689.3 1244.64H529.666H433.599H-46.7363V764.305V668.238Z" fill="#656565" stroke="#D6D6D6" stroke-width="960.67"/>
</g>
<g clip-path="url(#clip32_251_13960)">
<rect width="96.067" height="96.067" transform="translate(145.397 283.97)" fill="#D6D6D6"/>
<path d="M721.799 283.97V-875.661L-98.1836 -55.6783L-194.251 40.3887L-1014.23 860.372H145.397H241.464H721.799V380.037V283.97Z" fill="#9F9F9F" stroke="#D6D6D6" stroke-width="960.67"/>
</g>
<g clip-path="url(#clip33_251_13960)">
<rect width="96.067" height="96.067" transform="matrix(1 0 0 -1 433.599 668.238)" fill="#D6D6D6"/>
<path d="M1010 668.238V1827.87L190.018 1007.89L93.9506 911.819L-726.032 91.8358H433.599H529.666H1010V572.171V668.238Z" fill="#9F9F9F" stroke="#D6D6D6" stroke-width="960.67"/>
</g>
<g clip-path="url(#clip34_251_13960)">
<rect width="96.067" height="96.067" transform="translate(145.397 380.037)" fill="#D6D6D6"/>
<path d="M721.799 380.037V-779.594L-98.1836 40.3887L-194.251 136.456L-1014.23 956.439H145.397H241.464H721.799V476.104V380.037Z" fill="#9F9F9F" stroke="#D6D6D6" stroke-width="960.67"/>
<path d="M721.799 476.104V1635.73L-98.1836 815.752L-194.251 719.685L-1014.23 -100.298H145.397H241.464H721.799V380.037V476.104Z" fill="#474747" stroke="#D6D6D6" stroke-width="960.67"/>
<path d="M-334.937 476.104V1635.73L485.046 815.752L581.113 719.685L1401.1 -100.298H241.465H145.398H-334.937V380.037V476.104Z" fill="#656565" stroke="#D6D6D6" stroke-width="960.67"/>
<path d="M-334.937 380.037V-779.594L485.046 40.3887L581.113 136.456L1401.1 956.439H241.465H145.398H-334.937V476.104V380.037Z" fill="#838383" stroke="#D6D6D6" stroke-width="960.67"/>
</g>
<g clip-path="url(#clip35_251_13960)">
<rect width="96.067" height="96.067" transform="matrix(1 0 0 -1 433.599 572.171)" fill="#D6D6D6"/>
<path d="M1010 572.171V1731.8L190.018 911.819L93.9506 815.752L-726.032 -4.23114H433.599H529.666H1010V476.104V572.171Z" fill="#9F9F9F" stroke="#D6D6D6" stroke-width="960.67"/>
<path d="M1010 476.104V-683.527L190.018 136.456L93.9506 232.523L-726.032 1052.51H433.599H529.666H1010V572.171V476.104Z" fill="#474747" stroke="#D6D6D6" stroke-width="960.67"/>
<path d="M-46.7363 476.104V-683.527L773.247 136.456L869.314 232.523L1689.3 1052.51H529.666H433.599H-46.7363V572.171V476.104Z" fill="#656565" stroke="#D6D6D6" stroke-width="960.67"/>
<path d="M-46.7363 572.171V1731.8L773.247 911.819L869.314 815.752L1689.3 -4.23114H529.666H433.599H-46.7363V476.104V572.171Z" fill="#838383" stroke="#D6D6D6" stroke-width="960.67"/>
</g>
<g clip-path="url(#clip36_251_13960)">
<rect width="96.067" height="96.067" transform="translate(241.465 -4.23114)" fill="#D6D6D6"/>
<path d="M817.867 -4.23114V-1163.86L-2.11623 -343.879L-98.1832 -247.812L-918.166 572.171H241.465H337.532H817.867V91.8358V-4.23114Z" fill="#9F9F9F" stroke="#D6D6D6" stroke-width="960.67"/>
<path d="M817.867 91.8358V1251.47L-2.11623 431.484L-98.1832 335.417L-918.166 -484.566H241.465H337.532H817.867V-4.23113V91.8358Z" fill="#474747" stroke="#D6D6D6" stroke-width="960.67"/>
<path d="M-238.87 91.8358V1251.47L581.113 431.484L677.18 335.417L1497.16 -484.566H337.532H241.465H-238.87V-4.23113V91.8358Z" fill="#656565" stroke="#D6D6D6" stroke-width="960.67"/>
</g>
<rect width="96.067" height="96.067" transform="translate(241.465 91.8358)" fill="#D6D6D6"/>
<g clip-path="url(#clip37_251_13960)">
<rect width="96.067" height="96.067" transform="translate(241.465 187.903)" fill="#D6D6D6"/>
<path d="M817.867 187.903V-971.728L-2.11623 -151.745L-98.1832 -55.6782L-918.166 764.305H241.465H337.532H817.867V283.97V187.903Z" fill="#9F9F9F" stroke="#D6D6D6" stroke-width="960.67"/>
<path d="M817.867 283.97V1443.6L-2.11623 623.618L-98.1832 527.551L-918.166 -292.432H241.465H337.532H817.867V187.903V283.97Z" fill="#474747" stroke="#D6D6D6" stroke-width="960.67"/>
</g>
<g clip-path="url(#clip38_251_13960)">
<rect width="96.067" height="96.067" transform="translate(241.465 283.97)" fill="#D6D6D6"/>
<path d="M817.867 283.97V-875.661L-2.11623 -55.6783L-98.1832 40.3887L-918.166 860.372H241.465H337.532H817.867V380.037V283.97Z" fill="#9F9F9F" stroke="#D6D6D6" stroke-width="960.67"/>
<path d="M817.867 380.037V1539.67L-2.11623 719.685L-98.1832 623.618L-918.166 -196.365H241.465H337.532H817.867V283.97V380.037Z" fill="#474747" stroke="#D6D6D6" stroke-width="960.67"/>
<path d="M-238.87 380.037V1539.67L581.113 719.685L677.18 623.618L1497.16 -196.365H337.532H241.465H-238.87V283.97V380.037Z" fill="#656565" stroke="#D6D6D6" stroke-width="960.67"/>
</g>
<g clip-path="url(#clip39_251_13960)">
<rect width="96.067" height="96.067" transform="translate(241.465 380.037)" fill="#D6D6D6"/>
<path d="M817.867 380.037V-779.594L-2.11623 40.3887L-98.1832 136.456L-918.166 956.439H241.465H337.532H817.867V476.104V380.037Z" fill="#9F9F9F" stroke="#D6D6D6" stroke-width="960.67"/>
<path d="M817.867 476.104V1635.73L-2.11623 815.752L-98.1832 719.685L-918.166 -100.298H241.465H337.532H817.867V380.037V476.104Z" fill="#474747" stroke="#D6D6D6" stroke-width="960.67"/>
<path d="M-238.87 476.104V1635.73L581.113 815.752L677.18 719.685L1497.16 -100.298H337.532H241.465H-238.87V380.037V476.104Z" fill="#656565" stroke="#D6D6D6" stroke-width="960.67"/>
</g>
<g clip-path="url(#clip40_251_13960)">
<rect width="96.067" height="96.067" transform="translate(337.532 -4.23114)" fill="#D6D6D6"/>
<path d="M913.934 -4.23114V-1163.86L93.9507 -343.879L-2.1163 -247.812L-822.099 572.171H337.532H433.599H913.934V91.8358V-4.23114Z" fill="#9F9F9F" stroke="#D6D6D6" stroke-width="960.67"/>
<path d="M913.934 91.8358V1251.47L93.9507 431.484L-2.1163 335.417L-822.099 -484.566H337.532H433.599H913.934V-4.23113V91.8358Z" fill="#474747" stroke="#D6D6D6" stroke-width="960.67"/>
<path d="M-142.803 91.8358V1251.47L677.18 431.484L773.247 335.417L1593.23 -484.566H433.599H337.532H-142.803V-4.23113V91.8358Z" fill="#656565" stroke="#D6D6D6" stroke-width="960.67"/>
</g>
<g clip-path="url(#clip41_251_13960)">
<rect width="96.067" height="96.067" transform="matrix(-1 0 0 -1 721.8 476.104)" fill="#D6D6D6"/>
<path d="M145.397 476.104V1635.73L965.38 815.752L1061.45 719.685L1881.43 -100.298H721.799H625.732H145.397V380.037V476.104Z" fill="#9F9F9F" stroke="#D6D6D6" stroke-width="960.67"/>
<path d="M145.397 380.037V-779.594L965.38 40.3887L1061.45 136.456L1881.43 956.439H721.799H625.732H145.397V476.104V380.037Z" fill="#474747" stroke="#D6D6D6" stroke-width="960.67"/>
<path d="M1202.13 380.037V-779.594L382.151 40.3887L286.084 136.456L-533.899 956.439H625.732H721.799H1202.13V476.104V380.037Z" fill="#656565" stroke="#D6D6D6" stroke-width="960.67"/>
</g>
<g clip-path="url(#clip42_251_13960)">
<rect width="96.067" height="96.067" transform="matrix(1 0 0 -1 -46.7363 956.439)" fill="#D6D6D6"/>
<path d="M529.666 956.439V2116.07L-290.317 1296.09L-386.384 1200.02L-1206.37 380.037H-46.7363H49.3307H529.666V860.372V956.439Z" fill="#9F9F9F" stroke="#D6D6D6" stroke-width="960.67"/>
<path d="M529.666 860.372V-299.259L-290.317 520.724L-386.384 616.791L-1206.37 1436.77H-46.7363H49.3307H529.666V956.439V860.372Z" fill="#474747" stroke="#D6D6D6" stroke-width="960.67"/>
<path d="M-527.071 860.372V-299.259L292.912 520.724L388.979 616.791L1208.96 1436.77H49.3306H-46.7364H-527.071V956.439V860.372Z" fill="#656565" stroke="#D6D6D6" stroke-width="960.67"/>
</g>
<g clip-path="url(#clip43_251_13960)">
<rect width="96.067" height="96.067" transform="translate(337.532 91.8358)" fill="#D6D6D6"/>
<path d="M913.934 91.8358V-1067.8L93.9507 -247.812L-2.1163 -151.745L-822.099 668.238H337.532H433.599H913.934V187.903V91.8358Z" fill="#9F9F9F" stroke="#D6D6D6" stroke-width="960.67"/>
<path d="M913.934 187.903V1347.53L93.9507 527.551L-2.1163 431.484L-822.099 -388.499H337.532H433.599H913.934V91.8359V187.903Z" fill="#474747" stroke="#D6D6D6" stroke-width="960.67"/>
<path d="M-142.803 187.903V1347.53L677.18 527.551L773.247 431.484L1593.23 -388.499H433.599H337.532H-142.803V91.8359V187.903Z" fill="#656565" stroke="#D6D6D6" stroke-width="960.67"/>
</g>
<g clip-path="url(#clip44_251_13960)">
<rect width="96.067" height="96.067" transform="matrix(-1 0 0 -1 721.8 380.037)" fill="#D6D6D6"/>
<path d="M145.397 380.037V1539.67L965.38 719.685L1061.45 623.618L1881.43 -196.365H721.799H625.732H145.397V283.97V380.037Z" fill="#9F9F9F" stroke="#D6D6D6" stroke-width="960.67"/>
<path d="M145.397 283.97V-875.661L965.38 -55.6783L1061.45 40.3887L1881.43 860.372H721.799H625.732H145.397V380.037V283.97Z" fill="#474747" stroke="#D6D6D6" stroke-width="960.67"/>
<path d="M1202.13 283.97V-875.661L382.151 -55.6783L286.084 40.3887L-533.899 860.372H625.732H721.799H1202.13V380.037V283.97Z" fill="#656565" stroke="#D6D6D6" stroke-width="960.67"/>
</g>
<g clip-path="url(#clip45_251_13960)">
<rect width="96.067" height="96.067" transform="matrix(1 0 0 -1 -46.7363 860.372)" fill="#D6D6D6"/>
<path d="M529.666 860.372V2020L-290.317 1200.02L-386.384 1103.95L-1206.37 283.97H-46.7363H49.3307H529.666V764.305V860.372Z" fill="#9F9F9F" stroke="#D6D6D6" stroke-width="960.67"/>
<path d="M529.666 764.305V-395.326L-290.317 424.657L-386.384 520.724L-1206.37 1340.71H-46.7363H49.3307H529.666V860.372V764.305Z" fill="#474747" stroke="#D6D6D6" stroke-width="960.67"/>
<path d="M-527.071 764.305V-395.326L292.912 424.657L388.979 520.724L1208.96 1340.71H49.3306H-46.7364H-527.071V860.372V764.305Z" fill="#656565" stroke="#D6D6D6" stroke-width="960.67"/>
</g>
<g clip-path="url(#clip46_251_13960)">
<rect width="96.067" height="96.067" transform="translate(337.532 187.903)" fill="#D6D6D6"/>
<path d="M913.934 187.903V-971.728L93.9507 -151.745L-2.1163 -55.6782L-822.099 764.305H337.532H433.599H913.934V283.97V187.903Z" fill="#9F9F9F" stroke="#D6D6D6" stroke-width="960.67"/>
<path d="M913.934 283.97V1443.6L93.9507 623.618L-2.1163 527.551L-822.099 -292.432H337.532H433.599H913.934V187.903V283.97Z" fill="#474747" stroke="#D6D6D6" stroke-width="960.67"/>
<path d="M-142.803 283.97V1443.6L677.18 623.618L773.247 527.551L1593.23 -292.432H433.599H337.532H-142.803V187.903V283.97Z" fill="#656565" stroke="#D6D6D6" stroke-width="960.67"/>
</g>
<g clip-path="url(#clip47_251_13960)">
<rect width="96.067" height="96.067" transform="matrix(-1 0 0 -1 721.8 283.97)" fill="#D6D6D6"/>
<path d="M145.397 283.97V1443.6L965.38 623.618L1061.45 527.551L1881.43 -292.432H721.799H625.732H145.397V187.903V283.97Z" fill="#9F9F9F" stroke="#D6D6D6" stroke-width="960.67"/>
<path d="M145.397 187.903V-971.728L965.38 -151.745L1061.45 -55.6783L1881.43 764.305H721.799H625.732H145.397V283.97V187.903Z" fill="#474747" stroke="#D6D6D6" stroke-width="960.67"/>
<path d="M1202.13 187.903V-971.728L382.151 -151.745L286.084 -55.6783L-533.899 764.305H625.732H721.799H1202.13V283.97V187.903Z" fill="#656565" stroke="#D6D6D6" stroke-width="960.67"/>
</g>
<g clip-path="url(#clip48_251_13960)">
<rect width="96.067" height="96.067" transform="matrix(1 0 0 -1 -46.7363 764.305)" fill="#D6D6D6"/>
<path d="M529.666 764.305V1923.94L-290.317 1103.95L-386.384 1007.89L-1206.37 187.903H-46.7363H49.3307H529.666V668.238V764.305Z" fill="#9F9F9F" stroke="#D6D6D6" stroke-width="960.67"/>
<path d="M529.666 668.238V-491.393L-290.317 328.59L-386.384 424.657L-1206.37 1244.64H-46.7363H49.3307H529.666V764.305V668.238Z" fill="#474747" stroke="#D6D6D6" stroke-width="960.67"/>
<path d="M-527.071 668.238V-491.393L292.912 328.59L388.979 424.657L1208.96 1244.64H49.3306H-46.7364H-527.071V764.305V668.238Z" fill="#656565" stroke="#D6D6D6" stroke-width="960.67"/>
</g>
<g clip-path="url(#clip49_251_13960)">
<rect width="96.067" height="96.067" transform="translate(337.532 283.97)" fill="#D6D6D6"/>
<path d="M913.934 283.97V-875.661L93.9507 -55.6783L-2.1163 40.3887L-822.099 860.372H337.532H433.599H913.934V380.037V283.97Z" fill="#9F9F9F" stroke="#D6D6D6" stroke-width="960.67"/>
</g>
<g clip-path="url(#clip50_251_13960)">
<rect width="96.067" height="96.067" transform="matrix(-1 0 0 -1 721.8 187.903)" fill="#D6D6D6"/>
<path d="M145.397 187.903V1347.53L965.38 527.551L1061.45 431.484L1881.43 -388.499H721.799H625.732H145.397V91.8359V187.903Z" fill="#9F9F9F" stroke="#D6D6D6" stroke-width="960.67"/>
</g>
<g clip-path="url(#clip51_251_13960)">
<rect width="96.067" height="96.067" transform="matrix(1 0 0 -1 -46.7363 668.238)" fill="#D6D6D6"/>
<path d="M529.666 668.238V1827.87L-290.317 1007.89L-386.384 911.819L-1206.37 91.8358H-46.7363H49.3307H529.666V572.171V668.238Z" fill="#9F9F9F" stroke="#D6D6D6" stroke-width="960.67"/>
</g>
<g clip-path="url(#clip52_251_13960)">
<rect width="96.067" height="96.067" transform="translate(337.532 380.037)" fill="#D6D6D6"/>
<path d="M913.934 380.037V-779.594L93.9507 40.3887L-2.1163 136.456L-822.099 956.439H337.532H433.599H913.934V476.104V380.037Z" fill="#9F9F9F" stroke="#D6D6D6" stroke-width="960.67"/>
<path d="M913.934 476.104V1635.73L93.9507 815.752L-2.1163 719.685L-822.099 -100.298H337.532H433.599H913.934V380.037V476.104Z" fill="#474747" stroke="#D6D6D6" stroke-width="960.67"/>
<path d="M-142.803 476.104V1635.73L677.18 815.752L773.247 719.685L1593.23 -100.298H433.599H337.532H-142.803V380.037V476.104Z" fill="#656565" stroke="#D6D6D6" stroke-width="960.67"/>
</g>
<g clip-path="url(#clip53_251_13960)">
<rect width="96.067" height="96.067" transform="matrix(-1 0 0 -1 721.8 91.8358)" fill="#D6D6D6"/>
<path d="M145.397 91.8358V1251.47L965.38 431.484L1061.45 335.417L1881.43 -484.566H721.799H625.732H145.397V-4.23113V91.8358Z" fill="#9F9F9F" stroke="#D6D6D6" stroke-width="960.67"/>
<path d="M145.397 -4.23114V-1163.86L965.38 -343.879L1061.45 -247.812L1881.43 572.171H721.799H625.732H145.397V91.8358V-4.23114Z" fill="#474747" stroke="#D6D6D6" stroke-width="960.67"/>
<path d="M1202.13 -4.23114V-1163.86L382.151 -343.879L286.084 -247.812L-533.899 572.171H625.732H721.799H1202.13V91.8358V-4.23114Z" fill="#656565" stroke="#D6D6D6" stroke-width="960.67"/>
</g>
<g clip-path="url(#clip54_251_13960)">
<rect width="96.067" height="96.067" transform="matrix(1 0 0 -1 -46.7363 572.171)" fill="#D6D6D6"/>
<path d="M529.666 572.171V1731.8L-290.317 911.819L-386.384 815.752L-1206.37 -4.23114H-46.7363H49.3307H529.666V476.104V572.171Z" fill="#9F9F9F" stroke="#D6D6D6" stroke-width="960.67"/>
<path d="M529.666 476.104V-683.527L-290.317 136.456L-386.384 232.523L-1206.37 1052.51H-46.7363H49.3307H529.666V572.171V476.104Z" fill="#474747" stroke="#D6D6D6" stroke-width="960.67"/>
<path d="M-527.071 476.104V-683.527L292.912 136.456L388.979 232.523L1208.96 1052.51H49.3306H-46.7364H-527.071V572.171V476.104Z" fill="#656565" stroke="#D6D6D6" stroke-width="960.67"/>
</g>
<g clip-path="url(#clip55_251_13960)">
<rect width="96.067" height="96.067" transform="translate(433.599 -4.23114)" fill="#D6D6D6"/>
<path d="M1010 -4.23114V-1163.86L190.018 -343.879L93.9506 -247.812L-726.032 572.171H433.599H529.666H1010V91.8358V-4.23114Z" fill="#9F9F9F" stroke="#D6D6D6" stroke-width="960.67"/>
<path d="M1010 91.8358V1251.47L190.018 431.484L93.9506 335.417L-726.032 -484.566H433.599H529.666H1010V-4.23113V91.8358Z" fill="#474747" stroke="#D6D6D6" stroke-width="960.67"/>
<path d="M-46.7363 91.8358V1251.47L773.247 431.484L869.314 335.417L1689.3 -484.566H529.666H433.599H-46.7363V-4.23113V91.8358Z" fill="#656565" stroke="#D6D6D6" stroke-width="960.67"/>
</g>
<g clip-path="url(#clip56_251_13960)">
<rect width="96.067" height="96.067" transform="matrix(-1 0 0 -1 625.732 476.104)" fill="#D6D6D6"/>
<path d="M49.3306 476.104V1635.73L869.313 815.752L965.38 719.685L1785.36 -100.298H625.732H529.665H49.3306V380.037V476.104Z" fill="#9F9F9F" stroke="#D6D6D6" stroke-width="960.67"/>
<path d="M49.3306 380.037V-779.594L869.313 40.3887L965.38 136.456L1785.36 956.439H625.732H529.665H49.3306V476.104V380.037Z" fill="#474747" stroke="#D6D6D6" stroke-width="960.67"/>
<path d="M1106.07 380.037V-779.594L286.084 40.3887L190.017 136.456L-629.965 956.439H529.666H625.733H1106.07V476.104V380.037Z" fill="#656565" stroke="#D6D6D6" stroke-width="960.67"/>
</g>
<g clip-path="url(#clip57_251_13960)">
<rect width="96.067" height="96.067" transform="matrix(1 0 0 -1 49.3306 956.439)" fill="#D6D6D6"/>
<path d="M625.732 956.439V2116.07L-194.251 1296.09L-290.317 1200.02L-1110.3 380.037H49.3306H145.398H625.732V860.372V956.439Z" fill="#9F9F9F" stroke="#D6D6D6" stroke-width="960.67"/>
<path d="M625.732 860.372V-299.259L-194.251 520.724L-290.317 616.791L-1110.3 1436.77H49.3306H145.398H625.732V956.439V860.372Z" fill="#474747" stroke="#D6D6D6" stroke-width="960.67"/>
<path d="M-431.004 860.372V-299.259L388.979 520.724L485.046 616.791L1305.03 1436.77H145.397H49.3305H-431.004V956.439V860.372Z" fill="#656565" stroke="#D6D6D6" stroke-width="960.67"/>
</g>
<g clip-path="url(#clip58_251_13960)">
<rect width="96.067" height="96.067" transform="translate(433.599 91.8358)" fill="#D6D6D6"/>
<path d="M1010 91.8358V-1067.8L190.018 -247.812L93.9506 -151.745L-726.032 668.238H433.599H529.666H1010V187.903V91.8358Z" fill="#9F9F9F" stroke="#D6D6D6" stroke-width="960.67"/>
</g>
<g clip-path="url(#clip59_251_13960)">
<rect width="96.067" height="96.067" transform="matrix(-1 0 0 -1 625.732 380.037)" fill="#D6D6D6"/>
<path d="M49.3306 380.037V1539.67L869.313 719.685L965.38 623.618L1785.36 -196.365H625.732H529.665H49.3306V283.97V380.037Z" fill="#9F9F9F" stroke="#D6D6D6" stroke-width="960.67"/>
</g>
<g clip-path="url(#clip60_251_13960)">
<rect width="96.067" height="96.067" transform="matrix(1 0 0 -1 49.3306 860.372)" fill="#D6D6D6"/>
<path d="M625.732 860.372V2020L-194.251 1200.02L-290.317 1103.95L-1110.3 283.97H49.3306H145.398H625.732V764.305V860.372Z" fill="#9F9F9F" stroke="#D6D6D6" stroke-width="960.67"/>
</g>
<g clip-path="url(#clip61_251_13960)">
<rect width="96.067" height="96.067" transform="translate(433.599 187.903)" fill="#D6D6D6"/>
<path d="M1010 187.903V-971.728L190.018 -151.745L93.9506 -55.6782L-726.032 764.305H433.599H529.666H1010V283.97V187.903Z" fill="#9F9F9F" stroke="#D6D6D6" stroke-width="960.67"/>
<path d="M1010 283.97V1443.6L190.018 623.618L93.9506 527.551L-726.032 -292.432H433.599H529.666H1010V187.903V283.97Z" fill="#474747" stroke="#D6D6D6" stroke-width="960.67"/>
<path d="M-46.7363 283.97V1443.6L773.247 623.618L869.314 527.551L1689.3 -292.432H529.666H433.599H-46.7363V187.903V283.97Z" fill="#656565" stroke="#D6D6D6" stroke-width="960.67"/>
</g>
<g clip-path="url(#clip62_251_13960)">
<rect width="96.067" height="96.067" transform="matrix(-1 0 0 -1 625.732 283.97)" fill="#D6D6D6"/>
<path d="M49.3306 283.97V1443.6L869.313 623.618L965.38 527.551L1785.36 -292.432H625.732H529.665H49.3306V187.903V283.97Z" fill="#9F9F9F" stroke="#D6D6D6" stroke-width="960.67"/>
<path d="M49.3306 187.903V-971.728L869.313 -151.745L965.38 -55.6783L1785.36 764.305H625.732H529.665H49.3306V283.97V187.903Z" fill="#474747" stroke="#D6D6D6" stroke-width="960.67"/>
<path d="M1106.07 187.903V-971.728L286.084 -151.745L190.017 -55.6783L-629.965 764.305H529.666H625.733H1106.07V283.97V187.903Z" fill="#656565" stroke="#D6D6D6" stroke-width="960.67"/>
</g>
<rect width="96.067" height="96.067" transform="matrix(1 0 0 -1 49.3306 764.305)" fill="#D6D6D6"/>
<g clip-path="url(#clip63_251_13960)">
<rect width="96.067" height="96.067" transform="translate(433.599 283.97)" fill="#D6D6D6"/>
<path d="M1010 283.97V-875.661L190.018 -55.6783L93.9506 40.3887L-726.032 860.372H433.599H529.666H1010V380.037V283.97Z" fill="#9F9F9F" stroke="#D6D6D6" stroke-width="960.67"/>
<path d="M1010 380.037V1539.67L190.018 719.685L93.9506 623.618L-726.032 -196.365H433.599H529.666H1010V283.97V380.037Z" fill="#474747" stroke="#D6D6D6" stroke-width="960.67"/>
<path d="M-46.7363 380.037V1539.67L773.247 719.685L869.314 623.618L1689.3 -196.365H529.666H433.599H-46.7363V283.97V380.037Z" fill="#656565" stroke="#D6D6D6" stroke-width="960.67"/>
</g>
<g clip-path="url(#clip64_251_13960)">
<rect width="96.067" height="96.067" transform="matrix(-1 0 0 -1 625.732 187.903)" fill="#D6D6D6"/>
<path d="M49.3306 187.903V1347.53L869.313 527.551L965.38 431.484L1785.36 -388.499H625.732H529.665H49.3306V91.8359V187.903Z" fill="#9F9F9F" stroke="#D6D6D6" stroke-width="960.67"/>
<path d="M49.3306 91.8358V-1067.8L869.313 -247.812L965.38 -151.745L1785.36 668.238H625.732H529.665H49.3306V187.903V91.8358Z" fill="#474747" stroke="#D6D6D6" stroke-width="960.67"/>
<path d="M1106.07 91.8358V-1067.8L286.084 -247.812L190.017 -151.745L-629.965 668.238H529.666H625.733H1106.07V187.903V91.8358Z" fill="#656565" stroke="#D6D6D6" stroke-width="960.67"/>
</g>
<g clip-path="url(#clip65_251_13960)">
<rect width="96.067" height="96.067" transform="matrix(1 0 0 -1 49.3306 668.238)" fill="#D6D6D6"/>
<path d="M625.732 668.238V1827.87L-194.251 1007.89L-290.317 911.819L-1110.3 91.8358H49.3306H145.398H625.732V572.171V668.238Z" fill="#9F9F9F" stroke="#D6D6D6" stroke-width="960.67"/>
<path d="M625.732 572.171V-587.46L-194.251 232.523L-290.317 328.59L-1110.3 1148.57H49.3306H145.398H625.732V668.238V572.171Z" fill="#474747" stroke="#D6D6D6" stroke-width="960.67"/>
<path d="M-431.004 572.171V-587.46L388.979 232.523L485.046 328.59L1305.03 1148.57H145.397H49.3305H-431.004V668.238V572.171Z" fill="#656565" stroke="#D6D6D6" stroke-width="960.67"/>
</g>
<g clip-path="url(#clip66_251_13960)">
<rect width="96.067" height="96.067" transform="translate(433.599 380.037)" fill="#D6D6D6"/>
<path d="M1010 380.037V-779.594L190.018 40.3887L93.9506 136.456L-726.032 956.439H433.599H529.666H1010V476.104V380.037Z" fill="#9F9F9F" stroke="#D6D6D6" stroke-width="960.67"/>
<path d="M1010 476.104V1635.73L190.018 815.752L93.9506 719.685L-726.032 -100.298H433.599H529.666H1010V380.037V476.104Z" fill="#474747" stroke="#D6D6D6" stroke-width="960.67"/>
</g>
<g clip-path="url(#clip67_251_13960)">
<rect width="96.067" height="96.067" transform="matrix(-1 0 0 -1 625.732 91.8358)" fill="#D6D6D6"/>
<path d="M49.3306 91.8358V1251.47L869.313 431.484L965.38 335.417L1785.36 -484.566H625.732H529.665H49.3306V-4.23113V91.8358Z" fill="#9F9F9F" stroke="#D6D6D6" stroke-width="960.67"/>
<path d="M49.3306 -4.23114V-1163.86L869.313 -343.879L965.38 -247.812L1785.36 572.171H625.732H529.665H49.3306V91.8358V-4.23114Z" fill="#474747" stroke="#D6D6D6" stroke-width="960.67"/>
</g>
<g clip-path="url(#clip68_251_13960)">
<rect width="96.067" height="96.067" transform="matrix(1 0 0 -1 49.3306 572.171)" fill="#D6D6D6"/>
<path d="M625.732 572.171V1731.8L-194.251 911.819L-290.317 815.752L-1110.3 -4.23114H49.3306H145.398H625.732V476.104V572.171Z" fill="#9F9F9F" stroke="#D6D6D6" stroke-width="960.67"/>
<path d="M625.732 476.104V-683.527L-194.251 136.456L-290.317 232.523L-1110.3 1052.51H49.3306H145.398H625.732V572.171V476.104Z" fill="#474747" stroke="#D6D6D6" stroke-width="960.67"/>
</g>
<g clip-path="url(#clip69_251_13960)">
<rect width="96.067" height="96.067" transform="matrix(-1 0 0 1 721.8 668.238)" fill="#D6D6D6"/>
<path d="M145.397 668.238V-491.393L965.38 328.59L1061.45 424.657L1881.43 1244.64H721.799H625.732H145.397V764.305V668.238Z" fill="#9F9F9F" stroke="#D6D6D6" stroke-width="960.67"/>
<path d="M145.397 764.305V1923.94L965.38 1103.95L1061.45 1007.89L1881.43 187.903H721.799H625.732H145.397V668.238V764.305Z" fill="#474747" stroke="#D6D6D6" stroke-width="960.67"/>
<path d="M1202.13 764.305V1923.94L382.151 1103.95L286.084 1007.89L-533.899 187.903H625.732H721.799H1202.13V668.238V764.305Z" fill="#656565" stroke="#D6D6D6" stroke-width="960.67"/>
</g>
<g clip-path="url(#clip70_251_13960)">
<rect width="96.067" height="96.067" transform="matrix(-1 0 0 1 721.8 764.305)" fill="#D6D6D6"/>
<path d="M145.397 764.305V-395.326L965.38 424.657L1061.45 520.724L1881.43 1340.71H721.799H625.732H145.397V860.372V764.305Z" fill="#9F9F9F" stroke="#D6D6D6" stroke-width="960.67"/>
<path d="M145.397 860.372V2020L965.38 1200.02L1061.45 1103.95L1881.43 283.97H721.799H625.732H145.397V764.305V860.372Z" fill="#474747" stroke="#D6D6D6" stroke-width="960.67"/>
<path d="M1202.13 860.372V2020L382.151 1200.02L286.084 1103.95L-533.899 283.97H625.732H721.799H1202.13V764.305V860.372Z" fill="#656565" stroke="#D6D6D6" stroke-width="960.67"/>
</g>
<g clip-path="url(#clip71_251_13960)">
<rect width="96.067" height="96.067" transform="matrix(-1 0 0 1 721.8 860.372)" fill="#D6D6D6"/>
<path d="M145.397 860.372V-299.259L965.38 520.724L1061.45 616.791L1881.43 1436.77H721.799H625.732H145.397V956.439V860.372Z" fill="#9F9F9F" stroke="#D6D6D6" stroke-width="960.67"/>
<path d="M145.397 956.439V2116.07L965.38 1296.09L1061.45 1200.02L1881.43 380.037H721.799H625.732H145.397V860.372V956.439Z" fill="#474747" stroke="#D6D6D6" stroke-width="960.67"/>
<path d="M1202.13 956.439V2116.07L382.151 1296.09L286.084 1200.02L-533.899 380.037H625.732H721.799H1202.13V860.372V956.439Z" fill="#656565" stroke="#D6D6D6" stroke-width="960.67"/>
</g>
<g clip-path="url(#clip72_251_13960)">
<rect width="96.067" height="96.067" transform="matrix(-1 0 0 1 721.8 476.104)" fill="#D6D6D6"/>
<path d="M145.397 476.104V-683.527L965.38 136.456L1061.45 232.523L1881.43 1052.51H721.799H625.732H145.397V572.171V476.104Z" fill="#9F9F9F" stroke="#D6D6D6" stroke-width="960.67"/>
<path d="M145.397 572.171V1731.8L965.38 911.819L1061.45 815.752L1881.43 -4.23114H721.799H625.732H145.397V476.104V572.171Z" fill="#474747" stroke="#D6D6D6" stroke-width="960.67"/>
<path d="M1202.13 572.171V1731.8L382.151 911.819L286.084 815.752L-533.899 -4.23114H625.732H721.799H1202.13V476.104V572.171Z" fill="#656565" stroke="#D6D6D6" stroke-width="960.67"/>
</g>
<g clip-path="url(#clip73_251_13960)">
<rect width="96.067" height="96.067" transform="matrix(-1 0 0 1 721.8 572.171)" fill="#D6D6D6"/>
<path d="M145.397 572.171V-587.46L965.38 232.523L1061.45 328.59L1881.43 1148.57H721.799H625.732H145.397V668.238V572.171Z" fill="#9F9F9F" stroke="#D6D6D6" stroke-width="960.67"/>
<path d="M145.397 668.238V1827.87L965.38 1007.89L1061.45 911.819L1881.43 91.8358H721.799H625.732H145.397V572.171V668.238Z" fill="#474747" stroke="#D6D6D6" stroke-width="960.67"/>
</g>
<g clip-path="url(#clip74_251_13960)">
<rect width="96.067" height="96.067" transform="matrix(-1 0 0 1 625.732 668.238)" fill="#D6D6D6"/>
<path d="M49.3306 668.238V-491.393L869.313 328.59L965.38 424.657L1785.36 1244.64H625.732H529.665H49.3306V764.305V668.238Z" fill="#9F9F9F" stroke="#D6D6D6" stroke-width="960.67"/>
<path d="M49.3306 764.305V1923.94L869.313 1103.95L965.38 1007.89L1785.36 187.903H625.732H529.665H49.3306V668.238V764.305Z" fill="#474747" stroke="#D6D6D6" stroke-width="960.67"/>
<path d="M1106.07 764.305V1923.94L286.084 1103.95L190.017 1007.89L-629.965 187.903H529.666H625.733H1106.07V668.238V764.305Z" fill="#656565" stroke="#D6D6D6" stroke-width="960.67"/>
</g>
<g clip-path="url(#clip75_251_13960)">
<rect width="96.067" height="96.067" transform="matrix(-1 0 0 1 625.732 764.305)" fill="#D6D6D6"/>
<path d="M49.3306 764.305V-395.326L869.313 424.657L965.38 520.724L1785.36 1340.71H625.732H529.665H49.3306V860.372V764.305Z" fill="#9F9F9F" stroke="#D6D6D6" stroke-width="960.67"/>
<path d="M49.3306 860.372V2020L869.313 1200.02L965.38 1103.95L1785.36 283.97H625.732H529.665H49.3306V764.305V860.372Z" fill="#474747" stroke="#D6D6D6" stroke-width="960.67"/>
<path d="M1106.07 860.372V2020L286.084 1200.02L190.017 1103.95L-629.965 283.97H529.666H625.733H1106.07V764.305V860.372Z" fill="#656565" stroke="#D6D6D6" stroke-width="960.67"/>
</g>
<g clip-path="url(#clip76_251_13960)">
<rect width="96.067" height="96.067" transform="matrix(-1 0 0 1 625.732 860.372)" fill="#D6D6D6"/>
<path d="M49.3306 860.372V-299.259L869.313 520.724L965.38 616.791L1785.36 1436.77H625.732H529.665H49.3306V956.439V860.372Z" fill="#9F9F9F" stroke="#D6D6D6" stroke-width="960.67"/>
<path d="M49.3306 956.439V2116.07L869.313 1296.09L965.38 1200.02L1785.36 380.037H625.732H529.665H49.3306V860.372V956.439Z" fill="#474747" stroke="#D6D6D6" stroke-width="960.67"/>
<path d="M1106.07 956.439V2116.07L286.084 1296.09L190.017 1200.02L-629.965 380.037H529.666H625.733H1106.07V860.372V956.439Z" fill="#656565" stroke="#D6D6D6" stroke-width="960.67"/>
</g>
<g clip-path="url(#clip77_251_13960)">
<rect width="96.067" height="96.067" transform="matrix(-1 0 0 1 625.732 476.104)" fill="#D6D6D6"/>
<path d="M49.3306 476.104V-683.527L869.313 136.456L965.38 232.523L1785.36 1052.51H625.732H529.665H49.3306V572.171V476.104Z" fill="#9F9F9F" stroke="#D6D6D6" stroke-width="960.67"/>
</g>
<g clip-path="url(#clip78_251_13960)">
<rect width="96.067" height="96.067" transform="matrix(-1 0 0 1 625.732 572.171)" fill="#D6D6D6"/>
<path d="M49.3306 572.171V-587.46L869.313 232.523L965.38 328.59L1785.36 1148.57H625.732H529.665H49.3306V668.238V572.171Z" fill="#9F9F9F" stroke="#D6D6D6" stroke-width="960.67"/>
<path d="M49.3306 668.238V1827.87L869.313 1007.89L965.38 911.819L1785.36 91.8358H625.732H529.665H49.3306V572.171V668.238Z" fill="#474747" stroke="#D6D6D6" stroke-width="960.67"/>
<path d="M1106.07 668.238V1827.87L286.084 1007.89L190.017 911.819L-629.965 91.8358H529.666H625.733H1106.07V572.171V668.238Z" fill="#656565" stroke="#D6D6D6" stroke-width="960.67"/>
<path d="M1106.07 572.171V-587.46L286.084 232.523L190.017 328.59L-629.965 1148.57H529.666H625.733H1106.07V668.238V572.171Z" fill="#838383" stroke="#D6D6D6" stroke-width="960.67"/>
</g>
<g style="mix-blend-mode:screen">
<rect x="-142.803" y="-4.23114" width="1344.94" height="960.67" fill="url(#paint1_linear_251_13960)"/>
</g>
</g>
<defs>
<linearGradient id="paint0_linear_251_13960" x1="0" y1="0" x2="1488.25" y2="323.004" gradientUnits="userSpaceOnUse">
<stop stop-color="#FA3329"/>
<stop offset="1" stop-color="#F7453C"/>
</linearGradient>
<linearGradient id="paint1_linear_251_13960" x1="-142.803" y1="-4.23114" x2="1340.46" y2="316.259" gradientUnits="userSpaceOnUse">
<stop stop-color="#FA3329"/>
<stop offset="1" stop-color="#F7453C"/>
</linearGradient>
<clipPath id="clip0_251_13960">
<rect width="1350" height="960" fill="white" transform="translate(-142.803 -4.23114)"/>
</clipPath>
<clipPath id="clip1_251_13960">
<rect width="96.067" height="96.067" fill="white" transform="matrix(1 0 0 -1 145.397 956.439)"/>
</clipPath>
<clipPath id="clip2_251_13960">
<rect width="96.067" height="96.067" fill="white" transform="matrix(1 0 0 -1 145.397 860.372)"/>
</clipPath>
<clipPath id="clip3_251_13960">
<rect width="96.067" height="96.067" fill="white" transform="matrix(1 0 0 -1 145.397 764.305)"/>
</clipPath>
<clipPath id="clip4_251_13960">
<rect width="96.067" height="96.067" fill="white" transform="matrix(1 0 0 -1 145.397 668.238)"/>
</clipPath>
<clipPath id="clip5_251_13960">
<rect width="96.067" height="96.067" fill="white" transform="matrix(1 0 0 -1 145.397 572.171)"/>
</clipPath>
<clipPath id="clip6_251_13960">
<rect width="96.067" height="96.067" fill="white" transform="translate(-46.7363 -4.23114)"/>
</clipPath>
<clipPath id="clip7_251_13960">
<rect width="96.067" height="96.067" fill="white" transform="matrix(1 0 0 -1 241.465 956.439)"/>
</clipPath>
<clipPath id="clip8_251_13960">
<rect width="96.067" height="96.067" fill="white" transform="translate(-46.7363 91.8358)"/>
</clipPath>
<clipPath id="clip9_251_13960">
<rect width="96.067" height="96.067" fill="white" transform="matrix(1 0 0 -1 241.465 860.372)"/>
</clipPath>
<clipPath id="clip10_251_13960">
<rect width="96.067" height="96.067" fill="white" transform="translate(-46.7363 187.903)"/>
</clipPath>
<clipPath id="clip11_251_13960">
<rect width="96.067" height="96.067" fill="white" transform="matrix(1 0 0 -1 241.465 764.305)"/>
</clipPath>
<clipPath id="clip12_251_13960">
<rect width="96.067" height="96.067" fill="white" transform="translate(-46.7363 283.97)"/>
</clipPath>
<clipPath id="clip13_251_13960">
<rect width="96.067" height="96.067" fill="white" transform="matrix(1 0 0 -1 241.465 668.238)"/>
</clipPath>
<clipPath id="clip14_251_13960">
<rect width="96.067" height="96.067" fill="white" transform="translate(-46.7363 380.037)"/>
</clipPath>
<clipPath id="clip15_251_13960">
<rect width="96.067" height="96.067" fill="white" transform="matrix(1 0 0 -1 241.465 572.171)"/>
</clipPath>
<clipPath id="clip16_251_13960">
<rect width="96.067" height="96.067" fill="white" transform="translate(49.3306 -4.23114)"/>
</clipPath>
<clipPath id="clip17_251_13960">
<rect width="96.067" height="96.067" fill="white" transform="matrix(1 0 0 -1 337.532 956.439)"/>
</clipPath>
<clipPath id="clip18_251_13960">
<rect width="96.067" height="96.067" fill="white" transform="translate(49.3306 91.8358)"/>
</clipPath>
<clipPath id="clip19_251_13960">
<rect width="96.067" height="96.067" fill="white" transform="matrix(1 0 0 -1 337.532 860.372)"/>
</clipPath>
<clipPath id="clip20_251_13960">
<rect width="96.067" height="96.067" fill="white" transform="translate(49.3306 187.903)"/>
</clipPath>
<clipPath id="clip21_251_13960">
<rect width="96.067" height="96.067" fill="white" transform="matrix(1 0 0 -1 337.532 764.305)"/>
</clipPath>
<clipPath id="clip22_251_13960">
<rect width="96.067" height="96.067" fill="white" transform="translate(49.3306 283.97)"/>
</clipPath>
<clipPath id="clip23_251_13960">
<rect width="96.067" height="96.067" fill="white" transform="matrix(1 0 0 -1 337.532 668.238)"/>
</clipPath>
<clipPath id="clip24_251_13960">
<rect width="96.067" height="96.067" fill="white" transform="translate(49.3306 380.037)"/>
</clipPath>
<clipPath id="clip25_251_13960">
<rect width="96.067" height="96.067" fill="white" transform="matrix(1 0 0 -1 337.532 572.171)"/>
</clipPath>
<clipPath id="clip26_251_13960">
<rect width="96.067" height="96.067" fill="white" transform="translate(145.397 -4.23114)"/>
</clipPath>
<clipPath id="clip27_251_13960">
<rect width="96.067" height="96.067" fill="white" transform="matrix(1 0 0 -1 433.599 956.439)"/>
</clipPath>
<clipPath id="clip28_251_13960">
<rect width="96.067" height="96.067" fill="white" transform="translate(145.397 91.8358)"/>
</clipPath>
<clipPath id="clip29_251_13960">
<rect width="96.067" height="96.067" fill="white" transform="matrix(1 0 0 -1 433.599 860.372)"/>
</clipPath>
<clipPath id="clip30_251_13960">
<rect width="96.067" height="96.067" fill="white" transform="translate(145.397 187.903)"/>
</clipPath>
<clipPath id="clip31_251_13960">
<rect width="96.067" height="96.067" fill="white" transform="matrix(1 0 0 -1 433.599 764.305)"/>
</clipPath>
<clipPath id="clip32_251_13960">
<rect width="96.067" height="96.067" fill="white" transform="translate(145.397 283.97)"/>
</clipPath>
<clipPath id="clip33_251_13960">
<rect width="96.067" height="96.067" fill="white" transform="matrix(1 0 0 -1 433.599 668.238)"/>
</clipPath>
<clipPath id="clip34_251_13960">
<rect width="96.067" height="96.067" fill="white" transform="translate(145.397 380.037)"/>
</clipPath>
<clipPath id="clip35_251_13960">
<rect width="96.067" height="96.067" fill="white" transform="matrix(1 0 0 -1 433.599 572.171)"/>
</clipPath>
<clipPath id="clip36_251_13960">
<rect width="96.067" height="96.067" fill="white" transform="translate(241.465 -4.23114)"/>
</clipPath>
<clipPath id="clip37_251_13960">
<rect width="96.067" height="96.067" fill="white" transform="translate(241.465 187.903)"/>
</clipPath>
<clipPath id="clip38_251_13960">
<rect width="96.067" height="96.067" fill="white" transform="translate(241.465 283.97)"/>
</clipPath>
<clipPath id="clip39_251_13960">
<rect width="96.067" height="96.067" fill="white" transform="translate(241.465 380.037)"/>
</clipPath>
<clipPath id="clip40_251_13960">
<rect width="96.067" height="96.067" fill="white" transform="translate(337.532 -4.23114)"/>
</clipPath>
<clipPath id="clip41_251_13960">
<rect width="96.067" height="96.067" fill="white" transform="matrix(-1 0 0 -1 721.8 476.104)"/>
</clipPath>
<clipPath id="clip42_251_13960">
<rect width="96.067" height="96.067" fill="white" transform="matrix(1 0 0 -1 -46.7363 956.439)"/>
</clipPath>
<clipPath id="clip43_251_13960">
<rect width="96.067" height="96.067" fill="white" transform="translate(337.532 91.8358)"/>
</clipPath>
<clipPath id="clip44_251_13960">
<rect width="96.067" height="96.067" fill="white" transform="matrix(-1 0 0 -1 721.8 380.037)"/>
</clipPath>
<clipPath id="clip45_251_13960">
<rect width="96.067" height="96.067" fill="white" transform="matrix(1 0 0 -1 -46.7363 860.372)"/>
</clipPath>
<clipPath id="clip46_251_13960">
<rect width="96.067" height="96.067" fill="white" transform="translate(337.532 187.903)"/>
</clipPath>
<clipPath id="clip47_251_13960">
<rect width="96.067" height="96.067" fill="white" transform="matrix(-1 0 0 -1 721.8 283.97)"/>
</clipPath>
<clipPath id="clip48_251_13960">
<rect width="96.067" height="96.067" fill="white" transform="matrix(1 0 0 -1 -46.7363 764.305)"/>
</clipPath>
<clipPath id="clip49_251_13960">
<rect width="96.067" height="96.067" fill="white" transform="translate(337.532 283.97)"/>
</clipPath>
<clipPath id="clip50_251_13960">
<rect width="96.067" height="96.067" fill="white" transform="matrix(-1 0 0 -1 721.8 187.903)"/>
</clipPath>
<clipPath id="clip51_251_13960">
<rect width="96.067" height="96.067" fill="white" transform="matrix(1 0 0 -1 -46.7363 668.238)"/>
</clipPath>
<clipPath id="clip52_251_13960">
<rect width="96.067" height="96.067" fill="white" transform="translate(337.532 380.037)"/>
</clipPath>
<clipPath id="clip53_251_13960">
<rect width="96.067" height="96.067" fill="white" transform="matrix(-1 0 0 -1 721.8 91.8358)"/>
</clipPath>
<clipPath id="clip54_251_13960">
<rect width="96.067" height="96.067" fill="white" transform="matrix(1 0 0 -1 -46.7363 572.171)"/>
</clipPath>
<clipPath id="clip55_251_13960">
<rect width="96.067" height="96.067" fill="white" transform="translate(433.599 -4.23114)"/>
</clipPath>
<clipPath id="clip56_251_13960">
<rect width="96.067" height="96.067" fill="white" transform="matrix(-1 0 0 -1 625.732 476.104)"/>
</clipPath>
<clipPath id="clip57_251_13960">
<rect width="96.067" height="96.067" fill="white" transform="matrix(1 0 0 -1 49.3306 956.439)"/>
</clipPath>
<clipPath id="clip58_251_13960">
<rect width="96.067" height="96.067" fill="white" transform="translate(433.599 91.8358)"/>
</clipPath>
<clipPath id="clip59_251_13960">
<rect width="96.067" height="96.067" fill="white" transform="matrix(-1 0 0 -1 625.732 380.037)"/>
</clipPath>
<clipPath id="clip60_251_13960">
<rect width="96.067" height="96.067" fill="white" transform="matrix(1 0 0 -1 49.3306 860.372)"/>
</clipPath>
<clipPath id="clip61_251_13960">
<rect width="96.067" height="96.067" fill="white" transform="translate(433.599 187.903)"/>
</clipPath>
<clipPath id="clip62_251_13960">
<rect width="96.067" height="96.067" fill="white" transform="matrix(-1 0 0 -1 625.732 283.97)"/>
</clipPath>
<clipPath id="clip63_251_13960">
<rect width="96.067" height="96.067" fill="white" transform="translate(433.599 283.97)"/>
</clipPath>
<clipPath id="clip64_251_13960">
<rect width="96.067" height="96.067" fill="white" transform="matrix(-1 0 0 -1 625.732 187.903)"/>
</clipPath>
<clipPath id="clip65_251_13960">
<rect width="96.067" height="96.067" fill="white" transform="matrix(1 0 0 -1 49.3306 668.238)"/>
</clipPath>
<clipPath id="clip66_251_13960">
<rect width="96.067" height="96.067" fill="white" transform="translate(433.599 380.037)"/>
</clipPath>
<clipPath id="clip67_251_13960">
<rect width="96.067" height="96.067" fill="white" transform="matrix(-1 0 0 -1 625.732 91.8358)"/>
</clipPath>
<clipPath id="clip68_251_13960">
<rect width="96.067" height="96.067" fill="white" transform="matrix(1 0 0 -1 49.3306 572.171)"/>
</clipPath>
<clipPath id="clip69_251_13960">
<rect width="96.067" height="96.067" fill="white" transform="matrix(-1 0 0 1 721.8 668.238)"/>
</clipPath>
<clipPath id="clip70_251_13960">
<rect width="96.067" height="96.067" fill="white" transform="matrix(-1 0 0 1 721.8 764.305)"/>
</clipPath>
<clipPath id="clip71_251_13960">
<rect width="96.067" height="96.067" fill="white" transform="matrix(-1 0 0 1 721.8 860.372)"/>
</clipPath>
<clipPath id="clip72_251_13960">
<rect width="96.067" height="96.067" fill="white" transform="matrix(-1 0 0 1 721.8 476.104)"/>
</clipPath>
<clipPath id="clip73_251_13960">
<rect width="96.067" height="96.067" fill="white" transform="matrix(-1 0 0 1 721.8 572.171)"/>
</clipPath>
<clipPath id="clip74_251_13960">
<rect width="96.067" height="96.067" fill="white" transform="matrix(-1 0 0 1 625.732 668.238)"/>
</clipPath>
<clipPath id="clip75_251_13960">
<rect width="96.067" height="96.067" fill="white" transform="matrix(-1 0 0 1 625.732 764.305)"/>
</clipPath>
<clipPath id="clip76_251_13960">
<rect width="96.067" height="96.067" fill="white" transform="matrix(-1 0 0 1 625.732 860.372)"/>
</clipPath>
<clipPath id="clip77_251_13960">
<rect width="96.067" height="96.067" fill="white" transform="matrix(-1 0 0 1 625.732 476.104)"/>
</clipPath>
<clipPath id="clip78_251_13960">
<rect width="96.067" height="96.067" fill="white" transform="matrix(-1 0 0 1 625.732 572.171)"/>
</clipPath>
</defs>
</svg>
