<svg width="339" height="281" viewBox="0 0 339 281" fill="none" xmlns="http://www.w3.org/2000/svg">
<g clip-path="url(#clip0_333_60643)">
<rect width="393" height="279.467" transform="translate(-54 0.939941)" fill="url(#paint0_linear_333_60643)"/>
<g clip-path="url(#clip1_333_60643)">
<rect width="27.9662" height="27.9662" transform="matrix(-1 0 0 -1 337.526 140.771)" fill="#D6D6D6"/>
<path d="M169.729 140.771V478.352L408.436 239.646L436.402 211.68L675.108 -27.0262H337.526H309.56H169.729V112.805V140.771Z" fill="#9F9F9F" stroke="#D6D6D6" stroke-width="279.662"/>
<path d="M169.729 112.805V-224.777L408.436 13.9294L436.402 41.8955L675.108 280.602H337.526H309.56H169.729V140.771V112.805Z" fill="#474747" stroke="#D6D6D6" stroke-width="279.662"/>
<path d="M477.357 112.805V-224.777L238.651 13.9294L210.685 41.8955L-28.0214 280.602H309.56H337.526H477.357V140.771V112.805Z" fill="#656565" stroke="#D6D6D6" stroke-width="279.662"/>
</g>
<g clip-path="url(#clip2_333_60643)">
<rect width="27.9662" height="27.9662" transform="matrix(1 0 0 -1 29.8984 280.602)" fill="#D6D6D6"/>
<path d="M197.695 280.602V618.183L-41.0107 379.477L-68.9769 351.511L-307.683 112.805H29.8984H57.8646H197.695V252.635V280.602Z" fill="#9F9F9F" stroke="#D6D6D6" stroke-width="279.662"/>
<path d="M197.695 252.635V-84.946L-41.0107 153.76L-68.9769 181.726L-307.683 420.432H29.8984H57.8646H197.695V280.602V252.635Z" fill="#474747" stroke="#D6D6D6" stroke-width="279.662"/>
<path d="M-109.932 252.635V-84.946L128.774 153.76L156.74 181.726L395.446 420.432H57.8647H29.8986H-109.932V280.602V252.635Z" fill="#656565" stroke="#D6D6D6" stroke-width="279.662"/>
</g>
<g clip-path="url(#clip3_333_60643)">
<rect width="27.9662" height="27.9662" transform="matrix(-1 0 0 -1 337.526 112.805)" fill="#D6D6D6"/>
<path d="M169.729 112.805V450.386L408.436 211.68L436.402 183.714L675.108 -54.9923H337.526H309.56H169.729V84.8385V112.805Z" fill="#9F9F9F" stroke="#D6D6D6" stroke-width="279.662"/>
<path d="M169.729 84.8384V-252.743L408.436 -14.0369L436.402 13.9292L675.108 252.635H337.526H309.56H169.729V112.805V84.8384Z" fill="#474747" stroke="#D6D6D6" stroke-width="279.662"/>
<path d="M477.357 84.8384V-252.743L238.651 -14.0369L210.685 13.9292L-28.0214 252.635H309.56H337.526H477.357V112.805V84.8384Z" fill="#656565" stroke="#D6D6D6" stroke-width="279.662"/>
</g>
<g clip-path="url(#clip4_333_60643)">
<rect width="27.9662" height="27.9662" transform="matrix(1 0 0 -1 29.8984 252.635)" fill="#D6D6D6"/>
<path d="M197.695 252.635V590.217L-41.0107 351.511L-68.9769 323.545L-307.683 84.8385H29.8984H57.8646H197.695V224.669V252.635Z" fill="#9F9F9F" stroke="#D6D6D6" stroke-width="279.662"/>
<path d="M197.695 224.669V-112.912L-41.0107 125.794L-68.9769 153.76L-307.683 392.466H29.8984H57.8646H197.695V252.635V224.669Z" fill="#474747" stroke="#D6D6D6" stroke-width="279.662"/>
<path d="M-109.932 224.669V-112.912L128.774 125.794L156.74 153.76L395.446 392.466H57.8647H29.8986H-109.932V252.635V224.669Z" fill="#656565" stroke="#D6D6D6" stroke-width="279.662"/>
</g>
<g clip-path="url(#clip5_333_60643)">
<rect width="27.9662" height="27.9662" transform="matrix(-1 0 0 -1 337.526 84.8384)" fill="#D6D6D6"/>
<path d="M169.729 84.8384V422.42L408.436 183.714L436.402 155.748L675.108 -82.9586H337.526H309.56H169.729V56.8722V84.8384Z" fill="#9F9F9F" stroke="#D6D6D6" stroke-width="279.662"/>
<path d="M169.729 56.8723V-280.709L408.436 -42.003L436.402 -14.0368L675.108 224.669H337.526H309.56H169.729V84.8385V56.8723Z" fill="#474747" stroke="#D6D6D6" stroke-width="279.662"/>
<path d="M477.357 56.8723V-280.709L238.651 -42.003L210.685 -14.0368L-28.0214 224.669H309.56H337.526H477.357V84.8385V56.8723Z" fill="#656565" stroke="#D6D6D6" stroke-width="279.662"/>
</g>
<g clip-path="url(#clip6_333_60643)">
<rect width="27.9662" height="27.9662" transform="matrix(1 0 0 -1 29.8984 224.669)" fill="#D6D6D6"/>
<path d="M197.695 224.669V562.251L-41.0107 323.545L-68.9769 295.578L-307.683 56.8722H29.8984H57.8646H197.695V196.703V224.669Z" fill="#9F9F9F" stroke="#D6D6D6" stroke-width="279.662"/>
<path d="M197.695 196.703V-140.878L-41.0107 97.8278L-68.9769 125.794L-307.683 364.5H29.8984H57.8646H197.695V224.669V196.703Z" fill="#474747" stroke="#D6D6D6" stroke-width="279.662"/>
<path d="M-109.932 196.703V-140.878L128.774 97.8278L156.74 125.794L395.446 364.5H57.8647H29.8986H-109.932V224.669V196.703Z" fill="#656565" stroke="#D6D6D6" stroke-width="279.662"/>
</g>
<g clip-path="url(#clip7_333_60643)">
<rect width="27.9662" height="27.9662" transform="matrix(-1 0 0 -1 337.526 56.8723)" fill="#D6D6D6"/>
<path d="M169.729 56.8723V394.454L408.436 155.748L436.402 127.781L675.108 -110.925H337.526H309.56H169.729V28.9062V56.8723Z" fill="#9F9F9F" stroke="#D6D6D6" stroke-width="279.662"/>
<path d="M169.729 28.906V-308.675L408.436 -69.9693L436.402 -42.0031L675.108 196.703H337.526H309.56H169.729V56.8722V28.906Z" fill="#474747" stroke="#D6D6D6" stroke-width="279.662"/>
<path d="M477.357 28.906V-308.675L238.651 -69.9693L210.685 -42.0031L-28.0214 196.703H309.56H337.526H477.357V56.8722V28.906Z" fill="#656565" stroke="#D6D6D6" stroke-width="279.662"/>
</g>
<g clip-path="url(#clip8_333_60643)">
<rect width="27.9662" height="27.9662" transform="matrix(1 0 0 -1 29.8984 196.703)" fill="#D6D6D6"/>
<path d="M197.695 196.703V534.285L-41.0107 295.578L-68.9769 267.612L-307.683 28.9062H29.8984H57.8646H197.695V168.737V196.703Z" fill="#9F9F9F" stroke="#D6D6D6" stroke-width="279.662"/>
<path d="M197.695 168.737V-168.845L-41.0107 69.8615L-68.9769 97.8277L-307.683 336.534H29.8984H57.8646H197.695V196.703V168.737Z" fill="#474747" stroke="#D6D6D6" stroke-width="279.662"/>
<path d="M-109.932 168.737V-168.845L128.774 69.8615L156.74 97.8277L395.446 336.534H57.8647H29.8986H-109.932V196.703V168.737Z" fill="#656565" stroke="#D6D6D6" stroke-width="279.662"/>
</g>
<g clip-path="url(#clip9_333_60643)">
<rect width="27.9662" height="27.9662" transform="matrix(-1 0 0 -1 337.526 28.906)" fill="#D6D6D6"/>
<path d="M169.729 28.906V366.487L408.436 127.781L436.402 99.8152L675.108 -138.891H337.526H309.56H169.729V0.939844V28.906Z" fill="#9F9F9F" stroke="#D6D6D6" stroke-width="279.662"/>
</g>
<g clip-path="url(#clip10_333_60643)">
<rect width="27.9662" height="27.9662" transform="matrix(1 0 0 -1 29.8984 168.737)" fill="#D6D6D6"/>
<path d="M197.695 168.737V506.318L-41.0107 267.612L-68.9769 239.646L-307.683 0.93985H29.8984H57.8646H197.695V140.771V168.737Z" fill="#9F9F9F" stroke="#D6D6D6" stroke-width="279.662"/>
</g>
<g clip-path="url(#clip11_333_60643)">
<rect width="27.9662" height="27.9662" transform="translate(-26.0339 0.939941)" fill="#D6D6D6"/>
<path d="M141.763 0.939941V-336.642L-96.9431 -97.9354L-124.909 -69.9692L-363.615 168.737H-26.0339H1.93223H141.763V28.9061V0.939941Z" fill="#9F9F9F" stroke="#D6D6D6" stroke-width="279.662"/>
</g>
<g clip-path="url(#clip12_333_60643)">
<rect width="27.9662" height="27.9662" transform="matrix(-1 0 0 -1 309.56 140.771)" fill="#D6D6D6"/>
<path d="M141.763 140.771V478.352L380.469 239.646L408.435 211.68L647.142 -27.0262H309.56H281.594H141.763V112.805V140.771Z" fill="#9F9F9F" stroke="#D6D6D6" stroke-width="279.662"/>
</g>
<g clip-path="url(#clip13_333_60643)">
<rect width="27.9662" height="27.9662" transform="matrix(1 0 0 -1 57.8647 280.602)" fill="#D6D6D6"/>
<path d="M225.662 280.602V618.183L-13.0444 379.477L-41.0106 351.511L-279.717 112.805H57.8647H85.8309H225.662V252.635V280.602Z" fill="#9F9F9F" stroke="#D6D6D6" stroke-width="279.662"/>
</g>
<g clip-path="url(#clip14_333_60643)">
<rect width="27.9662" height="27.9662" transform="translate(-26.0339 28.906)" fill="#D6D6D6"/>
<path d="M141.763 28.906V-308.675L-96.9431 -69.9693L-124.909 -42.0031L-363.615 196.703H-26.0339H1.93223H141.763V56.8722V28.906Z" fill="#9F9F9F" stroke="#D6D6D6" stroke-width="279.662"/>
<path d="M141.763 56.8723V394.454L-96.9431 155.748L-124.909 127.781L-363.615 -110.925H-26.0339H1.93223H141.763V28.9062V56.8723Z" fill="#474747" stroke="#D6D6D6" stroke-width="279.662"/>
<path d="M-165.865 56.8723V394.454L72.8415 155.748L100.808 127.781L339.514 -110.925H1.93237H-26.0338H-165.865V28.9062V56.8723Z" fill="#656565" stroke="#D6D6D6" stroke-width="279.662"/>
</g>
<g clip-path="url(#clip15_333_60643)">
<rect width="27.9662" height="27.9662" transform="matrix(-1 0 0 -1 309.56 112.805)" fill="#D6D6D6"/>
<path d="M141.763 112.805V450.386L380.469 211.68L408.435 183.714L647.142 -54.9923H309.56H281.594H141.763V84.8385V112.805Z" fill="#9F9F9F" stroke="#D6D6D6" stroke-width="279.662"/>
<path d="M141.763 84.8384V-252.743L380.469 -14.0369L408.435 13.9292L647.142 252.635H309.56H281.594H141.763V112.805V84.8384Z" fill="#474747" stroke="#D6D6D6" stroke-width="279.662"/>
<path d="M449.391 84.8384V-252.743L210.685 -14.0369L182.719 13.9292L-55.9875 252.635H281.594H309.56H449.391V112.805V84.8384Z" fill="#656565" stroke="#D6D6D6" stroke-width="279.662"/>
</g>
<g clip-path="url(#clip16_333_60643)">
<rect width="27.9662" height="27.9662" transform="matrix(1 0 0 -1 57.8647 252.635)" fill="#D6D6D6"/>
<path d="M225.662 252.635V590.217L-13.0444 351.511L-41.0106 323.545L-279.717 84.8385H57.8647H85.8309H225.662V224.669V252.635Z" fill="#9F9F9F" stroke="#D6D6D6" stroke-width="279.662"/>
<path d="M225.662 224.669V-112.912L-13.0444 125.794L-41.0106 153.76L-279.717 392.466H57.8647H85.8309H225.662V252.635V224.669Z" fill="#474747" stroke="#D6D6D6" stroke-width="279.662"/>
<path d="M-81.9662 224.669V-112.912L156.74 125.794L184.706 153.76L423.412 392.466H85.8308H57.8646H-81.9662V252.635V224.669Z" fill="#656565" stroke="#D6D6D6" stroke-width="279.662"/>
</g>
<g clip-path="url(#clip17_333_60643)">
<rect width="27.9662" height="27.9662" transform="translate(-26.0339 56.8723)" fill="#D6D6D6"/>
<path d="M141.763 56.8723V-280.709L-96.9431 -42.003L-124.909 -14.0368L-363.615 224.669H-26.0339H1.93223H141.763V84.8385V56.8723Z" fill="#9F9F9F" stroke="#D6D6D6" stroke-width="279.662"/>
<path d="M141.763 84.8384V422.42L-96.9431 183.714L-124.909 155.748L-363.615 -82.9586H-26.0339H1.93223H141.763V56.8722V84.8384Z" fill="#474747" stroke="#D6D6D6" stroke-width="279.662"/>
<path d="M-165.865 84.8384V422.42L72.8415 183.714L100.808 155.748L339.514 -82.9586H1.93237H-26.0338H-165.865V56.8722V84.8384Z" fill="#656565" stroke="#D6D6D6" stroke-width="279.662"/>
</g>
<g clip-path="url(#clip18_333_60643)">
<rect width="27.9662" height="27.9662" transform="matrix(-1 0 0 -1 309.56 84.8384)" fill="#D6D6D6"/>
<path d="M141.763 84.8384V422.42L380.469 183.714L408.435 155.748L647.142 -82.9586H309.56H281.594H141.763V56.8722V84.8384Z" fill="#9F9F9F" stroke="#D6D6D6" stroke-width="279.662"/>
<path d="M141.763 56.8723V-280.709L380.469 -42.003L408.435 -14.0368L647.142 224.669H309.56H281.594H141.763V84.8385V56.8723Z" fill="#474747" stroke="#D6D6D6" stroke-width="279.662"/>
<path d="M449.391 56.8723V-280.709L210.685 -42.003L182.719 -14.0368L-55.9875 224.669H281.594H309.56H449.391V84.8385V56.8723Z" fill="#656565" stroke="#D6D6D6" stroke-width="279.662"/>
</g>
<g clip-path="url(#clip19_333_60643)">
<rect width="27.9662" height="27.9662" transform="matrix(1 0 0 -1 57.8647 224.669)" fill="#D6D6D6"/>
<path d="M225.662 224.669V562.251L-13.0444 323.545L-41.0106 295.578L-279.717 56.8722H57.8647H85.8309H225.662V196.703V224.669Z" fill="#9F9F9F" stroke="#D6D6D6" stroke-width="279.662"/>
<path d="M225.662 196.703V-140.878L-13.0444 97.8278L-41.0106 125.794L-279.717 364.5H57.8647H85.8309H225.662V224.669V196.703Z" fill="#474747" stroke="#D6D6D6" stroke-width="279.662"/>
<path d="M-81.9662 196.703V-140.878L156.74 97.8278L184.706 125.794L423.412 364.5H85.8308H57.8646H-81.9662V224.669V196.703Z" fill="#656565" stroke="#D6D6D6" stroke-width="279.662"/>
</g>
<g clip-path="url(#clip20_333_60643)">
<rect width="27.9662" height="27.9662" transform="translate(-26.0339 84.8384)" fill="#D6D6D6"/>
<path d="M141.763 84.8384V-252.743L-96.9431 -14.0369L-124.909 13.9292L-363.615 252.635H-26.0339H1.93223H141.763V112.805V84.8384Z" fill="#9F9F9F" stroke="#D6D6D6" stroke-width="279.662"/>
<path d="M141.763 112.805V450.386L-96.9431 211.68L-124.909 183.714L-363.615 -54.9923H-26.0339H1.93223H141.763V84.8385V112.805Z" fill="#474747" stroke="#D6D6D6" stroke-width="279.662"/>
</g>
<g clip-path="url(#clip21_333_60643)">
<rect width="27.9662" height="27.9662" transform="matrix(-1 0 0 -1 309.56 56.8723)" fill="#D6D6D6"/>
<path d="M141.763 56.8723V394.454L380.469 155.748L408.435 127.781L647.142 -110.925H309.56H281.594H141.763V28.9062V56.8723Z" fill="#9F9F9F" stroke="#D6D6D6" stroke-width="279.662"/>
<path d="M141.763 28.906V-308.675L380.469 -69.9693L408.435 -42.0031L647.142 196.703H309.56H281.594H141.763V56.8722V28.906Z" fill="#474747" stroke="#D6D6D6" stroke-width="279.662"/>
</g>
<g clip-path="url(#clip22_333_60643)">
<rect width="27.9662" height="27.9662" transform="matrix(1 0 0 -1 57.8647 196.703)" fill="#D6D6D6"/>
<path d="M225.662 196.703V534.285L-13.0444 295.578L-41.0106 267.612L-279.717 28.9062H57.8647H85.8309H225.662V168.737V196.703Z" fill="#9F9F9F" stroke="#D6D6D6" stroke-width="279.662"/>
<path d="M225.662 168.737V-168.845L-13.0444 69.8615L-41.0106 97.8277L-279.717 336.534H57.8647H85.8309H225.662V196.703V168.737Z" fill="#474747" stroke="#D6D6D6" stroke-width="279.662"/>
</g>
<g clip-path="url(#clip23_333_60643)">
<rect width="27.9662" height="27.9662" transform="translate(-26.0339 112.805)" fill="#D6D6D6"/>
<path d="M141.763 112.805V-224.777L-96.9431 13.9294L-124.909 41.8955L-363.615 280.602H-26.0339H1.93223H141.763V140.771V112.805Z" fill="#9F9F9F" stroke="#D6D6D6" stroke-width="279.662"/>
<path d="M141.763 140.771V478.352L-96.9431 239.646L-124.909 211.68L-363.615 -27.0262H-26.0339H1.93223H141.763V112.805V140.771Z" fill="#474747" stroke="#D6D6D6" stroke-width="279.662"/>
<path d="M-165.865 140.771V478.352L72.8415 239.646L100.808 211.68L339.514 -27.0262H1.93237H-26.0338H-165.865V112.805V140.771Z" fill="#656565" stroke="#D6D6D6" stroke-width="279.662"/>
</g>
<g clip-path="url(#clip24_333_60643)">
<rect width="27.9662" height="27.9662" transform="matrix(-1 0 0 -1 309.56 28.906)" fill="#D6D6D6"/>
<path d="M141.763 28.906V366.487L380.469 127.781L408.435 99.8152L647.142 -138.891H309.56H281.594H141.763V0.939844V28.906Z" fill="#9F9F9F" stroke="#D6D6D6" stroke-width="279.662"/>
<path d="M141.763 0.939941V-336.642L380.469 -97.9354L408.435 -69.9692L647.142 168.737H309.56H281.594H141.763V28.9061V0.939941Z" fill="#474747" stroke="#D6D6D6" stroke-width="279.662"/>
<path d="M449.391 0.939941V-336.642L210.685 -97.9354L182.719 -69.9692L-55.9875 168.737H281.594H309.56H449.391V28.9061V0.939941Z" fill="#656565" stroke="#D6D6D6" stroke-width="279.662"/>
</g>
<g clip-path="url(#clip25_333_60643)">
<rect width="27.9662" height="27.9662" transform="matrix(1 0 0 -1 57.8647 168.737)" fill="#D6D6D6"/>
<path d="M225.662 168.737V506.318L-13.0444 267.612L-41.0106 239.646L-279.717 0.93985H57.8647H85.8309H225.662V140.771V168.737Z" fill="#9F9F9F" stroke="#D6D6D6" stroke-width="279.662"/>
<path d="M225.662 140.771V-196.811L-13.0444 41.8954L-41.0106 69.8616L-279.717 308.568H57.8647H85.8309H225.662V168.737V140.771Z" fill="#474747" stroke="#D6D6D6" stroke-width="279.662"/>
<path d="M-81.9662 140.771V-196.811L156.74 41.8954L184.706 69.8616L423.412 308.568H85.8308H57.8646H-81.9662V168.737V140.771Z" fill="#656565" stroke="#D6D6D6" stroke-width="279.662"/>
</g>
<g clip-path="url(#clip26_333_60643)">
<rect width="27.9662" height="27.9662" transform="translate(1.93237 0.939941)" fill="#D6D6D6"/>
<path d="M169.729 0.939941V-336.642L-68.9768 -97.9354L-96.9429 -69.9692L-335.649 168.737H1.93237H29.8985H169.729V28.9061V0.939941Z" fill="#9F9F9F" stroke="#D6D6D6" stroke-width="279.662"/>
<path d="M169.729 28.906V366.487L-68.9768 127.781L-96.9429 99.8152L-335.649 -138.891H1.93237H29.8985H169.729V0.939844V28.906Z" fill="#474747" stroke="#D6D6D6" stroke-width="279.662"/>
<path d="M-137.899 28.906V366.487L100.808 127.781L128.774 99.8152L367.48 -138.891H29.8984H1.93228H-137.899V0.939844V28.906Z" fill="#656565" stroke="#D6D6D6" stroke-width="279.662"/>
</g>
<g clip-path="url(#clip27_333_60643)">
<rect width="27.9662" height="27.9662" transform="matrix(-1 0 0 -1 281.594 140.771)" fill="#D6D6D6"/>
<path d="M113.797 140.771V478.352L352.503 239.646L380.469 211.68L619.175 -27.0262H281.594H253.628H113.797V112.805V140.771Z" fill="#9F9F9F" stroke="#D6D6D6" stroke-width="279.662"/>
<path d="M113.797 112.805V-224.777L352.503 13.9294L380.469 41.8955L619.175 280.602H281.594H253.628H113.797V140.771V112.805Z" fill="#474747" stroke="#D6D6D6" stroke-width="279.662"/>
<path d="M421.425 112.805V-224.777L182.719 13.9294L154.752 41.8955L-83.9538 280.602H253.628H281.594H421.425V140.771V112.805Z" fill="#656565" stroke="#D6D6D6" stroke-width="279.662"/>
</g>
<g clip-path="url(#clip28_333_60643)">
<rect width="27.9662" height="27.9662" transform="matrix(1 0 0 -1 85.8308 280.602)" fill="#D6D6D6"/>
<path d="M253.628 280.602V618.183L14.9217 379.477L-13.0445 351.511L-251.751 112.805H85.8308H113.797H253.628V252.635V280.602Z" fill="#9F9F9F" stroke="#D6D6D6" stroke-width="279.662"/>
<path d="M253.628 252.635V-84.946L14.9217 153.76L-13.0445 181.726L-251.751 420.432H85.8308H113.797H253.628V280.602V252.635Z" fill="#474747" stroke="#D6D6D6" stroke-width="279.662"/>
<path d="M-54.0001 252.635V-84.946L184.706 153.76L212.672 181.726L451.378 420.432H113.797H85.8307H-54.0001V280.602V252.635Z" fill="#656565" stroke="#D6D6D6" stroke-width="279.662"/>
</g>
<g clip-path="url(#clip29_333_60643)">
<rect width="27.9662" height="27.9662" transform="translate(1.93237 28.906)" fill="#D6D6D6"/>
<path d="M169.729 28.906V-308.675L-68.9768 -69.9693L-96.9429 -42.0031L-335.649 196.703H1.93237H29.8985H169.729V56.8722V28.906Z" fill="#9F9F9F" stroke="#D6D6D6" stroke-width="279.662"/>
<path d="M169.729 56.8723V394.454L-68.9768 155.748L-96.9429 127.781L-335.649 -110.925H1.93237H29.8985H169.729V28.9062V56.8723Z" fill="#474747" stroke="#D6D6D6" stroke-width="279.662"/>
<path d="M-137.899 56.8723V394.454L100.808 155.748L128.774 127.781L367.48 -110.925H29.8984H1.93228H-137.899V28.9062V56.8723Z" fill="#656565" stroke="#D6D6D6" stroke-width="279.662"/>
</g>
<g clip-path="url(#clip30_333_60643)">
<rect width="27.9662" height="27.9662" transform="matrix(-1 0 0 -1 281.594 112.805)" fill="#D6D6D6"/>
<path d="M113.797 112.805V450.386L352.503 211.68L380.469 183.714L619.175 -54.9923H281.594H253.628H113.797V84.8385V112.805Z" fill="#9F9F9F" stroke="#D6D6D6" stroke-width="279.662"/>
<path d="M113.797 84.8384V-252.743L352.503 -14.0369L380.469 13.9292L619.175 252.635H281.594H253.628H113.797V112.805V84.8384Z" fill="#474747" stroke="#D6D6D6" stroke-width="279.662"/>
<path d="M421.425 84.8384V-252.743L182.719 -14.0369L154.752 13.9292L-83.9538 252.635H253.628H281.594H421.425V112.805V84.8384Z" fill="#656565" stroke="#D6D6D6" stroke-width="279.662"/>
</g>
<g clip-path="url(#clip31_333_60643)">
<rect width="27.9662" height="27.9662" transform="matrix(1 0 0 -1 85.8308 252.635)" fill="#D6D6D6"/>
<path d="M253.628 252.635V590.217L14.9217 351.511L-13.0445 323.545L-251.751 84.8385H85.8308H113.797H253.628V224.669V252.635Z" fill="#9F9F9F" stroke="#D6D6D6" stroke-width="279.662"/>
<path d="M253.628 224.669V-112.912L14.9217 125.794L-13.0445 153.76L-251.751 392.466H85.8308H113.797H253.628V252.635V224.669Z" fill="#474747" stroke="#D6D6D6" stroke-width="279.662"/>
<path d="M-54.0001 224.669V-112.912L184.706 125.794L212.672 153.76L451.378 392.466H113.797H85.8307H-54.0001V252.635V224.669Z" fill="#656565" stroke="#D6D6D6" stroke-width="279.662"/>
</g>
<g clip-path="url(#clip32_333_60643)">
<rect width="27.9662" height="27.9662" transform="translate(1.93237 56.8723)" fill="#D6D6D6"/>
<path d="M169.729 56.8723V-280.709L-68.9768 -42.003L-96.9429 -14.0368L-335.649 224.669H1.93237H29.8985H169.729V84.8385V56.8723Z" fill="#9F9F9F" stroke="#D6D6D6" stroke-width="279.662"/>
<path d="M169.729 84.8384V422.42L-68.9768 183.714L-96.9429 155.748L-335.649 -82.9586H1.93237H29.8985H169.729V56.8722V84.8384Z" fill="#474747" stroke="#D6D6D6" stroke-width="279.662"/>
<path d="M-137.899 84.8384V422.42L100.808 183.714L128.774 155.748L367.48 -82.9586H29.8984H1.93228H-137.899V56.8722V84.8384Z" fill="#656565" stroke="#D6D6D6" stroke-width="279.662"/>
</g>
<g clip-path="url(#clip33_333_60643)">
<rect width="27.9662" height="27.9662" transform="matrix(-1 0 0 -1 281.594 84.8384)" fill="#D6D6D6"/>
<path d="M113.797 84.8384V422.42L352.503 183.714L380.469 155.748L619.175 -82.9586H281.594H253.628H113.797V56.8722V84.8384Z" fill="#9F9F9F" stroke="#D6D6D6" stroke-width="279.662"/>
<path d="M113.797 56.8723V-280.709L352.503 -42.003L380.469 -14.0368L619.175 224.669H281.594H253.628H113.797V84.8385V56.8723Z" fill="#474747" stroke="#D6D6D6" stroke-width="279.662"/>
<path d="M421.425 56.8723V-280.709L182.719 -42.003L154.752 -14.0368L-83.9538 224.669H253.628H281.594H421.425V84.8385V56.8723Z" fill="#656565" stroke="#D6D6D6" stroke-width="279.662"/>
</g>
<g clip-path="url(#clip34_333_60643)">
<rect width="27.9662" height="27.9662" transform="matrix(1 0 0 -1 85.8308 224.669)" fill="#D6D6D6"/>
<path d="M253.628 224.669V562.251L14.9217 323.545L-13.0445 295.578L-251.751 56.8722H85.8308H113.797H253.628V196.703V224.669Z" fill="#9F9F9F" stroke="#D6D6D6" stroke-width="279.662"/>
<path d="M253.628 196.703V-140.878L14.9217 97.8278L-13.0445 125.794L-251.751 364.5H85.8308H113.797H253.628V224.669V196.703Z" fill="#474747" stroke="#D6D6D6" stroke-width="279.662"/>
<path d="M-54.0001 196.703V-140.878L184.706 97.8278L212.672 125.794L451.378 364.5H113.797H85.8307H-54.0001V224.669V196.703Z" fill="#656565" stroke="#D6D6D6" stroke-width="279.662"/>
</g>
<g clip-path="url(#clip35_333_60643)">
<rect width="27.9662" height="27.9662" transform="translate(1.93237 84.8384)" fill="#D6D6D6"/>
<path d="M169.729 84.8384V-252.743L-68.9768 -14.0369L-96.9429 13.9292L-335.649 252.635H1.93237H29.8985H169.729V112.805V84.8384Z" fill="#9F9F9F" stroke="#D6D6D6" stroke-width="279.662"/>
<path d="M169.729 112.805V450.386L-68.9768 211.68L-96.9429 183.714L-335.649 -54.9923H1.93237H29.8985H169.729V84.8385V112.805Z" fill="#474747" stroke="#D6D6D6" stroke-width="279.662"/>
<path d="M-137.899 112.805V450.386L100.808 211.68L128.774 183.714L367.48 -54.9923H29.8984H1.93228H-137.899V84.8385V112.805Z" fill="#656565" stroke="#D6D6D6" stroke-width="279.662"/>
</g>
<g clip-path="url(#clip36_333_60643)">
<rect width="27.9662" height="27.9662" transform="matrix(-1 0 0 -1 281.594 56.8723)" fill="#D6D6D6"/>
<path d="M113.797 56.8723V394.454L352.503 155.748L380.469 127.781L619.175 -110.925H281.594H253.628H113.797V28.9062V56.8723Z" fill="#9F9F9F" stroke="#D6D6D6" stroke-width="279.662"/>
<path d="M113.797 28.906V-308.675L352.503 -69.9693L380.469 -42.0031L619.175 196.703H281.594H253.628H113.797V56.8722V28.906Z" fill="#474747" stroke="#D6D6D6" stroke-width="279.662"/>
<path d="M421.425 28.906V-308.675L182.719 -69.9693L154.752 -42.0031L-83.9538 196.703H253.628H281.594H421.425V56.8722V28.906Z" fill="#656565" stroke="#D6D6D6" stroke-width="279.662"/>
</g>
<g clip-path="url(#clip37_333_60643)">
<rect width="27.9662" height="27.9662" transform="matrix(1 0 0 -1 85.8308 196.703)" fill="#D6D6D6"/>
<path d="M253.628 196.703V534.285L14.9217 295.578L-13.0445 267.612L-251.751 28.9062H85.8308H113.797H253.628V168.737V196.703Z" fill="#9F9F9F" stroke="#D6D6D6" stroke-width="279.662"/>
<path d="M253.628 168.737V-168.845L14.9217 69.8615L-13.0445 97.8277L-251.751 336.534H85.8308H113.797H253.628V196.703V168.737Z" fill="#474747" stroke="#D6D6D6" stroke-width="279.662"/>
<path d="M-54.0001 168.737V-168.845L184.706 69.8615L212.672 97.8277L451.378 336.534H113.797H85.8307H-54.0001V196.703V168.737Z" fill="#656565" stroke="#D6D6D6" stroke-width="279.662"/>
</g>
<g clip-path="url(#clip38_333_60643)">
<rect width="27.9662" height="27.9662" transform="translate(1.93237 112.805)" fill="#D6D6D6"/>
<path d="M169.729 112.805V-224.777L-68.9768 13.9294L-96.9429 41.8955L-335.649 280.602H1.93237H29.8985H169.729V140.771V112.805Z" fill="#9F9F9F" stroke="#D6D6D6" stroke-width="279.662"/>
<path d="M169.729 140.771V478.352L-68.9768 239.646L-96.9429 211.68L-335.649 -27.0262H1.93237H29.8985H169.729V112.805V140.771Z" fill="#474747" stroke="#D6D6D6" stroke-width="279.662"/>
</g>
<g clip-path="url(#clip39_333_60643)">
<rect width="27.9662" height="27.9662" transform="matrix(-1 0 0 -1 281.594 28.906)" fill="#D6D6D6"/>
<path d="M113.797 28.906V366.487L352.503 127.781L380.469 99.8152L619.175 -138.891H281.594H253.628H113.797V0.939844V28.906Z" fill="#9F9F9F" stroke="#D6D6D6" stroke-width="279.662"/>
<path d="M113.797 0.939941V-336.642L352.503 -97.9354L380.469 -69.9692L619.175 168.737H281.594H253.628H113.797V28.9061V0.939941Z" fill="#474747" stroke="#D6D6D6" stroke-width="279.662"/>
</g>
<g clip-path="url(#clip40_333_60643)">
<rect width="27.9662" height="27.9662" transform="matrix(1 0 0 -1 85.8308 168.737)" fill="#D6D6D6"/>
<path d="M253.628 168.737V506.318L14.9217 267.612L-13.0445 239.646L-251.751 0.93985H85.8308H113.797H253.628V140.771V168.737Z" fill="#9F9F9F" stroke="#D6D6D6" stroke-width="279.662"/>
<path d="M253.628 140.771V-196.811L14.9217 41.8954L-13.0445 69.8616L-251.751 308.568H85.8308H113.797H253.628V168.737V140.771Z" fill="#474747" stroke="#D6D6D6" stroke-width="279.662"/>
</g>
<g clip-path="url(#clip41_333_60643)">
<rect width="27.9662" height="27.9662" transform="translate(29.8984 0.939941)" fill="#D6D6D6"/>
<path d="M197.695 0.939941V-336.642L-41.0107 -97.9354L-68.9769 -69.9692L-307.683 168.737H29.8984H57.8646H197.695V28.9061V0.939941Z" fill="#9F9F9F" stroke="#D6D6D6" stroke-width="279.662"/>
<path d="M197.695 28.906V366.487L-41.0107 127.781L-68.9769 99.8152L-307.683 -138.891H29.8984H57.8646H197.695V0.939844V28.906Z" fill="#474747" stroke="#D6D6D6" stroke-width="279.662"/>
<path d="M-109.932 28.906V366.487L128.774 127.781L156.74 99.8152L395.446 -138.891H57.8647H29.8986H-109.932V0.939844V28.906Z" fill="#656565" stroke="#D6D6D6" stroke-width="279.662"/>
</g>
<g clip-path="url(#clip42_333_60643)">
<rect width="27.9662" height="27.9662" transform="matrix(-1 0 0 -1 253.628 140.771)" fill="#D6D6D6"/>
<path d="M85.8307 140.771V478.352L324.537 239.646L352.503 211.68L591.209 -27.0262H253.628H225.662H85.8307V112.805V140.771Z" fill="#9F9F9F" stroke="#D6D6D6" stroke-width="279.662"/>
<path d="M85.8307 112.805V-224.777L324.537 13.9294L352.503 41.8955L591.209 280.602H253.628H225.662H85.8307V140.771V112.805Z" fill="#474747" stroke="#D6D6D6" stroke-width="279.662"/>
<path d="M393.459 112.805V-224.777L154.752 13.9294L126.786 41.8955L-111.92 280.602H225.662H253.628H393.459V140.771V112.805Z" fill="#656565" stroke="#D6D6D6" stroke-width="279.662"/>
</g>
<g clip-path="url(#clip43_333_60643)">
<rect width="27.9662" height="27.9662" transform="matrix(1 0 0 -1 113.797 280.602)" fill="#D6D6D6"/>
<path d="M281.594 280.602V618.183L42.8877 379.477L14.9216 351.511L-223.785 112.805H113.797H141.763H281.594V252.635V280.602Z" fill="#9F9F9F" stroke="#D6D6D6" stroke-width="279.662"/>
<path d="M281.594 252.635V-84.946L42.8877 153.76L14.9216 181.726L-223.785 420.432H113.797H141.763H281.594V280.602V252.635Z" fill="#474747" stroke="#D6D6D6" stroke-width="279.662"/>
<path d="M-26.0338 252.635V-84.946L212.672 153.76L240.638 181.726L479.345 420.432H141.763H113.797H-26.0338V280.602V252.635Z" fill="#656565" stroke="#D6D6D6" stroke-width="279.662"/>
</g>
<g clip-path="url(#clip44_333_60643)">
<rect width="27.9662" height="27.9662" transform="translate(29.8984 28.906)" fill="#D6D6D6"/>
<path d="M197.695 28.906V-308.675L-41.0107 -69.9693L-68.9769 -42.0031L-307.683 196.703H29.8984H57.8646H197.695V56.8722V28.906Z" fill="#9F9F9F" stroke="#D6D6D6" stroke-width="279.662"/>
<path d="M197.695 56.8723V394.454L-41.0107 155.748L-68.9769 127.781L-307.683 -110.925H29.8984H57.8646H197.695V28.9062V56.8723Z" fill="#474747" stroke="#D6D6D6" stroke-width="279.662"/>
</g>
<g clip-path="url(#clip45_333_60643)">
<rect width="27.9662" height="27.9662" transform="matrix(-1 0 0 -1 253.628 112.805)" fill="#D6D6D6"/>
<path d="M85.8307 112.805V450.386L324.537 211.68L352.503 183.714L591.209 -54.9923H253.628H225.662H85.8307V84.8385V112.805Z" fill="#9F9F9F" stroke="#D6D6D6" stroke-width="279.662"/>
<path d="M85.8307 84.8384V-252.743L324.537 -14.0369L352.503 13.9292L591.209 252.635H253.628H225.662H85.8307V112.805V84.8384Z" fill="#474747" stroke="#D6D6D6" stroke-width="279.662"/>
</g>
<g clip-path="url(#clip46_333_60643)">
<rect width="27.9662" height="27.9662" transform="matrix(1 0 0 -1 113.797 252.635)" fill="#D6D6D6"/>
<path d="M281.594 252.635V590.217L42.8877 351.511L14.9216 323.545L-223.785 84.8385H113.797H141.763H281.594V224.669V252.635Z" fill="#9F9F9F" stroke="#D6D6D6" stroke-width="279.662"/>
<path d="M281.594 224.669V-112.912L42.8877 125.794L14.9216 153.76L-223.785 392.466H113.797H141.763H281.594V252.635V224.669Z" fill="#474747" stroke="#D6D6D6" stroke-width="279.662"/>
</g>
<g clip-path="url(#clip47_333_60643)">
<rect width="27.9662" height="27.9662" transform="translate(29.8984 56.8723)" fill="#D6D6D6"/>
<path d="M197.695 56.8723V-280.709L-41.0107 -42.003L-68.9769 -14.0368L-307.683 224.669H29.8984H57.8646H197.695V84.8385V56.8723Z" fill="#9F9F9F" stroke="#D6D6D6" stroke-width="279.662"/>
<path d="M197.695 84.8384V422.42L-41.0107 183.714L-68.9769 155.748L-307.683 -82.9586H29.8984H57.8646H197.695V56.8722V84.8384Z" fill="#474747" stroke="#D6D6D6" stroke-width="279.662"/>
<path d="M-109.932 84.8384V422.42L128.774 183.714L156.74 155.748L395.446 -82.9586H57.8647H29.8986H-109.932V56.8722V84.8384Z" fill="#656565" stroke="#D6D6D6" stroke-width="279.662"/>
</g>
<g clip-path="url(#clip48_333_60643)">
<rect width="27.9662" height="27.9662" transform="matrix(-1 0 0 -1 253.628 84.8384)" fill="#D6D6D6"/>
<path d="M85.8307 84.8384V422.42L324.537 183.714L352.503 155.748L591.209 -82.9586H253.628H225.662H85.8307V56.8722V84.8384Z" fill="#9F9F9F" stroke="#D6D6D6" stroke-width="279.662"/>
<path d="M85.8307 56.8723V-280.709L324.537 -42.003L352.503 -14.0368L591.209 224.669H253.628H225.662H85.8307V84.8385V56.8723Z" fill="#474747" stroke="#D6D6D6" stroke-width="279.662"/>
<path d="M393.459 56.8723V-280.709L154.752 -42.003L126.786 -14.0368L-111.92 224.669H225.662H253.628H393.459V84.8385V56.8723Z" fill="#656565" stroke="#D6D6D6" stroke-width="279.662"/>
</g>
<g clip-path="url(#clip49_333_60643)">
<rect width="27.9662" height="27.9662" transform="matrix(1 0 0 -1 113.797 224.669)" fill="#D6D6D6"/>
<path d="M281.594 224.669V562.251L42.8877 323.545L14.9216 295.578L-223.785 56.8722H113.797H141.763H281.594V196.703V224.669Z" fill="#9F9F9F" stroke="#D6D6D6" stroke-width="279.662"/>
<path d="M281.594 196.703V-140.878L42.8877 97.8278L14.9216 125.794L-223.785 364.5H113.797H141.763H281.594V224.669V196.703Z" fill="#474747" stroke="#D6D6D6" stroke-width="279.662"/>
<path d="M-26.0338 196.703V-140.878L212.672 97.8278L240.638 125.794L479.345 364.5H141.763H113.797H-26.0338V224.669V196.703Z" fill="#656565" stroke="#D6D6D6" stroke-width="279.662"/>
</g>
<g clip-path="url(#clip50_333_60643)">
<rect width="27.9662" height="27.9662" transform="translate(29.8984 84.8384)" fill="#D6D6D6"/>
<path d="M197.695 84.8384V-252.743L-41.0107 -14.0369L-68.9769 13.9292L-307.683 252.635H29.8984H57.8646H197.695V112.805V84.8384Z" fill="#9F9F9F" stroke="#D6D6D6" stroke-width="279.662"/>
</g>
<rect width="27.9662" height="27.9662" transform="matrix(-1 0 0 -1 253.628 56.8723)" fill="#D6D6D6"/>
<g clip-path="url(#clip51_333_60643)">
<rect width="27.9662" height="27.9662" transform="matrix(1 0 0 -1 113.797 196.703)" fill="#D6D6D6"/>
<path d="M281.594 196.703V534.285L42.8877 295.578L14.9216 267.612L-223.785 28.9062H113.797H141.763H281.594V168.737V196.703Z" fill="#9F9F9F" stroke="#D6D6D6" stroke-width="279.662"/>
</g>
<g clip-path="url(#clip52_333_60643)">
<rect width="27.9662" height="27.9662" transform="translate(29.8984 112.805)" fill="#D6D6D6"/>
<path d="M197.695 112.805V-224.777L-41.0107 13.9294L-68.9769 41.8955L-307.683 280.602H29.8984H57.8646H197.695V140.771V112.805Z" fill="#9F9F9F" stroke="#D6D6D6" stroke-width="279.662"/>
<path d="M197.695 140.771V478.352L-41.0107 239.646L-68.9769 211.68L-307.683 -27.0262H29.8984H57.8646H197.695V112.805V140.771Z" fill="#474747" stroke="#D6D6D6" stroke-width="279.662"/>
<path d="M-109.932 140.771V478.352L128.774 239.646L156.74 211.68L395.446 -27.0262H57.8647H29.8986H-109.932V112.805V140.771Z" fill="#656565" stroke="#D6D6D6" stroke-width="279.662"/>
<path d="M-109.932 112.805V-224.777L128.774 13.9294L156.74 41.8955L395.446 280.602H57.8647H29.8986H-109.932V140.771V112.805Z" fill="#838383" stroke="#D6D6D6" stroke-width="279.662"/>
</g>
<g clip-path="url(#clip53_333_60643)">
<rect width="27.9662" height="27.9662" transform="matrix(-1 0 0 -1 253.628 28.906)" fill="#D6D6D6"/>
<path d="M85.8307 28.906V366.487L324.537 127.781L352.503 99.8152L591.209 -138.891H253.628H225.662H85.8307V0.939844V28.906Z" fill="#9F9F9F" stroke="#D6D6D6" stroke-width="279.662"/>
<path d="M85.8307 0.939941V-336.642L324.537 -97.9354L352.503 -69.9692L591.209 168.737H253.628H225.662H85.8307V28.9061V0.939941Z" fill="#474747" stroke="#D6D6D6" stroke-width="279.662"/>
<path d="M393.459 0.939941V-336.642L154.752 -97.9354L126.786 -69.9692L-111.92 168.737H225.662H253.628H393.459V28.9061V0.939941Z" fill="#656565" stroke="#D6D6D6" stroke-width="279.662"/>
<path d="M393.459 28.906V366.487L154.752 127.781L126.786 99.8152L-111.92 -138.891H225.662H253.628H393.459V0.939844V28.906Z" fill="#838383" stroke="#D6D6D6" stroke-width="279.662"/>
</g>
<g clip-path="url(#clip54_333_60643)">
<rect width="27.9662" height="27.9662" transform="matrix(1 0 0 -1 113.797 168.737)" fill="#D6D6D6"/>
<path d="M281.594 168.737V506.318L42.8877 267.612L14.9216 239.646L-223.785 0.93985H113.797H141.763H281.594V140.771V168.737Z" fill="#9F9F9F" stroke="#D6D6D6" stroke-width="279.662"/>
<path d="M281.594 140.771V-196.811L42.8877 41.8954L14.9216 69.8616L-223.785 308.568H113.797H141.763H281.594V168.737V140.771Z" fill="#474747" stroke="#D6D6D6" stroke-width="279.662"/>
<path d="M-26.0338 140.771V-196.811L212.672 41.8954L240.638 69.8616L479.345 308.568H141.763H113.797H-26.0338V168.737V140.771Z" fill="#656565" stroke="#D6D6D6" stroke-width="279.662"/>
<path d="M-26.0338 168.737V506.318L212.672 267.612L240.638 239.646L479.345 0.93985H141.763H113.797H-26.0338V140.771V168.737Z" fill="#838383" stroke="#D6D6D6" stroke-width="279.662"/>
</g>
<g clip-path="url(#clip55_333_60643)">
<rect width="27.9662" height="27.9662" transform="translate(57.8647 0.939941)" fill="#D6D6D6"/>
<path d="M225.662 0.939941V-336.642L-13.0444 -97.9354L-41.0106 -69.9692L-279.717 168.737H57.8647H85.8309H225.662V28.9061V0.939941Z" fill="#9F9F9F" stroke="#D6D6D6" stroke-width="279.662"/>
<path d="M225.662 28.906V366.487L-13.0444 127.781L-41.0106 99.8152L-279.717 -138.891H57.8647H85.8309H225.662V0.939844V28.906Z" fill="#474747" stroke="#D6D6D6" stroke-width="279.662"/>
<path d="M-81.9662 28.906V366.487L156.74 127.781L184.706 99.8152L423.412 -138.891H85.8308H57.8646H-81.9662V0.939844V28.906Z" fill="#656565" stroke="#D6D6D6" stroke-width="279.662"/>
</g>
<g clip-path="url(#clip56_333_60643)">
<rect width="27.9662" height="27.9662" transform="matrix(-1 0 0 -1 225.662 140.771)" fill="#D6D6D6"/>
<path d="M57.8647 140.771V478.352L296.571 239.646L324.537 211.68L563.243 -27.0262H225.662H197.695H57.8647V112.805V140.771Z" fill="#9F9F9F" stroke="#D6D6D6" stroke-width="279.662"/>
<path d="M57.8647 112.805V-224.777L296.571 13.9294L324.537 41.8955L563.243 280.602H225.662H197.695H57.8647V140.771V112.805Z" fill="#474747" stroke="#D6D6D6" stroke-width="279.662"/>
<path d="M365.493 112.805V-224.777L126.786 13.9294L98.8202 41.8955L-139.886 280.602H197.696H225.662H365.493V140.771V112.805Z" fill="#656565" stroke="#D6D6D6" stroke-width="279.662"/>
</g>
<rect width="27.9662" height="27.9662" transform="translate(57.8647 28.906)" fill="#D6D6D6"/>
<g clip-path="url(#clip57_333_60643)">
<rect width="27.9662" height="27.9662" transform="matrix(-1 0 0 -1 225.662 112.805)" fill="#D6D6D6"/>
<path d="M57.8647 112.805V450.386L296.571 211.68L324.537 183.714L563.243 -54.9923H225.662H197.695H57.8647V84.8385V112.805Z" fill="#9F9F9F" stroke="#D6D6D6" stroke-width="279.662"/>
<path d="M57.8647 84.8384V-252.743L296.571 -14.0369L324.537 13.9292L563.243 252.635H225.662H197.695H57.8647V112.805V84.8384Z" fill="#474747" stroke="#D6D6D6" stroke-width="279.662"/>
</g>
<g clip-path="url(#clip58_333_60643)">
<rect width="27.9662" height="27.9662" transform="translate(57.8647 56.8723)" fill="#D6D6D6"/>
<path d="M225.662 56.8723V-280.709L-13.0444 -42.003L-41.0106 -14.0368L-279.717 224.669H57.8647H85.8309H225.662V84.8385V56.8723Z" fill="#9F9F9F" stroke="#D6D6D6" stroke-width="279.662"/>
<path d="M225.662 84.8384V422.42L-13.0444 183.714L-41.0106 155.748L-279.717 -82.9586H57.8647H85.8309H225.662V56.8722V84.8384Z" fill="#474747" stroke="#D6D6D6" stroke-width="279.662"/>
</g>
<g clip-path="url(#clip59_333_60643)">
<rect width="27.9662" height="27.9662" transform="matrix(-1 0 0 -1 225.662 84.8384)" fill="#D6D6D6"/>
<path d="M57.8647 84.8384V422.42L296.571 183.714L324.537 155.748L563.243 -82.9586H225.662H197.695H57.8647V56.8722V84.8384Z" fill="#9F9F9F" stroke="#D6D6D6" stroke-width="279.662"/>
<path d="M57.8647 56.8723V-280.709L296.571 -42.003L324.537 -14.0368L563.243 224.669H225.662H197.695H57.8647V84.8385V56.8723Z" fill="#474747" stroke="#D6D6D6" stroke-width="279.662"/>
</g>
<g clip-path="url(#clip60_333_60643)">
<rect width="27.9662" height="27.9662" transform="translate(57.8647 84.8384)" fill="#D6D6D6"/>
<path d="M225.662 84.8384V-252.743L-13.0444 -14.0369L-41.0106 13.9292L-279.717 252.635H57.8647H85.8309H225.662V112.805V84.8384Z" fill="#9F9F9F" stroke="#D6D6D6" stroke-width="279.662"/>
<path d="M225.662 112.805V450.386L-13.0444 211.68L-41.0106 183.714L-279.717 -54.9923H57.8647H85.8309H225.662V84.8385V112.805Z" fill="#474747" stroke="#D6D6D6" stroke-width="279.662"/>
<path d="M-81.9662 112.805V450.386L156.74 211.68L184.706 183.714L423.412 -54.9923H85.8308H57.8646H-81.9662V84.8385V112.805Z" fill="#656565" stroke="#D6D6D6" stroke-width="279.662"/>
</g>
<g clip-path="url(#clip61_333_60643)">
<rect width="27.9662" height="27.9662" transform="matrix(-1 0 0 -1 225.662 56.8723)" fill="#D6D6D6"/>
<path d="M57.8647 56.8723V394.454L296.571 155.748L324.537 127.781L563.243 -110.925H225.662H197.695H57.8647V28.9062V56.8723Z" fill="#9F9F9F" stroke="#D6D6D6" stroke-width="279.662"/>
<path d="M57.8647 28.906V-308.675L296.571 -69.9693L324.537 -42.0031L563.243 196.703H225.662H197.695H57.8647V56.8722V28.906Z" fill="#474747" stroke="#D6D6D6" stroke-width="279.662"/>
<path d="M365.493 28.906V-308.675L126.786 -69.9693L98.8202 -42.0031L-139.886 196.703H197.696H225.662H365.493V56.8722V28.906Z" fill="#656565" stroke="#D6D6D6" stroke-width="279.662"/>
</g>
<g clip-path="url(#clip62_333_60643)">
<rect width="27.9662" height="27.9662" transform="translate(57.8647 112.805)" fill="#D6D6D6"/>
<path d="M225.662 112.805V-224.777L-13.0444 13.9294L-41.0106 41.8955L-279.717 280.602H57.8647H85.8309H225.662V140.771V112.805Z" fill="#9F9F9F" stroke="#D6D6D6" stroke-width="279.662"/>
<path d="M225.662 140.771V478.352L-13.0444 239.646L-41.0106 211.68L-279.717 -27.0262H57.8647H85.8309H225.662V112.805V140.771Z" fill="#474747" stroke="#D6D6D6" stroke-width="279.662"/>
<path d="M-81.9662 140.771V478.352L156.74 239.646L184.706 211.68L423.412 -27.0262H85.8308H57.8646H-81.9662V112.805V140.771Z" fill="#656565" stroke="#D6D6D6" stroke-width="279.662"/>
</g>
<g clip-path="url(#clip63_333_60643)">
<rect width="27.9662" height="27.9662" transform="matrix(-1 0 0 -1 225.662 28.906)" fill="#D6D6D6"/>
<path d="M57.8647 28.906V366.487L296.571 127.781L324.537 99.8152L563.243 -138.891H225.662H197.695H57.8647V0.939844V28.906Z" fill="#9F9F9F" stroke="#D6D6D6" stroke-width="279.662"/>
<path d="M57.8647 0.939941V-336.642L296.571 -97.9354L324.537 -69.9692L563.243 168.737H225.662H197.695H57.8647V28.9061V0.939941Z" fill="#474747" stroke="#D6D6D6" stroke-width="279.662"/>
<path d="M365.493 0.939941V-336.642L126.786 -97.9354L98.8202 -69.9692L-139.886 168.737H197.696H225.662H365.493V28.9061V0.939941Z" fill="#656565" stroke="#D6D6D6" stroke-width="279.662"/>
</g>
<g clip-path="url(#clip64_333_60643)">
<rect width="27.9662" height="27.9662" transform="translate(85.8308 0.939941)" fill="#D6D6D6"/>
<path d="M253.628 0.939941V-336.642L14.9217 -97.9354L-13.0445 -69.9692L-251.751 168.737H85.8308H113.797H253.628V28.9061V0.939941Z" fill="#9F9F9F" stroke="#D6D6D6" stroke-width="279.662"/>
<path d="M253.628 28.906V366.487L14.9217 127.781L-13.0445 99.8152L-251.751 -138.891H85.8308H113.797H253.628V0.939844V28.906Z" fill="#474747" stroke="#D6D6D6" stroke-width="279.662"/>
<path d="M-54.0001 28.906V366.487L184.706 127.781L212.672 99.8152L451.378 -138.891H113.797H85.8307H-54.0001V0.939844V28.906Z" fill="#656565" stroke="#D6D6D6" stroke-width="279.662"/>
</g>
<g clip-path="url(#clip65_333_60643)">
<rect width="27.9662" height="27.9662" transform="matrix(-1 0 0 -1 197.696 140.771)" fill="#D6D6D6"/>
<path d="M29.8986 140.771V478.352L268.605 239.646L296.571 211.68L535.277 -27.0262H197.696H169.729H29.8986V112.805V140.771Z" fill="#9F9F9F" stroke="#D6D6D6" stroke-width="279.662"/>
<path d="M29.8986 112.805V-224.777L268.605 13.9294L296.571 41.8955L535.277 280.602H197.696H169.729H29.8986V140.771V112.805Z" fill="#474747" stroke="#D6D6D6" stroke-width="279.662"/>
<path d="M337.526 112.805V-224.777L98.8201 13.9294L70.8539 41.8955L-167.852 280.602H169.729H197.695H337.526V140.771V112.805Z" fill="#656565" stroke="#D6D6D6" stroke-width="279.662"/>
</g>
<g clip-path="url(#clip66_333_60643)">
<rect width="27.9662" height="27.9662" transform="matrix(1 0 0 -1 -26.0339 280.602)" fill="#D6D6D6"/>
<path d="M141.763 280.602V618.183L-96.9431 379.477L-124.909 351.511L-363.615 112.805H-26.0339H1.93223H141.763V252.635V280.602Z" fill="#9F9F9F" stroke="#D6D6D6" stroke-width="279.662"/>
<path d="M141.763 252.635V-84.946L-96.9431 153.76L-124.909 181.726L-363.615 420.432H-26.0339H1.93223H141.763V280.602V252.635Z" fill="#474747" stroke="#D6D6D6" stroke-width="279.662"/>
<path d="M-165.865 252.635V-84.946L72.8415 153.76L100.808 181.726L339.514 420.432H1.93237H-26.0338H-165.865V280.602V252.635Z" fill="#656565" stroke="#D6D6D6" stroke-width="279.662"/>
</g>
<g clip-path="url(#clip67_333_60643)">
<rect width="27.9662" height="27.9662" transform="translate(85.8308 28.906)" fill="#D6D6D6"/>
<path d="M253.628 28.906V-308.675L14.9217 -69.9693L-13.0445 -42.0031L-251.751 196.703H85.8308H113.797H253.628V56.8722V28.906Z" fill="#9F9F9F" stroke="#D6D6D6" stroke-width="279.662"/>
<path d="M253.628 56.8723V394.454L14.9217 155.748L-13.0445 127.781L-251.751 -110.925H85.8308H113.797H253.628V28.9062V56.8723Z" fill="#474747" stroke="#D6D6D6" stroke-width="279.662"/>
<path d="M-54.0001 56.8723V394.454L184.706 155.748L212.672 127.781L451.378 -110.925H113.797H85.8307H-54.0001V28.9062V56.8723Z" fill="#656565" stroke="#D6D6D6" stroke-width="279.662"/>
</g>
<g clip-path="url(#clip68_333_60643)">
<rect width="27.9662" height="27.9662" transform="matrix(-1 0 0 -1 197.696 112.805)" fill="#D6D6D6"/>
<path d="M29.8986 112.805V450.386L268.605 211.68L296.571 183.714L535.277 -54.9923H197.696H169.729H29.8986V84.8385V112.805Z" fill="#9F9F9F" stroke="#D6D6D6" stroke-width="279.662"/>
<path d="M29.8986 84.8384V-252.743L268.605 -14.0369L296.571 13.9292L535.277 252.635H197.696H169.729H29.8986V112.805V84.8384Z" fill="#474747" stroke="#D6D6D6" stroke-width="279.662"/>
<path d="M337.526 84.8384V-252.743L98.8201 -14.0369L70.8539 13.9292L-167.852 252.635H169.729H197.695H337.526V112.805V84.8384Z" fill="#656565" stroke="#D6D6D6" stroke-width="279.662"/>
</g>
<g clip-path="url(#clip69_333_60643)">
<rect width="27.9662" height="27.9662" transform="matrix(1 0 0 -1 -26.0339 252.635)" fill="#D6D6D6"/>
<path d="M141.763 252.635V590.217L-96.9431 351.511L-124.909 323.545L-363.615 84.8385H-26.0339H1.93223H141.763V224.669V252.635Z" fill="#9F9F9F" stroke="#D6D6D6" stroke-width="279.662"/>
<path d="M141.763 224.669V-112.912L-96.9431 125.794L-124.909 153.76L-363.615 392.466H-26.0339H1.93223H141.763V252.635V224.669Z" fill="#474747" stroke="#D6D6D6" stroke-width="279.662"/>
<path d="M-165.865 224.669V-112.912L72.8415 125.794L100.808 153.76L339.514 392.466H1.93237H-26.0338H-165.865V252.635V224.669Z" fill="#656565" stroke="#D6D6D6" stroke-width="279.662"/>
</g>
<g clip-path="url(#clip70_333_60643)">
<rect width="27.9662" height="27.9662" transform="translate(85.8308 56.8723)" fill="#D6D6D6"/>
<path d="M253.628 56.8723V-280.709L14.9217 -42.003L-13.0445 -14.0368L-251.751 224.669H85.8308H113.797H253.628V84.8385V56.8723Z" fill="#9F9F9F" stroke="#D6D6D6" stroke-width="279.662"/>
<path d="M253.628 84.8384V422.42L14.9217 183.714L-13.0445 155.748L-251.751 -82.9586H85.8308H113.797H253.628V56.8722V84.8384Z" fill="#474747" stroke="#D6D6D6" stroke-width="279.662"/>
<path d="M-54.0001 84.8384V422.42L184.706 183.714L212.672 155.748L451.378 -82.9586H113.797H85.8307H-54.0001V56.8722V84.8384Z" fill="#656565" stroke="#D6D6D6" stroke-width="279.662"/>
</g>
<g clip-path="url(#clip71_333_60643)">
<rect width="27.9662" height="27.9662" transform="matrix(-1 0 0 -1 197.696 84.8384)" fill="#D6D6D6"/>
<path d="M29.8986 84.8384V422.42L268.605 183.714L296.571 155.748L535.277 -82.9586H197.696H169.729H29.8986V56.8722V84.8384Z" fill="#9F9F9F" stroke="#D6D6D6" stroke-width="279.662"/>
<path d="M29.8986 56.8723V-280.709L268.605 -42.003L296.571 -14.0368L535.277 224.669H197.696H169.729H29.8986V84.8385V56.8723Z" fill="#474747" stroke="#D6D6D6" stroke-width="279.662"/>
<path d="M337.526 56.8723V-280.709L98.8201 -42.003L70.8539 -14.0368L-167.852 224.669H169.729H197.695H337.526V84.8385V56.8723Z" fill="#656565" stroke="#D6D6D6" stroke-width="279.662"/>
</g>
<g clip-path="url(#clip72_333_60643)">
<rect width="27.9662" height="27.9662" transform="matrix(1 0 0 -1 -26.0339 224.669)" fill="#D6D6D6"/>
<path d="M141.763 224.669V562.251L-96.9431 323.545L-124.909 295.578L-363.615 56.8722H-26.0339H1.93223H141.763V196.703V224.669Z" fill="#9F9F9F" stroke="#D6D6D6" stroke-width="279.662"/>
<path d="M141.763 196.703V-140.878L-96.9431 97.8278L-124.909 125.794L-363.615 364.5H-26.0339H1.93223H141.763V224.669V196.703Z" fill="#474747" stroke="#D6D6D6" stroke-width="279.662"/>
<path d="M-165.865 196.703V-140.878L72.8415 97.8278L100.808 125.794L339.514 364.5H1.93237H-26.0338H-165.865V224.669V196.703Z" fill="#656565" stroke="#D6D6D6" stroke-width="279.662"/>
</g>
<g clip-path="url(#clip73_333_60643)">
<rect width="27.9662" height="27.9662" transform="translate(85.8308 84.8384)" fill="#D6D6D6"/>
<path d="M253.628 84.8384V-252.743L14.9217 -14.0369L-13.0445 13.9292L-251.751 252.635H85.8308H113.797H253.628V112.805V84.8384Z" fill="#9F9F9F" stroke="#D6D6D6" stroke-width="279.662"/>
</g>
<g clip-path="url(#clip74_333_60643)">
<rect width="27.9662" height="27.9662" transform="matrix(-1 0 0 -1 197.696 56.8723)" fill="#D6D6D6"/>
<path d="M29.8986 56.8723V394.454L268.605 155.748L296.571 127.781L535.277 -110.925H197.696H169.729H29.8986V28.9062V56.8723Z" fill="#9F9F9F" stroke="#D6D6D6" stroke-width="279.662"/>
</g>
<g clip-path="url(#clip75_333_60643)">
<rect width="27.9662" height="27.9662" transform="matrix(1 0 0 -1 -26.0339 196.703)" fill="#D6D6D6"/>
<path d="M141.763 196.703V534.285L-96.9431 295.578L-124.909 267.612L-363.615 28.9062H-26.0339H1.93223H141.763V168.737V196.703Z" fill="#9F9F9F" stroke="#D6D6D6" stroke-width="279.662"/>
</g>
<g clip-path="url(#clip76_333_60643)">
<rect width="27.9662" height="27.9662" transform="translate(85.8308 112.805)" fill="#D6D6D6"/>
<path d="M253.628 112.805V-224.777L14.9217 13.9294L-13.0445 41.8955L-251.751 280.602H85.8308H113.797H253.628V140.771V112.805Z" fill="#9F9F9F" stroke="#D6D6D6" stroke-width="279.662"/>
<path d="M253.628 140.771V478.352L14.9217 239.646L-13.0445 211.68L-251.751 -27.0262H85.8308H113.797H253.628V112.805V140.771Z" fill="#474747" stroke="#D6D6D6" stroke-width="279.662"/>
<path d="M-54.0001 140.771V478.352L184.706 239.646L212.672 211.68L451.378 -27.0262H113.797H85.8307H-54.0001V112.805V140.771Z" fill="#656565" stroke="#D6D6D6" stroke-width="279.662"/>
</g>
<g clip-path="url(#clip77_333_60643)">
<rect width="27.9662" height="27.9662" transform="matrix(-1 0 0 -1 197.696 28.906)" fill="#D6D6D6"/>
<path d="M29.8986 28.906V366.487L268.605 127.781L296.571 99.8152L535.277 -138.891H197.696H169.729H29.8986V0.939844V28.906Z" fill="#9F9F9F" stroke="#D6D6D6" stroke-width="279.662"/>
<path d="M29.8986 0.939941V-336.642L268.605 -97.9354L296.571 -69.9692L535.277 168.737H197.696H169.729H29.8986V28.9061V0.939941Z" fill="#474747" stroke="#D6D6D6" stroke-width="279.662"/>
<path d="M337.526 0.939941V-336.642L98.8201 -97.9354L70.8539 -69.9692L-167.852 168.737H169.729H197.695H337.526V28.9061V0.939941Z" fill="#656565" stroke="#D6D6D6" stroke-width="279.662"/>
</g>
<g clip-path="url(#clip78_333_60643)">
<rect width="27.9662" height="27.9662" transform="matrix(1 0 0 -1 -26.0339 168.737)" fill="#D6D6D6"/>
<path d="M141.763 168.737V506.318L-96.9431 267.612L-124.909 239.646L-363.615 0.93985H-26.0339H1.93223H141.763V140.771V168.737Z" fill="#9F9F9F" stroke="#D6D6D6" stroke-width="279.662"/>
<path d="M141.763 140.771V-196.811L-96.9431 41.8954L-124.909 69.8616L-363.615 308.568H-26.0339H1.93223H141.763V168.737V140.771Z" fill="#474747" stroke="#D6D6D6" stroke-width="279.662"/>
<path d="M-165.865 140.771V-196.811L72.8415 41.8954L100.808 69.8616L339.514 308.568H1.93237H-26.0338H-165.865V168.737V140.771Z" fill="#656565" stroke="#D6D6D6" stroke-width="279.662"/>
</g>
<g clip-path="url(#clip79_333_60643)">
<rect width="27.9662" height="27.9662" transform="translate(113.797 0.939941)" fill="#D6D6D6"/>
<path d="M281.594 0.939941V-336.642L42.8877 -97.9354L14.9216 -69.9692L-223.785 168.737H113.797H141.763H281.594V28.9061V0.939941Z" fill="#9F9F9F" stroke="#D6D6D6" stroke-width="279.662"/>
<path d="M281.594 28.906V366.487L42.8877 127.781L14.9216 99.8152L-223.785 -138.891H113.797H141.763H281.594V0.939844V28.906Z" fill="#474747" stroke="#D6D6D6" stroke-width="279.662"/>
<path d="M-26.0338 28.906V366.487L212.672 127.781L240.638 99.8152L479.345 -138.891H141.763H113.797H-26.0338V0.939844V28.906Z" fill="#656565" stroke="#D6D6D6" stroke-width="279.662"/>
</g>
<g clip-path="url(#clip80_333_60643)">
<rect width="27.9662" height="27.9662" transform="matrix(-1 0 0 -1 169.729 140.771)" fill="#D6D6D6"/>
<path d="M1.93228 140.771V478.352L240.638 239.646L268.605 211.68L507.311 -27.0262H169.729H141.763H1.93228V112.805V140.771Z" fill="#9F9F9F" stroke="#D6D6D6" stroke-width="279.662"/>
<path d="M1.93228 112.805V-224.777L240.638 13.9294L268.605 41.8955L507.311 280.602H169.729H141.763H1.93228V140.771V112.805Z" fill="#474747" stroke="#D6D6D6" stroke-width="279.662"/>
<path d="M309.56 112.805V-224.777L70.854 13.9294L42.8879 41.8955L-195.818 280.602H141.763H169.729H309.56V140.771V112.805Z" fill="#656565" stroke="#D6D6D6" stroke-width="279.662"/>
</g>
<g clip-path="url(#clip81_333_60643)">
<rect width="27.9662" height="27.9662" transform="matrix(1 0 0 -1 1.93237 280.602)" fill="#D6D6D6"/>
<path d="M169.729 280.602V618.183L-68.9768 379.477L-96.9429 351.511L-335.649 112.805H1.93237H29.8985H169.729V252.635V280.602Z" fill="#9F9F9F" stroke="#D6D6D6" stroke-width="279.662"/>
<path d="M169.729 252.635V-84.946L-68.9768 153.76L-96.9429 181.726L-335.649 420.432H1.93237H29.8985H169.729V280.602V252.635Z" fill="#474747" stroke="#D6D6D6" stroke-width="279.662"/>
<path d="M-137.899 252.635V-84.946L100.808 153.76L128.774 181.726L367.48 420.432H29.8984H1.93228H-137.899V280.602V252.635Z" fill="#656565" stroke="#D6D6D6" stroke-width="279.662"/>
</g>
<g clip-path="url(#clip82_333_60643)">
<rect width="27.9662" height="27.9662" transform="translate(113.797 28.906)" fill="#D6D6D6"/>
<path d="M281.594 28.906V-308.675L42.8877 -69.9693L14.9216 -42.0031L-223.785 196.703H113.797H141.763H281.594V56.8722V28.906Z" fill="#9F9F9F" stroke="#D6D6D6" stroke-width="279.662"/>
</g>
<g clip-path="url(#clip83_333_60643)">
<rect width="27.9662" height="27.9662" transform="matrix(-1 0 0 -1 169.729 112.805)" fill="#D6D6D6"/>
<path d="M1.93228 112.805V450.386L240.638 211.68L268.605 183.714L507.311 -54.9923H169.729H141.763H1.93228V84.8385V112.805Z" fill="#9F9F9F" stroke="#D6D6D6" stroke-width="279.662"/>
</g>
<g clip-path="url(#clip84_333_60643)">
<rect width="27.9662" height="27.9662" transform="matrix(1 0 0 -1 1.93237 252.635)" fill="#D6D6D6"/>
<path d="M169.729 252.635V590.217L-68.9768 351.511L-96.9429 323.545L-335.649 84.8385H1.93237H29.8985H169.729V224.669V252.635Z" fill="#9F9F9F" stroke="#D6D6D6" stroke-width="279.662"/>
</g>
<g clip-path="url(#clip85_333_60643)">
<rect width="27.9662" height="27.9662" transform="translate(113.797 56.8723)" fill="#D6D6D6"/>
<path d="M281.594 56.8723V-280.709L42.8877 -42.003L14.9216 -14.0368L-223.785 224.669H113.797H141.763H281.594V84.8385V56.8723Z" fill="#9F9F9F" stroke="#D6D6D6" stroke-width="279.662"/>
<path d="M281.594 84.8384V422.42L42.8877 183.714L14.9216 155.748L-223.785 -82.9586H113.797H141.763H281.594V56.8722V84.8384Z" fill="#474747" stroke="#D6D6D6" stroke-width="279.662"/>
<path d="M-26.0338 84.8384V422.42L212.672 183.714L240.638 155.748L479.345 -82.9586H141.763H113.797H-26.0338V56.8722V84.8384Z" fill="#656565" stroke="#D6D6D6" stroke-width="279.662"/>
</g>
<g clip-path="url(#clip86_333_60643)">
<rect width="27.9662" height="27.9662" transform="matrix(-1 0 0 -1 169.729 84.8384)" fill="#D6D6D6"/>
<path d="M1.93228 84.8384V422.42L240.638 183.714L268.605 155.748L507.311 -82.9586H169.729H141.763H1.93228V56.8722V84.8384Z" fill="#9F9F9F" stroke="#D6D6D6" stroke-width="279.662"/>
<path d="M1.93228 56.8723V-280.709L240.638 -42.003L268.605 -14.0368L507.311 224.669H169.729H141.763H1.93228V84.8385V56.8723Z" fill="#474747" stroke="#D6D6D6" stroke-width="279.662"/>
<path d="M309.56 56.8723V-280.709L70.854 -42.003L42.8879 -14.0368L-195.818 224.669H141.763H169.729H309.56V84.8385V56.8723Z" fill="#656565" stroke="#D6D6D6" stroke-width="279.662"/>
</g>
<rect width="27.9662" height="27.9662" transform="matrix(1 0 0 -1 1.93237 224.669)" fill="#D6D6D6"/>
<g clip-path="url(#clip87_333_60643)">
<rect width="27.9662" height="27.9662" transform="translate(113.797 84.8384)" fill="#D6D6D6"/>
<path d="M281.594 84.8384V-252.743L42.8877 -14.0369L14.9216 13.9292L-223.785 252.635H113.797H141.763H281.594V112.805V84.8384Z" fill="#9F9F9F" stroke="#D6D6D6" stroke-width="279.662"/>
<path d="M281.594 112.805V450.386L42.8877 211.68L14.9216 183.714L-223.785 -54.9923H113.797H141.763H281.594V84.8385V112.805Z" fill="#474747" stroke="#D6D6D6" stroke-width="279.662"/>
<path d="M-26.0338 112.805V450.386L212.672 211.68L240.638 183.714L479.345 -54.9923H141.763H113.797H-26.0338V84.8385V112.805Z" fill="#656565" stroke="#D6D6D6" stroke-width="279.662"/>
</g>
<g clip-path="url(#clip88_333_60643)">
<rect width="27.9662" height="27.9662" transform="matrix(-1 0 0 -1 169.729 56.8723)" fill="#D6D6D6"/>
<path d="M1.93228 56.8723V394.454L240.638 155.748L268.605 127.781L507.311 -110.925H169.729H141.763H1.93228V28.9062V56.8723Z" fill="#9F9F9F" stroke="#D6D6D6" stroke-width="279.662"/>
<path d="M1.93228 28.906V-308.675L240.638 -69.9693L268.605 -42.0031L507.311 196.703H169.729H141.763H1.93228V56.8722V28.906Z" fill="#474747" stroke="#D6D6D6" stroke-width="279.662"/>
<path d="M309.56 28.906V-308.675L70.854 -69.9693L42.8879 -42.0031L-195.818 196.703H141.763H169.729H309.56V56.8722V28.906Z" fill="#656565" stroke="#D6D6D6" stroke-width="279.662"/>
</g>
<g clip-path="url(#clip89_333_60643)">
<rect width="27.9662" height="27.9662" transform="matrix(1 0 0 -1 1.93237 196.703)" fill="#D6D6D6"/>
<path d="M169.729 196.703V534.285L-68.9768 295.578L-96.9429 267.612L-335.649 28.9062H1.93237H29.8985H169.729V168.737V196.703Z" fill="#9F9F9F" stroke="#D6D6D6" stroke-width="279.662"/>
<path d="M169.729 168.737V-168.845L-68.9768 69.8615L-96.9429 97.8277L-335.649 336.534H1.93237H29.8985H169.729V196.703V168.737Z" fill="#474747" stroke="#D6D6D6" stroke-width="279.662"/>
<path d="M-137.899 168.737V-168.845L100.808 69.8615L128.774 97.8277L367.48 336.534H29.8984H1.93228H-137.899V196.703V168.737Z" fill="#656565" stroke="#D6D6D6" stroke-width="279.662"/>
</g>
<g clip-path="url(#clip90_333_60643)">
<rect width="27.9662" height="27.9662" transform="translate(113.797 112.805)" fill="#D6D6D6"/>
<path d="M281.594 112.805V-224.777L42.8877 13.9294L14.9216 41.8955L-223.785 280.602H113.797H141.763H281.594V140.771V112.805Z" fill="#9F9F9F" stroke="#D6D6D6" stroke-width="279.662"/>
<path d="M281.594 140.771V478.352L42.8877 239.646L14.9216 211.68L-223.785 -27.0262H113.797H141.763H281.594V112.805V140.771Z" fill="#474747" stroke="#D6D6D6" stroke-width="279.662"/>
</g>
<g clip-path="url(#clip91_333_60643)">
<rect width="27.9662" height="27.9662" transform="matrix(-1 0 0 -1 169.729 28.906)" fill="#D6D6D6"/>
<path d="M1.93228 28.906V366.487L240.638 127.781L268.605 99.8152L507.311 -138.891H169.729H141.763H1.93228V0.939844V28.906Z" fill="#9F9F9F" stroke="#D6D6D6" stroke-width="279.662"/>
<path d="M1.93228 0.939941V-336.642L240.638 -97.9354L268.605 -69.9692L507.311 168.737H169.729H141.763H1.93228V28.9061V0.939941Z" fill="#474747" stroke="#D6D6D6" stroke-width="279.662"/>
</g>
<g clip-path="url(#clip92_333_60643)">
<rect width="27.9662" height="27.9662" transform="matrix(1 0 0 -1 1.93237 168.737)" fill="#D6D6D6"/>
<path d="M169.729 168.737V506.318L-68.9768 267.612L-96.9429 239.646L-335.649 0.93985H1.93237H29.8985H169.729V140.771V168.737Z" fill="#9F9F9F" stroke="#D6D6D6" stroke-width="279.662"/>
<path d="M169.729 140.771V-196.811L-68.9768 41.8954L-96.9429 69.8616L-335.649 308.568H1.93237H29.8985H169.729V168.737V140.771Z" fill="#474747" stroke="#D6D6D6" stroke-width="279.662"/>
</g>
<g clip-path="url(#clip93_333_60643)">
<rect width="27.9662" height="27.9662" transform="matrix(-1 0 0 1 253.628 196.703)" fill="#D6D6D6"/>
<path d="M85.8307 196.703V-140.878L324.537 97.8278L352.503 125.794L591.209 364.5H253.628H225.662H85.8307V224.669V196.703Z" fill="#9F9F9F" stroke="#D6D6D6" stroke-width="279.662"/>
<path d="M85.8307 224.669V562.251L324.537 323.545L352.503 295.578L591.209 56.8722H253.628H225.662H85.8307V196.703V224.669Z" fill="#474747" stroke="#D6D6D6" stroke-width="279.662"/>
<path d="M393.459 224.669V562.251L154.752 323.545L126.786 295.578L-111.92 56.8722H225.662H253.628H393.459V196.703V224.669Z" fill="#656565" stroke="#D6D6D6" stroke-width="279.662"/>
</g>
<g clip-path="url(#clip94_333_60643)">
<rect width="27.9662" height="27.9662" transform="matrix(-1 0 0 1 253.628 224.669)" fill="#D6D6D6"/>
<path d="M85.8307 224.669V-112.912L324.537 125.794L352.503 153.76L591.209 392.466H253.628H225.662H85.8307V252.635V224.669Z" fill="#9F9F9F" stroke="#D6D6D6" stroke-width="279.662"/>
<path d="M85.8307 252.635V590.217L324.537 351.511L352.503 323.545L591.209 84.8385H253.628H225.662H85.8307V224.669V252.635Z" fill="#474747" stroke="#D6D6D6" stroke-width="279.662"/>
<path d="M393.459 252.635V590.217L154.752 351.511L126.786 323.545L-111.92 84.8385H225.662H253.628H393.459V224.669V252.635Z" fill="#656565" stroke="#D6D6D6" stroke-width="279.662"/>
</g>
<rect width="27.9662" height="27.9662" transform="matrix(-1 0 0 1 253.628 252.635)" fill="#D6D6D6"/>
<g clip-path="url(#clip95_333_60643)">
<rect width="27.9662" height="27.9662" transform="matrix(-1 0 0 1 253.628 140.771)" fill="#D6D6D6"/>
<path d="M85.8307 140.771V-196.811L324.537 41.8954L352.503 69.8616L591.209 308.568H253.628H225.662H85.8307V168.737V140.771Z" fill="#9F9F9F" stroke="#D6D6D6" stroke-width="279.662"/>
<path d="M85.8307 168.737V506.318L324.537 267.612L352.503 239.646L591.209 0.93985H253.628H225.662H85.8307V140.771V168.737Z" fill="#474747" stroke="#D6D6D6" stroke-width="279.662"/>
<path d="M393.459 168.737V506.318L154.752 267.612L126.786 239.646L-111.92 0.93985H225.662H253.628H393.459V140.771V168.737Z" fill="#656565" stroke="#D6D6D6" stroke-width="279.662"/>
</g>
<g clip-path="url(#clip96_333_60643)">
<rect width="27.9662" height="27.9662" transform="matrix(-1 0 0 1 253.628 168.737)" fill="#D6D6D6"/>
<path d="M85.8307 168.737V-168.845L324.537 69.8615L352.503 97.8277L591.209 336.534H253.628H225.662H85.8307V196.703V168.737Z" fill="#9F9F9F" stroke="#D6D6D6" stroke-width="279.662"/>
</g>
<g clip-path="url(#clip97_333_60643)">
<rect width="27.9662" height="27.9662" transform="matrix(-1 0 0 1 225.662 196.703)" fill="#D6D6D6"/>
<path d="M57.8647 196.703V-140.878L296.571 97.8278L324.537 125.794L563.243 364.5H225.662H197.695H57.8647V224.669V196.703Z" fill="#9F9F9F" stroke="#D6D6D6" stroke-width="279.662"/>
</g>
<g clip-path="url(#clip98_333_60643)">
<rect width="27.9662" height="27.9662" transform="matrix(-1 0 0 1 225.662 224.669)" fill="#D6D6D6"/>
<path d="M57.8647 224.669V-112.912L296.571 125.794L324.537 153.76L563.243 392.466H225.662H197.695H57.8647V252.635V224.669Z" fill="#9F9F9F" stroke="#D6D6D6" stroke-width="279.662"/>
<path d="M57.8647 252.635V590.217L296.571 351.511L324.537 323.545L563.243 84.8385H225.662H197.695H57.8647V224.669V252.635Z" fill="#474747" stroke="#D6D6D6" stroke-width="279.662"/>
<path d="M365.493 252.635V590.217L126.786 351.511L98.8202 323.545L-139.886 84.8385H197.696H225.662H365.493V224.669V252.635Z" fill="#656565" stroke="#D6D6D6" stroke-width="279.662"/>
</g>
<g clip-path="url(#clip99_333_60643)">
<rect width="27.9662" height="27.9662" transform="matrix(-1 0 0 1 225.662 252.635)" fill="#D6D6D6"/>
<path d="M57.8647 252.635V-84.946L296.571 153.76L324.537 181.726L563.243 420.432H225.662H197.695H57.8647V280.602V252.635Z" fill="#9F9F9F" stroke="#D6D6D6" stroke-width="279.662"/>
<path d="M57.8647 280.602V618.183L296.571 379.477L324.537 351.511L563.243 112.805H225.662H197.695H57.8647V252.635V280.602Z" fill="#474747" stroke="#D6D6D6" stroke-width="279.662"/>
<path d="M365.493 280.602V618.183L126.786 379.477L98.8202 351.511L-139.886 112.805H197.696H225.662H365.493V252.635V280.602Z" fill="#656565" stroke="#D6D6D6" stroke-width="279.662"/>
</g>
<g clip-path="url(#clip100_333_60643)">
<rect width="27.9662" height="27.9662" transform="matrix(-1 0 0 1 225.662 140.771)" fill="#D6D6D6"/>
<path d="M57.8647 140.771V-196.811L296.571 41.8954L324.537 69.8616L563.243 308.568H225.662H197.695H57.8647V168.737V140.771Z" fill="#9F9F9F" stroke="#D6D6D6" stroke-width="279.662"/>
<path d="M57.8647 168.737V506.318L296.571 267.612L324.537 239.646L563.243 0.93985H225.662H197.695H57.8647V140.771V168.737Z" fill="#474747" stroke="#D6D6D6" stroke-width="279.662"/>
</g>
<g clip-path="url(#clip101_333_60643)">
<rect width="27.9662" height="27.9662" transform="matrix(-1 0 0 1 225.662 168.737)" fill="#D6D6D6"/>
<path d="M57.8647 168.737V-168.845L296.571 69.8615L324.537 97.8277L563.243 336.534H225.662H197.695H57.8647V196.703V168.737Z" fill="#9F9F9F" stroke="#D6D6D6" stroke-width="279.662"/>
<path d="M57.8647 196.703V534.285L296.571 295.578L324.537 267.612L563.243 28.9062H225.662H197.695H57.8647V168.737V196.703Z" fill="#474747" stroke="#D6D6D6" stroke-width="279.662"/>
<path d="M365.493 196.703V534.285L126.786 295.578L98.8202 267.612L-139.886 28.9062H197.696H225.662H365.493V168.737V196.703Z" fill="#656565" stroke="#D6D6D6" stroke-width="279.662"/>
</g>
<g clip-path="url(#clip102_333_60643)">
<rect width="27.9662" height="27.9662" transform="matrix(-1 0 0 1 197.696 196.703)" fill="#D6D6D6"/>
<path d="M29.8986 196.703V-140.878L268.605 97.8278L296.571 125.794L535.277 364.5H197.696H169.729H29.8986V224.669V196.703Z" fill="#9F9F9F" stroke="#D6D6D6" stroke-width="279.662"/>
<path d="M29.8986 224.669V562.251L268.605 323.545L296.571 295.578L535.277 56.8722H197.696H169.729H29.8986V196.703V224.669Z" fill="#474747" stroke="#D6D6D6" stroke-width="279.662"/>
<path d="M337.526 224.669V562.251L98.8201 323.545L70.8539 295.578L-167.852 56.8722H169.729H197.695H337.526V196.703V224.669Z" fill="#656565" stroke="#D6D6D6" stroke-width="279.662"/>
</g>
<g clip-path="url(#clip103_333_60643)">
<rect width="27.9662" height="27.9662" transform="matrix(-1 0 0 1 197.696 224.669)" fill="#D6D6D6"/>
<path d="M29.8986 224.669V-112.912L268.605 125.794L296.571 153.76L535.277 392.466H197.696H169.729H29.8986V252.635V224.669Z" fill="#9F9F9F" stroke="#D6D6D6" stroke-width="279.662"/>
<path d="M29.8986 252.635V590.217L268.605 351.511L296.571 323.545L535.277 84.8385H197.696H169.729H29.8986V224.669V252.635Z" fill="#474747" stroke="#D6D6D6" stroke-width="279.662"/>
<path d="M337.526 252.635V590.217L98.8201 351.511L70.8539 323.545L-167.852 84.8385H169.729H197.695H337.526V224.669V252.635Z" fill="#656565" stroke="#D6D6D6" stroke-width="279.662"/>
</g>
<g clip-path="url(#clip104_333_60643)">
<rect width="27.9662" height="27.9662" transform="matrix(-1 0 0 1 197.696 252.635)" fill="#D6D6D6"/>
<path d="M29.8986 252.635V-84.946L268.605 153.76L296.571 181.726L535.277 420.432H197.696H169.729H29.8986V280.602V252.635Z" fill="#9F9F9F" stroke="#D6D6D6" stroke-width="279.662"/>
<path d="M29.8986 280.602V618.183L268.605 379.477L296.571 351.511L535.277 112.805H197.696H169.729H29.8986V252.635V280.602Z" fill="#474747" stroke="#D6D6D6" stroke-width="279.662"/>
<path d="M337.526 280.602V618.183L98.8201 379.477L70.8539 351.511L-167.852 112.805H169.729H197.695H337.526V252.635V280.602Z" fill="#656565" stroke="#D6D6D6" stroke-width="279.662"/>
</g>
<g clip-path="url(#clip105_333_60643)">
<rect width="27.9662" height="27.9662" transform="matrix(-1 0 0 1 197.696 140.771)" fill="#D6D6D6"/>
<path d="M29.8986 140.771V-196.811L268.605 41.8954L296.571 69.8616L535.277 308.568H197.696H169.729H29.8986V168.737V140.771Z" fill="#9F9F9F" stroke="#D6D6D6" stroke-width="279.662"/>
<path d="M29.8986 168.737V506.318L268.605 267.612L296.571 239.646L535.277 0.93985H197.696H169.729H29.8986V140.771V168.737Z" fill="#474747" stroke="#D6D6D6" stroke-width="279.662"/>
<path d="M337.526 168.737V506.318L98.8201 267.612L70.8539 239.646L-167.852 0.93985H169.729H197.695H337.526V140.771V168.737Z" fill="#656565" stroke="#D6D6D6" stroke-width="279.662"/>
</g>
<g clip-path="url(#clip106_333_60643)">
<rect width="27.9662" height="27.9662" transform="matrix(-1 0 0 1 197.696 168.737)" fill="#D6D6D6"/>
<path d="M29.8986 168.737V-168.845L268.605 69.8615L296.571 97.8277L535.277 336.534H197.696H169.729H29.8986V196.703V168.737Z" fill="#9F9F9F" stroke="#D6D6D6" stroke-width="279.662"/>
<path d="M29.8986 196.703V534.285L268.605 295.578L296.571 267.612L535.277 28.9062H197.696H169.729H29.8986V168.737V196.703Z" fill="#474747" stroke="#D6D6D6" stroke-width="279.662"/>
</g>
<g clip-path="url(#clip107_333_60643)">
<rect width="27.9662" height="27.9662" transform="matrix(-1 0 0 1 169.729 196.703)" fill="#D6D6D6"/>
<path d="M1.93228 196.703V-140.878L240.638 97.8278L268.605 125.794L507.311 364.5H169.729H141.763H1.93228V224.669V196.703Z" fill="#9F9F9F" stroke="#D6D6D6" stroke-width="279.662"/>
<path d="M1.93228 224.669V562.251L240.638 323.545L268.605 295.578L507.311 56.8722H169.729H141.763H1.93228V196.703V224.669Z" fill="#474747" stroke="#D6D6D6" stroke-width="279.662"/>
<path d="M309.56 224.669V562.251L70.854 323.545L42.8879 295.578L-195.818 56.8722H141.763H169.729H309.56V196.703V224.669Z" fill="#656565" stroke="#D6D6D6" stroke-width="279.662"/>
</g>
<g clip-path="url(#clip108_333_60643)">
<rect width="27.9662" height="27.9662" transform="matrix(-1 0 0 1 169.729 224.669)" fill="#D6D6D6"/>
<path d="M1.93228 224.669V-112.912L240.638 125.794L268.605 153.76L507.311 392.466H169.729H141.763H1.93228V252.635V224.669Z" fill="#9F9F9F" stroke="#D6D6D6" stroke-width="279.662"/>
<path d="M1.93228 252.635V590.217L240.638 351.511L268.605 323.545L507.311 84.8385H169.729H141.763H1.93228V224.669V252.635Z" fill="#474747" stroke="#D6D6D6" stroke-width="279.662"/>
<path d="M309.56 252.635V590.217L70.854 351.511L42.8879 323.545L-195.818 84.8385H141.763H169.729H309.56V224.669V252.635Z" fill="#656565" stroke="#D6D6D6" stroke-width="279.662"/>
</g>
<g clip-path="url(#clip109_333_60643)">
<rect width="27.9662" height="27.9662" transform="matrix(-1 0 0 1 169.729 252.635)" fill="#D6D6D6"/>
<path d="M1.93228 252.635V-84.946L240.638 153.76L268.605 181.726L507.311 420.432H169.729H141.763H1.93228V280.602V252.635Z" fill="#9F9F9F" stroke="#D6D6D6" stroke-width="279.662"/>
<path d="M1.93228 280.602V618.183L240.638 379.477L268.605 351.511L507.311 112.805H169.729H141.763H1.93228V252.635V280.602Z" fill="#474747" stroke="#D6D6D6" stroke-width="279.662"/>
<path d="M309.56 280.602V618.183L70.854 379.477L42.8879 351.511L-195.818 112.805H141.763H169.729H309.56V252.635V280.602Z" fill="#656565" stroke="#D6D6D6" stroke-width="279.662"/>
</g>
<g clip-path="url(#clip110_333_60643)">
<rect width="27.9662" height="27.9662" transform="matrix(-1 0 0 1 169.729 140.771)" fill="#D6D6D6"/>
<path d="M1.93228 140.771V-196.811L240.638 41.8954L268.605 69.8616L507.311 308.568H169.729H141.763H1.93228V168.737V140.771Z" fill="#9F9F9F" stroke="#D6D6D6" stroke-width="279.662"/>
</g>
<g clip-path="url(#clip111_333_60643)">
<rect width="27.9662" height="27.9662" transform="matrix(-1 0 0 1 169.729 168.737)" fill="#D6D6D6"/>
<path d="M1.93228 168.737V-168.845L240.638 69.8615L268.605 97.8277L507.311 336.534H169.729H141.763H1.93228V196.703V168.737Z" fill="#9F9F9F" stroke="#D6D6D6" stroke-width="279.662"/>
<path d="M1.93228 196.703V534.285L240.638 295.578L268.605 267.612L507.311 28.9062H169.729H141.763H1.93228V168.737V196.703Z" fill="#474747" stroke="#D6D6D6" stroke-width="279.662"/>
<path d="M309.56 196.703V534.285L70.854 295.578L42.8879 267.612L-195.818 28.9062H141.763H169.729H309.56V168.737V196.703Z" fill="#656565" stroke="#D6D6D6" stroke-width="279.662"/>
<path d="M309.56 168.737V-168.845L70.854 69.8615L42.8879 97.8277L-195.818 336.534H141.763H169.729H309.56V196.703V168.737Z" fill="#838383" stroke="#D6D6D6" stroke-width="279.662"/>
</g>
<g clip-path="url(#clip112_333_60643)">
<rect width="27.9662" height="27.9662" transform="matrix(-1 0 0 1 337.526 196.703)" fill="#D6D6D6"/>
<path d="M169.729 196.703V-140.878L408.436 97.8278L436.402 125.794L675.108 364.5H337.526H309.56H169.729V224.669V196.703Z" fill="#9F9F9F" stroke="#D6D6D6" stroke-width="279.662"/>
<path d="M169.729 224.669V562.251L408.436 323.545L436.402 295.578L675.108 56.8722H337.526H309.56H169.729V196.703V224.669Z" fill="#474747" stroke="#D6D6D6" stroke-width="279.662"/>
<path d="M477.357 224.669V562.251L238.651 323.545L210.685 295.578L-28.0214 56.8722H309.56H337.526H477.357V196.703V224.669Z" fill="#656565" stroke="#D6D6D6" stroke-width="279.662"/>
</g>
<g clip-path="url(#clip113_333_60643)">
<rect width="27.9662" height="27.9662" transform="matrix(-1 0 0 1 337.526 224.669)" fill="#D6D6D6"/>
<path d="M169.729 224.669V-112.912L408.436 125.794L436.402 153.76L675.108 392.466H337.526H309.56H169.729V252.635V224.669Z" fill="#9F9F9F" stroke="#D6D6D6" stroke-width="279.662"/>
<path d="M169.729 252.635V590.217L408.436 351.511L436.402 323.545L675.108 84.8385H337.526H309.56H169.729V224.669V252.635Z" fill="#474747" stroke="#D6D6D6" stroke-width="279.662"/>
</g>
<g clip-path="url(#clip114_333_60643)">
<rect width="27.9662" height="27.9662" transform="matrix(-1 0 0 1 337.526 252.635)" fill="#D6D6D6"/>
<path d="M169.729 252.635V-84.946L408.436 153.76L436.402 181.726L675.108 420.432H337.526H309.56H169.729V280.602V252.635Z" fill="#9F9F9F" stroke="#D6D6D6" stroke-width="279.662"/>
<path d="M169.729 280.602V618.183L408.436 379.477L436.402 351.511L675.108 112.805H337.526H309.56H169.729V252.635V280.602Z" fill="#474747" stroke="#D6D6D6" stroke-width="279.662"/>
</g>
<g clip-path="url(#clip115_333_60643)">
<rect width="27.9662" height="27.9662" transform="matrix(-1 0 0 1 337.526 140.771)" fill="#D6D6D6"/>
<path d="M169.729 140.771V-196.811L408.436 41.8954L436.402 69.8616L675.108 308.568H337.526H309.56H169.729V168.737V140.771Z" fill="#9F9F9F" stroke="#D6D6D6" stroke-width="279.662"/>
<path d="M169.729 168.737V506.318L408.436 267.612L436.402 239.646L675.108 0.93985H337.526H309.56H169.729V140.771V168.737Z" fill="#474747" stroke="#D6D6D6" stroke-width="279.662"/>
<path d="M477.357 168.737V506.318L238.651 267.612L210.685 239.646L-28.0214 0.93985H309.56H337.526H477.357V140.771V168.737Z" fill="#656565" stroke="#D6D6D6" stroke-width="279.662"/>
</g>
<g clip-path="url(#clip116_333_60643)">
<rect width="27.9662" height="27.9662" transform="matrix(-1 0 0 1 337.526 168.737)" fill="#D6D6D6"/>
<path d="M169.729 168.737V-168.845L408.436 69.8615L436.402 97.8277L675.108 336.534H337.526H309.56H169.729V196.703V168.737Z" fill="#9F9F9F" stroke="#D6D6D6" stroke-width="279.662"/>
<path d="M169.729 196.703V534.285L408.436 295.578L436.402 267.612L675.108 28.9062H337.526H309.56H169.729V168.737V196.703Z" fill="#474747" stroke="#D6D6D6" stroke-width="279.662"/>
<path d="M477.357 196.703V534.285L238.651 295.578L210.685 267.612L-28.0214 28.9062H309.56H337.526H477.357V168.737V196.703Z" fill="#656565" stroke="#D6D6D6" stroke-width="279.662"/>
</g>
<g clip-path="url(#clip117_333_60643)">
<rect width="27.9662" height="27.9662" transform="matrix(-1 0 0 1 309.56 196.703)" fill="#D6D6D6"/>
<path d="M141.763 196.703V-140.878L380.469 97.8278L408.435 125.794L647.142 364.5H309.56H281.594H141.763V224.669V196.703Z" fill="#9F9F9F" stroke="#D6D6D6" stroke-width="279.662"/>
<path d="M141.763 224.669V562.251L380.469 323.545L408.435 295.578L647.142 56.8722H309.56H281.594H141.763V196.703V224.669Z" fill="#474747" stroke="#D6D6D6" stroke-width="279.662"/>
<path d="M449.391 224.669V562.251L210.685 323.545L182.719 295.578L-55.9875 56.8722H281.594H309.56H449.391V196.703V224.669Z" fill="#656565" stroke="#D6D6D6" stroke-width="279.662"/>
</g>
<g clip-path="url(#clip118_333_60643)">
<rect width="27.9662" height="27.9662" transform="matrix(-1 0 0 1 309.56 224.669)" fill="#D6D6D6"/>
<path d="M141.763 224.669V-112.912L380.469 125.794L408.435 153.76L647.142 392.466H309.56H281.594H141.763V252.635V224.669Z" fill="#9F9F9F" stroke="#D6D6D6" stroke-width="279.662"/>
<path d="M141.763 252.635V590.217L380.469 351.511L408.435 323.545L647.142 84.8385H309.56H281.594H141.763V224.669V252.635Z" fill="#474747" stroke="#D6D6D6" stroke-width="279.662"/>
<path d="M449.391 252.635V590.217L210.685 351.511L182.719 323.545L-55.9875 84.8385H281.594H309.56H449.391V224.669V252.635Z" fill="#656565" stroke="#D6D6D6" stroke-width="279.662"/>
</g>
<g clip-path="url(#clip119_333_60643)">
<rect width="27.9662" height="27.9662" transform="matrix(-1 0 0 1 309.56 252.635)" fill="#D6D6D6"/>
<path d="M141.763 252.635V-84.946L380.469 153.76L408.435 181.726L647.142 420.432H309.56H281.594H141.763V280.602V252.635Z" fill="#9F9F9F" stroke="#D6D6D6" stroke-width="279.662"/>
<path d="M141.763 280.602V618.183L380.469 379.477L408.435 351.511L647.142 112.805H309.56H281.594H141.763V252.635V280.602Z" fill="#474747" stroke="#D6D6D6" stroke-width="279.662"/>
<path d="M449.391 280.602V618.183L210.685 379.477L182.719 351.511L-55.9875 112.805H281.594H309.56H449.391V252.635V280.602Z" fill="#656565" stroke="#D6D6D6" stroke-width="279.662"/>
</g>
<g clip-path="url(#clip120_333_60643)">
<rect width="27.9662" height="27.9662" transform="matrix(-1 0 0 1 309.56 140.771)" fill="#D6D6D6"/>
<path d="M141.763 140.771V-196.811L380.469 41.8954L408.435 69.8616L647.142 308.568H309.56H281.594H141.763V168.737V140.771Z" fill="#9F9F9F" stroke="#D6D6D6" stroke-width="279.662"/>
</g>
<rect width="27.9662" height="27.9662" transform="matrix(-1 0 0 1 309.56 168.737)" fill="#D6D6D6"/>
<g clip-path="url(#clip121_333_60643)">
<rect width="27.9662" height="27.9662" transform="matrix(-1 0 0 1 281.594 196.703)" fill="#D6D6D6"/>
<path d="M113.797 196.703V-140.878L352.503 97.8278L380.469 125.794L619.175 364.5H281.594H253.628H113.797V224.669V196.703Z" fill="#9F9F9F" stroke="#D6D6D6" stroke-width="279.662"/>
<path d="M113.797 224.669V562.251L352.503 323.545L380.469 295.578L619.175 56.8722H281.594H253.628H113.797V196.703V224.669Z" fill="#474747" stroke="#D6D6D6" stroke-width="279.662"/>
<path d="M421.425 224.669V562.251L182.719 323.545L154.752 295.578L-83.9538 56.8722H253.628H281.594H421.425V196.703V224.669Z" fill="#656565" stroke="#D6D6D6" stroke-width="279.662"/>
</g>
<g clip-path="url(#clip122_333_60643)">
<rect width="27.9662" height="27.9662" transform="matrix(-1 0 0 1 281.594 224.669)" fill="#D6D6D6"/>
<path d="M113.797 224.669V-112.912L352.503 125.794L380.469 153.76L619.175 392.466H281.594H253.628H113.797V252.635V224.669Z" fill="#9F9F9F" stroke="#D6D6D6" stroke-width="279.662"/>
</g>
<g clip-path="url(#clip123_333_60643)">
<rect width="27.9662" height="27.9662" transform="matrix(-1 0 0 1 281.594 252.635)" fill="#D6D6D6"/>
<path d="M113.797 252.635V-84.946L352.503 153.76L380.469 181.726L619.175 420.432H281.594H253.628H113.797V280.602V252.635Z" fill="#9F9F9F" stroke="#D6D6D6" stroke-width="279.662"/>
<path d="M113.797 280.602V618.183L352.503 379.477L380.469 351.511L619.175 112.805H281.594H253.628H113.797V252.635V280.602Z" fill="#474747" stroke="#D6D6D6" stroke-width="279.662"/>
<path d="M421.425 280.602V618.183L182.719 379.477L154.752 351.511L-83.9538 112.805H253.628H281.594H421.425V252.635V280.602Z" fill="#656565" stroke="#D6D6D6" stroke-width="279.662"/>
</g>
<g clip-path="url(#clip124_333_60643)">
<rect width="27.9662" height="27.9662" transform="matrix(-1 0 0 1 281.594 140.771)" fill="#D6D6D6"/>
<path d="M113.797 140.771V-196.811L352.503 41.8954L380.469 69.8616L619.175 308.568H281.594H253.628H113.797V168.737V140.771Z" fill="#9F9F9F" stroke="#D6D6D6" stroke-width="279.662"/>
<path d="M113.797 168.737V506.318L352.503 267.612L380.469 239.646L619.175 0.93985H281.594H253.628H113.797V140.771V168.737Z" fill="#474747" stroke="#D6D6D6" stroke-width="279.662"/>
<path d="M421.425 168.737V506.318L182.719 267.612L154.752 239.646L-83.9538 0.93985H253.628H281.594H421.425V140.771V168.737Z" fill="#656565" stroke="#D6D6D6" stroke-width="279.662"/>
</g>
<g clip-path="url(#clip125_333_60643)">
<rect width="27.9662" height="27.9662" transform="matrix(-1 0 0 1 281.594 168.737)" fill="#D6D6D6"/>
<path d="M113.797 168.737V-168.845L352.503 69.8615L380.469 97.8277L619.175 336.534H281.594H253.628H113.797V196.703V168.737Z" fill="#9F9F9F" stroke="#D6D6D6" stroke-width="279.662"/>
<path d="M113.797 196.703V534.285L352.503 295.578L380.469 267.612L619.175 28.9062H281.594H253.628H113.797V168.737V196.703Z" fill="#474747" stroke="#D6D6D6" stroke-width="279.662"/>
</g>
<g style="mix-blend-mode:screen">
<rect x="-54" y="0.939941" width="391.526" height="279.662" fill="url(#paint1_linear_333_60643)"/>
</g>
</g>
<defs>
<linearGradient id="paint0_linear_333_60643" x1="0" y1="0" x2="433.246" y2="94.0301" gradientUnits="userSpaceOnUse">
<stop stop-color="#FA3329"/>
<stop offset="1" stop-color="#F7453C"/>
</linearGradient>
<linearGradient id="paint1_linear_333_60643" x1="-54" y1="0.939941" x2="377.794" y2="94.2383" gradientUnits="userSpaceOnUse">
<stop stop-color="#FA3329"/>
<stop offset="1" stop-color="#F7453C"/>
</linearGradient>
<clipPath id="clip0_333_60643">
<rect width="393" height="279.467" fill="white" transform="translate(-54 0.939941)"/>
</clipPath>
<clipPath id="clip1_333_60643">
<rect width="27.9662" height="27.9662" fill="white" transform="matrix(-1 0 0 -1 337.526 140.771)"/>
</clipPath>
<clipPath id="clip2_333_60643">
<rect width="27.9662" height="27.9662" fill="white" transform="matrix(1 0 0 -1 29.8984 280.602)"/>
</clipPath>
<clipPath id="clip3_333_60643">
<rect width="27.9662" height="27.9662" fill="white" transform="matrix(-1 0 0 -1 337.526 112.805)"/>
</clipPath>
<clipPath id="clip4_333_60643">
<rect width="27.9662" height="27.9662" fill="white" transform="matrix(1 0 0 -1 29.8984 252.635)"/>
</clipPath>
<clipPath id="clip5_333_60643">
<rect width="27.9662" height="27.9662" fill="white" transform="matrix(-1 0 0 -1 337.526 84.8384)"/>
</clipPath>
<clipPath id="clip6_333_60643">
<rect width="27.9662" height="27.9662" fill="white" transform="matrix(1 0 0 -1 29.8984 224.669)"/>
</clipPath>
<clipPath id="clip7_333_60643">
<rect width="27.9662" height="27.9662" fill="white" transform="matrix(-1 0 0 -1 337.526 56.8723)"/>
</clipPath>
<clipPath id="clip8_333_60643">
<rect width="27.9662" height="27.9662" fill="white" transform="matrix(1 0 0 -1 29.8984 196.703)"/>
</clipPath>
<clipPath id="clip9_333_60643">
<rect width="27.9662" height="27.9662" fill="white" transform="matrix(-1 0 0 -1 337.526 28.906)"/>
</clipPath>
<clipPath id="clip10_333_60643">
<rect width="27.9662" height="27.9662" fill="white" transform="matrix(1 0 0 -1 29.8984 168.737)"/>
</clipPath>
<clipPath id="clip11_333_60643">
<rect width="27.9662" height="27.9662" fill="white" transform="translate(-26.0339 0.939941)"/>
</clipPath>
<clipPath id="clip12_333_60643">
<rect width="27.9662" height="27.9662" fill="white" transform="matrix(-1 0 0 -1 309.56 140.771)"/>
</clipPath>
<clipPath id="clip13_333_60643">
<rect width="27.9662" height="27.9662" fill="white" transform="matrix(1 0 0 -1 57.8647 280.602)"/>
</clipPath>
<clipPath id="clip14_333_60643">
<rect width="27.9662" height="27.9662" fill="white" transform="translate(-26.0339 28.906)"/>
</clipPath>
<clipPath id="clip15_333_60643">
<rect width="27.9662" height="27.9662" fill="white" transform="matrix(-1 0 0 -1 309.56 112.805)"/>
</clipPath>
<clipPath id="clip16_333_60643">
<rect width="27.9662" height="27.9662" fill="white" transform="matrix(1 0 0 -1 57.8647 252.635)"/>
</clipPath>
<clipPath id="clip17_333_60643">
<rect width="27.9662" height="27.9662" fill="white" transform="translate(-26.0339 56.8723)"/>
</clipPath>
<clipPath id="clip18_333_60643">
<rect width="27.9662" height="27.9662" fill="white" transform="matrix(-1 0 0 -1 309.56 84.8384)"/>
</clipPath>
<clipPath id="clip19_333_60643">
<rect width="27.9662" height="27.9662" fill="white" transform="matrix(1 0 0 -1 57.8647 224.669)"/>
</clipPath>
<clipPath id="clip20_333_60643">
<rect width="27.9662" height="27.9662" fill="white" transform="translate(-26.0339 84.8384)"/>
</clipPath>
<clipPath id="clip21_333_60643">
<rect width="27.9662" height="27.9662" fill="white" transform="matrix(-1 0 0 -1 309.56 56.8723)"/>
</clipPath>
<clipPath id="clip22_333_60643">
<rect width="27.9662" height="27.9662" fill="white" transform="matrix(1 0 0 -1 57.8647 196.703)"/>
</clipPath>
<clipPath id="clip23_333_60643">
<rect width="27.9662" height="27.9662" fill="white" transform="translate(-26.0339 112.805)"/>
</clipPath>
<clipPath id="clip24_333_60643">
<rect width="27.9662" height="27.9662" fill="white" transform="matrix(-1 0 0 -1 309.56 28.906)"/>
</clipPath>
<clipPath id="clip25_333_60643">
<rect width="27.9662" height="27.9662" fill="white" transform="matrix(1 0 0 -1 57.8647 168.737)"/>
</clipPath>
<clipPath id="clip26_333_60643">
<rect width="27.9662" height="27.9662" fill="white" transform="translate(1.93237 0.939941)"/>
</clipPath>
<clipPath id="clip27_333_60643">
<rect width="27.9662" height="27.9662" fill="white" transform="matrix(-1 0 0 -1 281.594 140.771)"/>
</clipPath>
<clipPath id="clip28_333_60643">
<rect width="27.9662" height="27.9662" fill="white" transform="matrix(1 0 0 -1 85.8308 280.602)"/>
</clipPath>
<clipPath id="clip29_333_60643">
<rect width="27.9662" height="27.9662" fill="white" transform="translate(1.93237 28.906)"/>
</clipPath>
<clipPath id="clip30_333_60643">
<rect width="27.9662" height="27.9662" fill="white" transform="matrix(-1 0 0 -1 281.594 112.805)"/>
</clipPath>
<clipPath id="clip31_333_60643">
<rect width="27.9662" height="27.9662" fill="white" transform="matrix(1 0 0 -1 85.8308 252.635)"/>
</clipPath>
<clipPath id="clip32_333_60643">
<rect width="27.9662" height="27.9662" fill="white" transform="translate(1.93237 56.8723)"/>
</clipPath>
<clipPath id="clip33_333_60643">
<rect width="27.9662" height="27.9662" fill="white" transform="matrix(-1 0 0 -1 281.594 84.8384)"/>
</clipPath>
<clipPath id="clip34_333_60643">
<rect width="27.9662" height="27.9662" fill="white" transform="matrix(1 0 0 -1 85.8308 224.669)"/>
</clipPath>
<clipPath id="clip35_333_60643">
<rect width="27.9662" height="27.9662" fill="white" transform="translate(1.93237 84.8384)"/>
</clipPath>
<clipPath id="clip36_333_60643">
<rect width="27.9662" height="27.9662" fill="white" transform="matrix(-1 0 0 -1 281.594 56.8723)"/>
</clipPath>
<clipPath id="clip37_333_60643">
<rect width="27.9662" height="27.9662" fill="white" transform="matrix(1 0 0 -1 85.8308 196.703)"/>
</clipPath>
<clipPath id="clip38_333_60643">
<rect width="27.9662" height="27.9662" fill="white" transform="translate(1.93237 112.805)"/>
</clipPath>
<clipPath id="clip39_333_60643">
<rect width="27.9662" height="27.9662" fill="white" transform="matrix(-1 0 0 -1 281.594 28.906)"/>
</clipPath>
<clipPath id="clip40_333_60643">
<rect width="27.9662" height="27.9662" fill="white" transform="matrix(1 0 0 -1 85.8308 168.737)"/>
</clipPath>
<clipPath id="clip41_333_60643">
<rect width="27.9662" height="27.9662" fill="white" transform="translate(29.8984 0.939941)"/>
</clipPath>
<clipPath id="clip42_333_60643">
<rect width="27.9662" height="27.9662" fill="white" transform="matrix(-1 0 0 -1 253.628 140.771)"/>
</clipPath>
<clipPath id="clip43_333_60643">
<rect width="27.9662" height="27.9662" fill="white" transform="matrix(1 0 0 -1 113.797 280.602)"/>
</clipPath>
<clipPath id="clip44_333_60643">
<rect width="27.9662" height="27.9662" fill="white" transform="translate(29.8984 28.906)"/>
</clipPath>
<clipPath id="clip45_333_60643">
<rect width="27.9662" height="27.9662" fill="white" transform="matrix(-1 0 0 -1 253.628 112.805)"/>
</clipPath>
<clipPath id="clip46_333_60643">
<rect width="27.9662" height="27.9662" fill="white" transform="matrix(1 0 0 -1 113.797 252.635)"/>
</clipPath>
<clipPath id="clip47_333_60643">
<rect width="27.9662" height="27.9662" fill="white" transform="translate(29.8984 56.8723)"/>
</clipPath>
<clipPath id="clip48_333_60643">
<rect width="27.9662" height="27.9662" fill="white" transform="matrix(-1 0 0 -1 253.628 84.8384)"/>
</clipPath>
<clipPath id="clip49_333_60643">
<rect width="27.9662" height="27.9662" fill="white" transform="matrix(1 0 0 -1 113.797 224.669)"/>
</clipPath>
<clipPath id="clip50_333_60643">
<rect width="27.9662" height="27.9662" fill="white" transform="translate(29.8984 84.8384)"/>
</clipPath>
<clipPath id="clip51_333_60643">
<rect width="27.9662" height="27.9662" fill="white" transform="matrix(1 0 0 -1 113.797 196.703)"/>
</clipPath>
<clipPath id="clip52_333_60643">
<rect width="27.9662" height="27.9662" fill="white" transform="translate(29.8984 112.805)"/>
</clipPath>
<clipPath id="clip53_333_60643">
<rect width="27.9662" height="27.9662" fill="white" transform="matrix(-1 0 0 -1 253.628 28.906)"/>
</clipPath>
<clipPath id="clip54_333_60643">
<rect width="27.9662" height="27.9662" fill="white" transform="matrix(1 0 0 -1 113.797 168.737)"/>
</clipPath>
<clipPath id="clip55_333_60643">
<rect width="27.9662" height="27.9662" fill="white" transform="translate(57.8647 0.939941)"/>
</clipPath>
<clipPath id="clip56_333_60643">
<rect width="27.9662" height="27.9662" fill="white" transform="matrix(-1 0 0 -1 225.662 140.771)"/>
</clipPath>
<clipPath id="clip57_333_60643">
<rect width="27.9662" height="27.9662" fill="white" transform="matrix(-1 0 0 -1 225.662 112.805)"/>
</clipPath>
<clipPath id="clip58_333_60643">
<rect width="27.9662" height="27.9662" fill="white" transform="translate(57.8647 56.8723)"/>
</clipPath>
<clipPath id="clip59_333_60643">
<rect width="27.9662" height="27.9662" fill="white" transform="matrix(-1 0 0 -1 225.662 84.8384)"/>
</clipPath>
<clipPath id="clip60_333_60643">
<rect width="27.9662" height="27.9662" fill="white" transform="translate(57.8647 84.8384)"/>
</clipPath>
<clipPath id="clip61_333_60643">
<rect width="27.9662" height="27.9662" fill="white" transform="matrix(-1 0 0 -1 225.662 56.8723)"/>
</clipPath>
<clipPath id="clip62_333_60643">
<rect width="27.9662" height="27.9662" fill="white" transform="translate(57.8647 112.805)"/>
</clipPath>
<clipPath id="clip63_333_60643">
<rect width="27.9662" height="27.9662" fill="white" transform="matrix(-1 0 0 -1 225.662 28.906)"/>
</clipPath>
<clipPath id="clip64_333_60643">
<rect width="27.9662" height="27.9662" fill="white" transform="translate(85.8308 0.939941)"/>
</clipPath>
<clipPath id="clip65_333_60643">
<rect width="27.9662" height="27.9662" fill="white" transform="matrix(-1 0 0 -1 197.696 140.771)"/>
</clipPath>
<clipPath id="clip66_333_60643">
<rect width="27.9662" height="27.9662" fill="white" transform="matrix(1 0 0 -1 -26.0339 280.602)"/>
</clipPath>
<clipPath id="clip67_333_60643">
<rect width="27.9662" height="27.9662" fill="white" transform="translate(85.8308 28.906)"/>
</clipPath>
<clipPath id="clip68_333_60643">
<rect width="27.9662" height="27.9662" fill="white" transform="matrix(-1 0 0 -1 197.696 112.805)"/>
</clipPath>
<clipPath id="clip69_333_60643">
<rect width="27.9662" height="27.9662" fill="white" transform="matrix(1 0 0 -1 -26.0339 252.635)"/>
</clipPath>
<clipPath id="clip70_333_60643">
<rect width="27.9662" height="27.9662" fill="white" transform="translate(85.8308 56.8723)"/>
</clipPath>
<clipPath id="clip71_333_60643">
<rect width="27.9662" height="27.9662" fill="white" transform="matrix(-1 0 0 -1 197.696 84.8384)"/>
</clipPath>
<clipPath id="clip72_333_60643">
<rect width="27.9662" height="27.9662" fill="white" transform="matrix(1 0 0 -1 -26.0339 224.669)"/>
</clipPath>
<clipPath id="clip73_333_60643">
<rect width="27.9662" height="27.9662" fill="white" transform="translate(85.8308 84.8384)"/>
</clipPath>
<clipPath id="clip74_333_60643">
<rect width="27.9662" height="27.9662" fill="white" transform="matrix(-1 0 0 -1 197.696 56.8723)"/>
</clipPath>
<clipPath id="clip75_333_60643">
<rect width="27.9662" height="27.9662" fill="white" transform="matrix(1 0 0 -1 -26.0339 196.703)"/>
</clipPath>
<clipPath id="clip76_333_60643">
<rect width="27.9662" height="27.9662" fill="white" transform="translate(85.8308 112.805)"/>
</clipPath>
<clipPath id="clip77_333_60643">
<rect width="27.9662" height="27.9662" fill="white" transform="matrix(-1 0 0 -1 197.696 28.906)"/>
</clipPath>
<clipPath id="clip78_333_60643">
<rect width="27.9662" height="27.9662" fill="white" transform="matrix(1 0 0 -1 -26.0339 168.737)"/>
</clipPath>
<clipPath id="clip79_333_60643">
<rect width="27.9662" height="27.9662" fill="white" transform="translate(113.797 0.939941)"/>
</clipPath>
<clipPath id="clip80_333_60643">
<rect width="27.9662" height="27.9662" fill="white" transform="matrix(-1 0 0 -1 169.729 140.771)"/>
</clipPath>
<clipPath id="clip81_333_60643">
<rect width="27.9662" height="27.9662" fill="white" transform="matrix(1 0 0 -1 1.93237 280.602)"/>
</clipPath>
<clipPath id="clip82_333_60643">
<rect width="27.9662" height="27.9662" fill="white" transform="translate(113.797 28.906)"/>
</clipPath>
<clipPath id="clip83_333_60643">
<rect width="27.9662" height="27.9662" fill="white" transform="matrix(-1 0 0 -1 169.729 112.805)"/>
</clipPath>
<clipPath id="clip84_333_60643">
<rect width="27.9662" height="27.9662" fill="white" transform="matrix(1 0 0 -1 1.93237 252.635)"/>
</clipPath>
<clipPath id="clip85_333_60643">
<rect width="27.9662" height="27.9662" fill="white" transform="translate(113.797 56.8723)"/>
</clipPath>
<clipPath id="clip86_333_60643">
<rect width="27.9662" height="27.9662" fill="white" transform="matrix(-1 0 0 -1 169.729 84.8384)"/>
</clipPath>
<clipPath id="clip87_333_60643">
<rect width="27.9662" height="27.9662" fill="white" transform="translate(113.797 84.8384)"/>
</clipPath>
<clipPath id="clip88_333_60643">
<rect width="27.9662" height="27.9662" fill="white" transform="matrix(-1 0 0 -1 169.729 56.8723)"/>
</clipPath>
<clipPath id="clip89_333_60643">
<rect width="27.9662" height="27.9662" fill="white" transform="matrix(1 0 0 -1 1.93237 196.703)"/>
</clipPath>
<clipPath id="clip90_333_60643">
<rect width="27.9662" height="27.9662" fill="white" transform="translate(113.797 112.805)"/>
</clipPath>
<clipPath id="clip91_333_60643">
<rect width="27.9662" height="27.9662" fill="white" transform="matrix(-1 0 0 -1 169.729 28.906)"/>
</clipPath>
<clipPath id="clip92_333_60643">
<rect width="27.9662" height="27.9662" fill="white" transform="matrix(1 0 0 -1 1.93237 168.737)"/>
</clipPath>
<clipPath id="clip93_333_60643">
<rect width="27.9662" height="27.9662" fill="white" transform="matrix(-1 0 0 1 253.628 196.703)"/>
</clipPath>
<clipPath id="clip94_333_60643">
<rect width="27.9662" height="27.9662" fill="white" transform="matrix(-1 0 0 1 253.628 224.669)"/>
</clipPath>
<clipPath id="clip95_333_60643">
<rect width="27.9662" height="27.9662" fill="white" transform="matrix(-1 0 0 1 253.628 140.771)"/>
</clipPath>
<clipPath id="clip96_333_60643">
<rect width="27.9662" height="27.9662" fill="white" transform="matrix(-1 0 0 1 253.628 168.737)"/>
</clipPath>
<clipPath id="clip97_333_60643">
<rect width="27.9662" height="27.9662" fill="white" transform="matrix(-1 0 0 1 225.662 196.703)"/>
</clipPath>
<clipPath id="clip98_333_60643">
<rect width="27.9662" height="27.9662" fill="white" transform="matrix(-1 0 0 1 225.662 224.669)"/>
</clipPath>
<clipPath id="clip99_333_60643">
<rect width="27.9662" height="27.9662" fill="white" transform="matrix(-1 0 0 1 225.662 252.635)"/>
</clipPath>
<clipPath id="clip100_333_60643">
<rect width="27.9662" height="27.9662" fill="white" transform="matrix(-1 0 0 1 225.662 140.771)"/>
</clipPath>
<clipPath id="clip101_333_60643">
<rect width="27.9662" height="27.9662" fill="white" transform="matrix(-1 0 0 1 225.662 168.737)"/>
</clipPath>
<clipPath id="clip102_333_60643">
<rect width="27.9662" height="27.9662" fill="white" transform="matrix(-1 0 0 1 197.696 196.703)"/>
</clipPath>
<clipPath id="clip103_333_60643">
<rect width="27.9662" height="27.9662" fill="white" transform="matrix(-1 0 0 1 197.696 224.669)"/>
</clipPath>
<clipPath id="clip104_333_60643">
<rect width="27.9662" height="27.9662" fill="white" transform="matrix(-1 0 0 1 197.696 252.635)"/>
</clipPath>
<clipPath id="clip105_333_60643">
<rect width="27.9662" height="27.9662" fill="white" transform="matrix(-1 0 0 1 197.696 140.771)"/>
</clipPath>
<clipPath id="clip106_333_60643">
<rect width="27.9662" height="27.9662" fill="white" transform="matrix(-1 0 0 1 197.696 168.737)"/>
</clipPath>
<clipPath id="clip107_333_60643">
<rect width="27.9662" height="27.9662" fill="white" transform="matrix(-1 0 0 1 169.729 196.703)"/>
</clipPath>
<clipPath id="clip108_333_60643">
<rect width="27.9662" height="27.9662" fill="white" transform="matrix(-1 0 0 1 169.729 224.669)"/>
</clipPath>
<clipPath id="clip109_333_60643">
<rect width="27.9662" height="27.9662" fill="white" transform="matrix(-1 0 0 1 169.729 252.635)"/>
</clipPath>
<clipPath id="clip110_333_60643">
<rect width="27.9662" height="27.9662" fill="white" transform="matrix(-1 0 0 1 169.729 140.771)"/>
</clipPath>
<clipPath id="clip111_333_60643">
<rect width="27.9662" height="27.9662" fill="white" transform="matrix(-1 0 0 1 169.729 168.737)"/>
</clipPath>
<clipPath id="clip112_333_60643">
<rect width="27.9662" height="27.9662" fill="white" transform="matrix(-1 0 0 1 337.526 196.703)"/>
</clipPath>
<clipPath id="clip113_333_60643">
<rect width="27.9662" height="27.9662" fill="white" transform="matrix(-1 0 0 1 337.526 224.669)"/>
</clipPath>
<clipPath id="clip114_333_60643">
<rect width="27.9662" height="27.9662" fill="white" transform="matrix(-1 0 0 1 337.526 252.635)"/>
</clipPath>
<clipPath id="clip115_333_60643">
<rect width="27.9662" height="27.9662" fill="white" transform="matrix(-1 0 0 1 337.526 140.771)"/>
</clipPath>
<clipPath id="clip116_333_60643">
<rect width="27.9662" height="27.9662" fill="white" transform="matrix(-1 0 0 1 337.526 168.737)"/>
</clipPath>
<clipPath id="clip117_333_60643">
<rect width="27.9662" height="27.9662" fill="white" transform="matrix(-1 0 0 1 309.56 196.703)"/>
</clipPath>
<clipPath id="clip118_333_60643">
<rect width="27.9662" height="27.9662" fill="white" transform="matrix(-1 0 0 1 309.56 224.669)"/>
</clipPath>
<clipPath id="clip119_333_60643">
<rect width="27.9662" height="27.9662" fill="white" transform="matrix(-1 0 0 1 309.56 252.635)"/>
</clipPath>
<clipPath id="clip120_333_60643">
<rect width="27.9662" height="27.9662" fill="white" transform="matrix(-1 0 0 1 309.56 140.771)"/>
</clipPath>
<clipPath id="clip121_333_60643">
<rect width="27.9662" height="27.9662" fill="white" transform="matrix(-1 0 0 1 281.594 196.703)"/>
</clipPath>
<clipPath id="clip122_333_60643">
<rect width="27.9662" height="27.9662" fill="white" transform="matrix(-1 0 0 1 281.594 224.669)"/>
</clipPath>
<clipPath id="clip123_333_60643">
<rect width="27.9662" height="27.9662" fill="white" transform="matrix(-1 0 0 1 281.594 252.635)"/>
</clipPath>
<clipPath id="clip124_333_60643">
<rect width="27.9662" height="27.9662" fill="white" transform="matrix(-1 0 0 1 281.594 140.771)"/>
</clipPath>
<clipPath id="clip125_333_60643">
<rect width="27.9662" height="27.9662" fill="white" transform="matrix(-1 0 0 1 281.594 168.737)"/>
</clipPath>
</defs>
</svg>
