<svg width="593" height="756" viewBox="0 0 593 756" fill="none" xmlns="http://www.w3.org/2000/svg">
<g opacity="0.17" clip-path="url(#clip0_82_10213)">
<g clip-path="url(#clip1_82_10213)">
<rect width="1104.39" height="785.346" transform="translate(0 -9.9043)" fill="url(#paint0_linear_82_10213)"/>
<rect width="78.5894" height="78.5894" transform="translate(0 -9.9043)" fill="#D6D6D6"/>
<g clip-path="url(#clip2_82_10213)">
<rect width="78.5894" height="78.5894" transform="matrix(1 0 0 -1 235.768 775.99)" fill="#D6D6D6"/>
<path d="M-42.0873 975.256L-712.89 304.453H235.768H314.358H707.305V697.4V775.99V1724.65L36.5021 1053.85L-42.0873 975.256Z" fill="#9F9F9F" stroke="#D6D6D6" stroke-width="785.894"/>
<path d="M-42.0873 498.134L-712.89 1168.94H235.768H314.358H707.305V775.99V697.4V-251.258L36.5021 419.545L-42.0873 498.134Z" fill="#474747" stroke="#D6D6D6" stroke-width="785.894"/>
<path d="M592.213 498.134L1263.02 1168.94H314.358H235.768H-157.179V775.99V697.4V-251.258L513.624 419.545L592.213 498.134Z" fill="#656565" stroke="#D6D6D6" stroke-width="785.894"/>
</g>
<g clip-path="url(#clip3_82_10213)">
<rect width="78.5894" height="78.5894" transform="translate(0 68.6851)" fill="#D6D6D6"/>
<path d="M-277.856 -130.581L-948.658 540.222H0H78.5894H471.537V147.274V68.6851V-879.973L-199.266 -209.171L-277.856 -130.581Z" fill="#9F9F9F" stroke="#D6D6D6" stroke-width="785.894"/>
<path d="M-277.856 346.541L-948.658 -324.262H0H78.5894H471.537V68.685V147.274V1095.93L-199.266 425.13L-277.856 346.541Z" fill="#474747" stroke="#D6D6D6" stroke-width="785.894"/>
<path d="M356.445 346.541L1027.25 -324.262H78.5894H-7.62939e-06H-392.947V68.685V147.274V1095.93L277.856 425.13L356.445 346.541Z" fill="#656565" stroke="#D6D6D6" stroke-width="785.894"/>
</g>
<g clip-path="url(#clip4_82_10213)">
<rect width="78.5894" height="78.5894" transform="matrix(1 0 0 -1 235.768 697.4)" fill="#D6D6D6"/>
<path d="M-42.0873 896.667L-712.89 225.864H235.768H314.358H707.305V618.811V697.4V1646.06L36.5021 975.256L-42.0873 896.667Z" fill="#9F9F9F" stroke="#D6D6D6" stroke-width="785.894"/>
<path d="M-42.0873 419.545L-712.89 1090.35H235.768H314.358H707.305V697.4V618.811V-329.847L36.5021 340.955L-42.0873 419.545Z" fill="#474747" stroke="#D6D6D6" stroke-width="785.894"/>
<path d="M592.213 419.545L1263.02 1090.35H314.358H235.768H-157.179V697.4V618.811V-329.847L513.624 340.955L592.213 419.545Z" fill="#656565" stroke="#D6D6D6" stroke-width="785.894"/>
</g>
<g clip-path="url(#clip5_82_10213)">
<rect width="78.5894" height="78.5894" transform="translate(0 147.274)" fill="#D6D6D6"/>
<path d="M-277.856 -51.9917L-948.658 618.811H0H78.5894H471.537V225.864V147.274V-801.384L-199.266 -130.581L-277.856 -51.9917Z" fill="#9F9F9F" stroke="#D6D6D6" stroke-width="785.894"/>
<path d="M-277.856 425.13L-948.658 -245.673H0H78.5894H471.537V147.274V225.864V1174.52L-199.266 503.719L-277.856 425.13Z" fill="#474747" stroke="#D6D6D6" stroke-width="785.894"/>
<path d="M356.445 425.13L1027.25 -245.673H78.5894H-7.62939e-06H-392.947V147.274V225.864V1174.52L277.856 503.719L356.445 425.13Z" fill="#656565" stroke="#D6D6D6" stroke-width="785.894"/>
</g>
<g clip-path="url(#clip6_82_10213)">
<rect width="78.5894" height="78.5894" transform="matrix(1 0 0 -1 235.768 618.811)" fill="#D6D6D6"/>
<path d="M-42.0873 818.077L-712.89 147.275H235.768H314.358H707.305V540.222V618.811V1567.47L36.5021 896.667L-42.0873 818.077Z" fill="#9F9F9F" stroke="#D6D6D6" stroke-width="785.894"/>
<path d="M-42.0873 340.956L-712.89 1011.76H235.768H314.358H707.305V618.811V540.222V-408.437L36.5021 262.366L-42.0873 340.956Z" fill="#474747" stroke="#D6D6D6" stroke-width="785.894"/>
<path d="M592.213 340.956L1263.02 1011.76H314.358H235.768H-157.179V618.811V540.222V-408.437L513.624 262.366L592.213 340.956Z" fill="#656565" stroke="#D6D6D6" stroke-width="785.894"/>
</g>
<g clip-path="url(#clip7_82_10213)">
<rect width="78.5894" height="78.5894" transform="translate(0 225.864)" fill="#D6D6D6"/>
<path d="M-277.856 26.5976L-948.658 697.4H0H78.5894H471.537V304.453V225.864V-722.794L-199.266 -51.9918L-277.856 26.5976Z" fill="#9F9F9F" stroke="#D6D6D6" stroke-width="785.894"/>
<path d="M-277.856 503.72L-948.658 -167.083H0H78.5894H471.537V225.864V304.454V1253.11L-199.266 582.309L-277.856 503.72Z" fill="#474747" stroke="#D6D6D6" stroke-width="785.894"/>
<path d="M356.445 503.72L1027.25 -167.083H78.5894H-7.62939e-06H-392.947V225.864V304.454V1253.11L277.856 582.309L356.445 503.72Z" fill="#656565" stroke="#D6D6D6" stroke-width="785.894"/>
</g>
<g clip-path="url(#clip8_82_10213)">
<rect width="78.5894" height="78.5894" transform="matrix(1 0 0 -1 235.768 540.222)" fill="#D6D6D6"/>
<path d="M-42.0873 739.488L-712.89 68.6852H235.768H314.358H707.305V461.632V540.222V1488.88L36.5021 818.077L-42.0873 739.488Z" fill="#9F9F9F" stroke="#D6D6D6" stroke-width="785.894"/>
<path d="M-42.0873 262.366L-712.89 933.169H235.768H314.358H707.305V540.222V461.632V-487.026L36.5021 183.777L-42.0873 262.366Z" fill="#474747" stroke="#D6D6D6" stroke-width="785.894"/>
<path d="M592.213 262.366L1263.02 933.169H314.358H235.768H-157.179V540.222V461.632V-487.026L513.624 183.777L592.213 262.366Z" fill="#656565" stroke="#D6D6D6" stroke-width="785.894"/>
</g>
<g clip-path="url(#clip9_82_10213)">
<rect width="78.5894" height="78.5894" transform="translate(0 304.454)" fill="#D6D6D6"/>
<path d="M-277.856 105.187L-948.658 775.99H0H78.5894H471.537V383.043V304.454V-644.205L-199.266 26.5981L-277.856 105.187Z" fill="#9F9F9F" stroke="#D6D6D6" stroke-width="785.894"/>
</g>
<g clip-path="url(#clip10_82_10213)">
<rect width="78.5894" height="78.5894" transform="matrix(1 0 0 -1 235.768 461.632)" fill="#D6D6D6"/>
<path d="M-42.0873 660.898L-712.89 -9.90421H235.768H314.358H707.305V383.043V461.632V1410.29L36.5021 739.488L-42.0873 660.898Z" fill="#9F9F9F" stroke="#D6D6D6" stroke-width="785.894"/>
</g>
<g clip-path="url(#clip11_82_10213)">
<rect width="78.5894" height="78.5894" transform="translate(78.5894 -9.9043)" fill="#D6D6D6"/>
<path d="M-199.266 -209.17L-870.069 461.632H78.5894H157.179H550.126V68.6851V-9.9043V-958.563L-120.677 -287.76L-199.266 -209.17Z" fill="#9F9F9F" stroke="#D6D6D6" stroke-width="785.894"/>
</g>
<g clip-path="url(#clip12_82_10213)">
<rect width="78.5894" height="78.5894" transform="matrix(1 0 0 -1 314.358 775.99)" fill="#D6D6D6"/>
<path d="M36.5021 975.256L-634.301 304.453H314.358H392.947H785.894V697.4V775.99V1724.65L115.092 1053.85L36.5021 975.256Z" fill="#9F9F9F" stroke="#D6D6D6" stroke-width="785.894"/>
</g>
<g clip-path="url(#clip13_82_10213)">
<rect width="78.5894" height="78.5894" transform="translate(78.5894 68.6851)" fill="#D6D6D6"/>
<path d="M-199.266 -130.581L-870.069 540.222H78.5894H157.179H550.126V147.274V68.6851V-879.973L-120.677 -209.171L-199.266 -130.581Z" fill="#9F9F9F" stroke="#D6D6D6" stroke-width="785.894"/>
<path d="M-199.266 346.541L-870.069 -324.262H78.5894H157.179H550.126V68.685V147.274V1095.93L-120.677 425.13L-199.266 346.541Z" fill="#474747" stroke="#D6D6D6" stroke-width="785.894"/>
<path d="M435.034 346.541L1105.84 -324.262H157.179H78.5894H-314.358V68.685V147.274V1095.93L356.445 425.13L435.034 346.541Z" fill="#656565" stroke="#D6D6D6" stroke-width="785.894"/>
</g>
<g clip-path="url(#clip14_82_10213)">
<rect width="78.5894" height="78.5894" transform="matrix(1 0 0 -1 314.358 697.4)" fill="#D6D6D6"/>
<path d="M36.5021 896.667L-634.301 225.864H314.358H392.947H785.894V618.811V697.4V1646.06L115.092 975.256L36.5021 896.667Z" fill="#9F9F9F" stroke="#D6D6D6" stroke-width="785.894"/>
<path d="M36.5021 419.545L-634.301 1090.35H314.358H392.947H785.894V697.4V618.811V-329.847L115.092 340.955L36.5021 419.545Z" fill="#474747" stroke="#D6D6D6" stroke-width="785.894"/>
<path d="M670.803 419.545L1341.61 1090.35H392.947H314.358H-78.5894V697.4V618.811V-329.847L592.213 340.955L670.803 419.545Z" fill="#656565" stroke="#D6D6D6" stroke-width="785.894"/>
</g>
<g clip-path="url(#clip15_82_10213)">
<rect width="78.5894" height="78.5894" transform="translate(78.5894 147.274)" fill="#D6D6D6"/>
<path d="M-199.266 -51.9917L-870.069 618.811H78.5894H157.179H550.126V225.864V147.274V-801.384L-120.677 -130.581L-199.266 -51.9917Z" fill="#9F9F9F" stroke="#D6D6D6" stroke-width="785.894"/>
<path d="M-199.266 425.13L-870.069 -245.673H78.5894H157.179H550.126V147.274V225.864V1174.52L-120.677 503.719L-199.266 425.13Z" fill="#474747" stroke="#D6D6D6" stroke-width="785.894"/>
<path d="M435.034 425.13L1105.84 -245.673H157.179H78.5894H-314.358V147.274V225.864V1174.52L356.445 503.719L435.034 425.13Z" fill="#656565" stroke="#D6D6D6" stroke-width="785.894"/>
</g>
<g clip-path="url(#clip16_82_10213)">
<rect width="78.5894" height="78.5894" transform="matrix(1 0 0 -1 314.358 618.811)" fill="#D6D6D6"/>
<path d="M36.5021 818.077L-634.301 147.275H314.358H392.947H785.894V540.222V618.811V1567.47L115.092 896.667L36.5021 818.077Z" fill="#9F9F9F" stroke="#D6D6D6" stroke-width="785.894"/>
<path d="M36.5021 340.956L-634.301 1011.76H314.358H392.947H785.894V618.811V540.222V-408.437L115.092 262.366L36.5021 340.956Z" fill="#474747" stroke="#D6D6D6" stroke-width="785.894"/>
<path d="M670.803 340.956L1341.61 1011.76H392.947H314.358H-78.5894V618.811V540.222V-408.437L592.213 262.366L670.803 340.956Z" fill="#656565" stroke="#D6D6D6" stroke-width="785.894"/>
</g>
<g clip-path="url(#clip17_82_10213)">
<rect width="78.5894" height="78.5894" transform="translate(78.5894 225.864)" fill="#D6D6D6"/>
<path d="M-199.266 26.5976L-870.069 697.4H78.5894H157.179H550.126V304.453V225.864V-722.794L-120.677 -51.9918L-199.266 26.5976Z" fill="#9F9F9F" stroke="#D6D6D6" stroke-width="785.894"/>
<path d="M-199.266 503.72L-870.069 -167.083H78.5894H157.179H550.126V225.864V304.454V1253.11L-120.677 582.309L-199.266 503.72Z" fill="#474747" stroke="#D6D6D6" stroke-width="785.894"/>
</g>
<g clip-path="url(#clip18_82_10213)">
<rect width="78.5894" height="78.5894" transform="matrix(1 0 0 -1 314.358 540.222)" fill="#D6D6D6"/>
<path d="M36.5021 739.488L-634.301 68.6852H314.358H392.947H785.894V461.632V540.222V1488.88L115.092 818.077L36.5021 739.488Z" fill="#9F9F9F" stroke="#D6D6D6" stroke-width="785.894"/>
<path d="M36.5021 262.366L-634.301 933.169H314.358H392.947H785.894V540.222V461.632V-487.026L115.092 183.777L36.5021 262.366Z" fill="#474747" stroke="#D6D6D6" stroke-width="785.894"/>
</g>
<g clip-path="url(#clip19_82_10213)">
<rect width="78.5894" height="78.5894" transform="translate(78.5894 304.454)" fill="#D6D6D6"/>
<path d="M-199.266 105.187L-870.069 775.99H78.5894H157.179H550.126V383.043V304.454V-644.205L-120.677 26.5981L-199.266 105.187Z" fill="#9F9F9F" stroke="#D6D6D6" stroke-width="785.894"/>
<path d="M-199.266 582.309L-870.069 -88.4936H78.5894H157.179H550.126V304.454V383.043V1331.7L-120.677 660.899L-199.266 582.309Z" fill="#474747" stroke="#D6D6D6" stroke-width="785.894"/>
<path d="M435.034 582.309L1105.84 -88.4936H157.179H78.5894H-314.358V304.454V383.043V1331.7L356.445 660.899L435.034 582.309Z" fill="#656565" stroke="#D6D6D6" stroke-width="785.894"/>
</g>
<g clip-path="url(#clip20_82_10213)">
<rect width="78.5894" height="78.5894" transform="matrix(1 0 0 -1 314.358 461.632)" fill="#D6D6D6"/>
<path d="M36.5021 660.898L-634.301 -9.90421H314.358H392.947H785.894V383.043V461.632V1410.29L115.092 739.488L36.5021 660.898Z" fill="#9F9F9F" stroke="#D6D6D6" stroke-width="785.894"/>
<path d="M36.5021 183.777L-634.301 854.579H314.358H392.947H785.894V461.632V383.043V-565.615L115.092 105.187L36.5021 183.777Z" fill="#474747" stroke="#D6D6D6" stroke-width="785.894"/>
<path d="M670.803 183.777L1341.61 854.579H392.947H314.358H-78.5894V461.632V383.043V-565.615L592.213 105.187L670.803 183.777Z" fill="#656565" stroke="#D6D6D6" stroke-width="785.894"/>
</g>
<g clip-path="url(#clip21_82_10213)">
<rect width="78.5894" height="78.5894" transform="translate(157.179 -9.9043)" fill="#D6D6D6"/>
<path d="M-120.677 -209.17L-791.479 461.632H157.179H235.768H628.715V68.6851V-9.9043V-958.563L-42.0873 -287.76L-120.677 -209.17Z" fill="#9F9F9F" stroke="#D6D6D6" stroke-width="785.894"/>
<path d="M-120.677 267.951L-791.479 -402.851H157.179H235.768H628.715V-9.90437V68.6851V1017.34L-42.0873 346.541L-120.677 267.951Z" fill="#474747" stroke="#D6D6D6" stroke-width="785.894"/>
<path d="M513.624 267.951L1184.43 -402.851H235.768H157.179H-235.768V-9.90437V68.6851V1017.34L435.034 346.541L513.624 267.951Z" fill="#656565" stroke="#D6D6D6" stroke-width="785.894"/>
</g>
<g clip-path="url(#clip22_82_10213)">
<rect width="78.5894" height="78.5894" transform="matrix(1 0 0 -1 392.947 775.99)" fill="#D6D6D6"/>
<path d="M115.092 975.256L-555.711 304.453H392.947H471.537H864.484V697.4V775.99V1724.65L193.681 1053.85L115.092 975.256Z" fill="#9F9F9F" stroke="#D6D6D6" stroke-width="785.894"/>
<path d="M115.092 498.134L-555.711 1168.94H392.947H471.537H864.484V775.99V697.4V-251.258L193.681 419.545L115.092 498.134Z" fill="#474747" stroke="#D6D6D6" stroke-width="785.894"/>
<path d="M749.392 498.134L1420.19 1168.94H471.537H392.947H0V775.99V697.4V-251.258L670.803 419.545L749.392 498.134Z" fill="#656565" stroke="#D6D6D6" stroke-width="785.894"/>
</g>
<g clip-path="url(#clip23_82_10213)">
<rect width="78.5894" height="78.5894" transform="translate(157.179 68.6851)" fill="#D6D6D6"/>
<path d="M-120.677 -130.581L-791.479 540.222H157.179H235.768H628.715V147.274V68.6851V-879.973L-42.0873 -209.171L-120.677 -130.581Z" fill="#9F9F9F" stroke="#D6D6D6" stroke-width="785.894"/>
<path d="M-120.677 346.541L-791.479 -324.262H157.179H235.768H628.715V68.685V147.274V1095.93L-42.0873 425.13L-120.677 346.541Z" fill="#474747" stroke="#D6D6D6" stroke-width="785.894"/>
<path d="M513.624 346.541L1184.43 -324.262H235.768H157.179H-235.768V68.685V147.274V1095.93L435.034 425.13L513.624 346.541Z" fill="#656565" stroke="#D6D6D6" stroke-width="785.894"/>
</g>
<g clip-path="url(#clip24_82_10213)">
<rect width="78.5894" height="78.5894" transform="matrix(1 0 0 -1 392.947 697.4)" fill="#D6D6D6"/>
<path d="M115.092 896.667L-555.711 225.864H392.947H471.537H864.484V618.811V697.4V1646.06L193.681 975.256L115.092 896.667Z" fill="#9F9F9F" stroke="#D6D6D6" stroke-width="785.894"/>
<path d="M115.092 419.545L-555.711 1090.35H392.947H471.537H864.484V697.4V618.811V-329.847L193.681 340.955L115.092 419.545Z" fill="#474747" stroke="#D6D6D6" stroke-width="785.894"/>
<path d="M749.392 419.545L1420.19 1090.35H471.537H392.947H0V697.4V618.811V-329.847L670.803 340.955L749.392 419.545Z" fill="#656565" stroke="#D6D6D6" stroke-width="785.894"/>
</g>
<g clip-path="url(#clip25_82_10213)">
<rect width="78.5894" height="78.5894" transform="translate(157.179 147.274)" fill="#D6D6D6"/>
<path d="M-120.677 -51.9917L-791.479 618.811H157.179H235.768H628.715V225.864V147.274V-801.384L-42.0873 -130.581L-120.677 -51.9917Z" fill="#9F9F9F" stroke="#D6D6D6" stroke-width="785.894"/>
<path d="M-120.677 425.13L-791.479 -245.673H157.179H235.768H628.715V147.274V225.864V1174.52L-42.0873 503.719L-120.677 425.13Z" fill="#474747" stroke="#D6D6D6" stroke-width="785.894"/>
<path d="M513.624 425.13L1184.43 -245.673H235.768H157.179H-235.768V147.274V225.864V1174.52L435.034 503.719L513.624 425.13Z" fill="#656565" stroke="#D6D6D6" stroke-width="785.894"/>
</g>
<g clip-path="url(#clip26_82_10213)">
<rect width="78.5894" height="78.5894" transform="matrix(1 0 0 -1 392.947 618.811)" fill="#D6D6D6"/>
<path d="M115.092 818.077L-555.711 147.275H392.947H471.537H864.484V540.222V618.811V1567.47L193.681 896.667L115.092 818.077Z" fill="#9F9F9F" stroke="#D6D6D6" stroke-width="785.894"/>
<path d="M115.092 340.956L-555.711 1011.76H392.947H471.537H864.484V618.811V540.222V-408.437L193.681 262.366L115.092 340.956Z" fill="#474747" stroke="#D6D6D6" stroke-width="785.894"/>
<path d="M749.392 340.956L1420.19 1011.76H471.537H392.947H0V618.811V540.222V-408.437L670.803 262.366L749.392 340.956Z" fill="#656565" stroke="#D6D6D6" stroke-width="785.894"/>
</g>
<g clip-path="url(#clip27_82_10213)">
<rect width="78.5894" height="78.5894" transform="translate(157.179 225.864)" fill="#D6D6D6"/>
<path d="M-120.677 26.5976L-791.479 697.4H157.179H235.768H628.715V304.453V225.864V-722.794L-42.0873 -51.9918L-120.677 26.5976Z" fill="#9F9F9F" stroke="#D6D6D6" stroke-width="785.894"/>
<path d="M-120.677 503.72L-791.479 -167.083H157.179H235.768H628.715V225.864V304.454V1253.11L-42.0873 582.309L-120.677 503.72Z" fill="#474747" stroke="#D6D6D6" stroke-width="785.894"/>
<path d="M513.624 503.72L1184.43 -167.083H235.768H157.179H-235.768V225.864V304.454V1253.11L435.034 582.309L513.624 503.72Z" fill="#656565" stroke="#D6D6D6" stroke-width="785.894"/>
</g>
<g clip-path="url(#clip28_82_10213)">
<rect width="78.5894" height="78.5894" transform="matrix(1 0 0 -1 392.947 540.222)" fill="#D6D6D6"/>
<path d="M115.092 739.488L-555.711 68.6852H392.947H471.537H864.484V461.632V540.222V1488.88L193.681 818.077L115.092 739.488Z" fill="#9F9F9F" stroke="#D6D6D6" stroke-width="785.894"/>
<path d="M115.092 262.366L-555.711 933.169H392.947H471.537H864.484V540.222V461.632V-487.026L193.681 183.777L115.092 262.366Z" fill="#474747" stroke="#D6D6D6" stroke-width="785.894"/>
<path d="M749.392 262.366L1420.19 933.169H471.537H392.947H0V540.222V461.632V-487.026L670.803 183.777L749.392 262.366Z" fill="#656565" stroke="#D6D6D6" stroke-width="785.894"/>
</g>
<g clip-path="url(#clip29_82_10213)">
<rect width="78.5894" height="78.5894" transform="translate(157.179 304.454)" fill="#D6D6D6"/>
<path d="M-120.677 105.187L-791.479 775.99H157.179H235.768H628.715V383.043V304.454V-644.205L-42.0873 26.5981L-120.677 105.187Z" fill="#9F9F9F" stroke="#D6D6D6" stroke-width="785.894"/>
<path d="M-120.677 582.309L-791.479 -88.4936H157.179H235.768H628.715V304.454V383.043V1331.7L-42.0873 660.899L-120.677 582.309Z" fill="#474747" stroke="#D6D6D6" stroke-width="785.894"/>
</g>
<g clip-path="url(#clip30_82_10213)">
<rect width="78.5894" height="78.5894" transform="matrix(1 0 0 -1 392.947 461.632)" fill="#D6D6D6"/>
<path d="M115.092 660.898L-555.711 -9.90421H392.947H471.537H864.484V383.043V461.632V1410.29L193.681 739.488L115.092 660.898Z" fill="#9F9F9F" stroke="#D6D6D6" stroke-width="785.894"/>
<path d="M115.092 183.777L-555.711 854.579H392.947H471.537H864.484V461.632V383.043V-565.615L193.681 105.187L115.092 183.777Z" fill="#474747" stroke="#D6D6D6" stroke-width="785.894"/>
</g>
<g clip-path="url(#clip31_82_10213)">
<rect width="78.5894" height="78.5894" transform="translate(235.768 -9.9043)" fill="#D6D6D6"/>
<path d="M-42.0873 -209.17L-712.89 461.632H235.768H314.358H707.305V68.6851V-9.9043V-958.563L36.5021 -287.76L-42.0873 -209.17Z" fill="#9F9F9F" stroke="#D6D6D6" stroke-width="785.894"/>
<path d="M-42.0873 267.951L-712.89 -402.851H235.768H314.358H707.305V-9.90437V68.6851V1017.34L36.5021 346.541L-42.0873 267.951Z" fill="#474747" stroke="#D6D6D6" stroke-width="785.894"/>
<path d="M592.213 267.951L1263.02 -402.851H314.358H235.768H-157.179V-9.90437V68.6851V1017.34L513.624 346.541L592.213 267.951Z" fill="#656565" stroke="#D6D6D6" stroke-width="785.894"/>
</g>
<g clip-path="url(#clip32_82_10213)">
<rect width="78.5894" height="78.5894" transform="matrix(1 0 0 -1 471.537 775.99)" fill="#D6D6D6"/>
<path d="M193.681 975.256L-477.122 304.453H471.537H550.126H943.073V697.4V775.99V1724.65L272.27 1053.85L193.681 975.256Z" fill="#9F9F9F" stroke="#D6D6D6" stroke-width="785.894"/>
<path d="M193.681 498.134L-477.122 1168.94H471.537H550.126H943.073V775.99V697.4V-251.258L272.27 419.545L193.681 498.134Z" fill="#474747" stroke="#D6D6D6" stroke-width="785.894"/>
<path d="M827.982 498.134L1498.78 1168.94H550.126H471.537H78.5894V775.99V697.4V-251.258L749.392 419.545L827.982 498.134Z" fill="#656565" stroke="#D6D6D6" stroke-width="785.894"/>
</g>
<g clip-path="url(#clip33_82_10213)">
<rect width="78.5894" height="78.5894" transform="translate(235.768 68.6851)" fill="#D6D6D6"/>
<path d="M-42.0873 -130.581L-712.89 540.222H235.768H314.358H707.305V147.274V68.6851V-879.973L36.5021 -209.171L-42.0873 -130.581Z" fill="#9F9F9F" stroke="#D6D6D6" stroke-width="785.894"/>
<path d="M-42.0873 346.541L-712.89 -324.262H235.768H314.358H707.305V68.685V147.274V1095.93L36.5021 425.13L-42.0873 346.541Z" fill="#474747" stroke="#D6D6D6" stroke-width="785.894"/>
</g>
<g clip-path="url(#clip34_82_10213)">
<rect width="78.5894" height="78.5894" transform="matrix(1 0 0 -1 471.537 697.4)" fill="#D6D6D6"/>
<path d="M193.681 896.667L-477.122 225.864H471.537H550.126H943.073V618.811V697.4V1646.06L272.27 975.256L193.681 896.667Z" fill="#9F9F9F" stroke="#D6D6D6" stroke-width="785.894"/>
<path d="M193.681 419.545L-477.122 1090.35H471.537H550.126H943.073V697.4V618.811V-329.847L272.27 340.955L193.681 419.545Z" fill="#474747" stroke="#D6D6D6" stroke-width="785.894"/>
</g>
<g clip-path="url(#clip35_82_10213)">
<rect width="78.5894" height="78.5894" transform="translate(235.768 147.274)" fill="#D6D6D6"/>
<path d="M-42.0873 -51.9917L-712.89 618.811H235.768H314.358H707.305V225.864V147.274V-801.384L36.5021 -130.581L-42.0873 -51.9917Z" fill="#9F9F9F" stroke="#D6D6D6" stroke-width="785.894"/>
<path d="M-42.0873 425.13L-712.89 -245.673H235.768H314.358H707.305V147.274V225.864V1174.52L36.5021 503.719L-42.0873 425.13Z" fill="#474747" stroke="#D6D6D6" stroke-width="785.894"/>
<path d="M592.213 425.13L1263.02 -245.673H314.358H235.768H-157.179V147.274V225.864V1174.52L513.624 503.719L592.213 425.13Z" fill="#656565" stroke="#D6D6D6" stroke-width="785.894"/>
</g>
<g clip-path="url(#clip36_82_10213)">
<rect width="78.5894" height="78.5894" transform="matrix(1 0 0 -1 471.537 618.811)" fill="#D6D6D6"/>
<path d="M193.681 818.077L-477.122 147.275H471.537H550.126H943.073V540.222V618.811V1567.47L272.27 896.667L193.681 818.077Z" fill="#9F9F9F" stroke="#D6D6D6" stroke-width="785.894"/>
<path d="M193.681 340.956L-477.122 1011.76H471.537H550.126H943.073V618.811V540.222V-408.437L272.27 262.366L193.681 340.956Z" fill="#474747" stroke="#D6D6D6" stroke-width="785.894"/>
<path d="M827.982 340.956L1498.78 1011.76H550.126H471.537H78.5894V618.811V540.222V-408.437L749.392 262.366L827.982 340.956Z" fill="#656565" stroke="#D6D6D6" stroke-width="785.894"/>
</g>
<g clip-path="url(#clip37_82_10213)">
<rect width="78.5894" height="78.5894" transform="translate(235.768 225.864)" fill="#D6D6D6"/>
<path d="M-42.0873 26.5976L-712.89 697.4H235.768H314.358H707.305V304.453V225.864V-722.794L36.5021 -51.9918L-42.0873 26.5976Z" fill="#9F9F9F" stroke="#D6D6D6" stroke-width="785.894"/>
</g>
<g clip-path="url(#clip38_82_10213)">
<rect width="78.5894" height="78.5894" transform="matrix(1 0 0 -1 471.537 540.222)" fill="#D6D6D6"/>
<path d="M193.681 739.488L-477.122 68.6852H471.537H550.126H943.073V461.632V540.222V1488.88L272.27 818.077L193.681 739.488Z" fill="#9F9F9F" stroke="#D6D6D6" stroke-width="785.894"/>
</g>
<g clip-path="url(#clip39_82_10213)">
<rect width="78.5894" height="78.5894" transform="translate(235.768 304.454)" fill="#D6D6D6"/>
<path d="M-42.0873 105.187L-712.89 775.99H235.768H314.358H707.305V383.043V304.454V-644.205L36.5021 26.5981L-42.0873 105.187Z" fill="#9F9F9F" stroke="#D6D6D6" stroke-width="785.894"/>
<path d="M-42.0873 582.309L-712.89 -88.4936H235.768H314.358H707.305V304.454V383.043V1331.7L36.5021 660.899L-42.0873 582.309Z" fill="#474747" stroke="#D6D6D6" stroke-width="785.894"/>
<path d="M592.213 582.309L1263.02 -88.4936H314.358H235.768H-157.179V304.454V383.043V1331.7L513.624 660.899L592.213 582.309Z" fill="#656565" stroke="#D6D6D6" stroke-width="785.894"/>
<path d="M592.213 105.187L1263.02 775.99H314.358H235.768H-157.179V383.043V304.454V-644.205L513.624 26.5981L592.213 105.187Z" fill="#838383" stroke="#D6D6D6" stroke-width="785.894"/>
</g>
<g clip-path="url(#clip40_82_10213)">
<rect width="78.5894" height="78.5894" transform="matrix(1 0 0 -1 471.537 461.632)" fill="#D6D6D6"/>
<path d="M193.681 660.898L-477.122 -9.90421H471.537H550.126H943.073V383.043V461.632V1410.29L272.27 739.488L193.681 660.898Z" fill="#9F9F9F" stroke="#D6D6D6" stroke-width="785.894"/>
<path d="M193.681 183.777L-477.122 854.579H471.537H550.126H943.073V461.632V383.043V-565.615L272.27 105.187L193.681 183.777Z" fill="#474747" stroke="#D6D6D6" stroke-width="785.894"/>
<path d="M827.982 183.777L1498.78 854.579H550.126H471.537H78.5894V461.632V383.043V-565.615L749.392 105.187L827.982 183.777Z" fill="#656565" stroke="#D6D6D6" stroke-width="785.894"/>
<path d="M827.982 660.898L1498.78 -9.90421H550.126H471.537H78.5894V383.043V461.632V1410.29L749.392 739.488L827.982 660.898Z" fill="#838383" stroke="#D6D6D6" stroke-width="785.894"/>
</g>
<g clip-path="url(#clip41_82_10213)">
<rect width="78.5894" height="78.5894" transform="translate(314.358 -9.9043)" fill="#D6D6D6"/>
<path d="M36.5021 -209.17L-634.301 461.632H314.358H392.947H785.894V68.6851V-9.9043V-958.563L115.092 -287.76L36.5021 -209.17Z" fill="#9F9F9F" stroke="#D6D6D6" stroke-width="785.894"/>
<path d="M36.5021 267.951L-634.301 -402.851H314.358H392.947H785.894V-9.90437V68.6851V1017.34L115.092 346.541L36.5021 267.951Z" fill="#474747" stroke="#D6D6D6" stroke-width="785.894"/>
<path d="M670.803 267.951L1341.61 -402.851H392.947H314.358H-78.5894V-9.90437V68.6851V1017.34L592.213 346.541L670.803 267.951Z" fill="#656565" stroke="#D6D6D6" stroke-width="785.894"/>
</g>
<g clip-path="url(#clip42_82_10213)">
<rect width="78.5894" height="78.5894" transform="matrix(1 0 0 -1 0 775.99)" fill="#D6D6D6"/>
<path d="M-277.856 975.256L-948.658 304.453H0H78.5894H471.537V697.4V775.99V1724.65L-199.266 1053.85L-277.856 975.256Z" fill="#9F9F9F" stroke="#D6D6D6" stroke-width="785.894"/>
<path d="M-277.856 498.134L-948.658 1168.94H0H78.5894H471.537V775.99V697.4V-251.258L-199.266 419.545L-277.856 498.134Z" fill="#474747" stroke="#D6D6D6" stroke-width="785.894"/>
<path d="M356.445 498.134L1027.25 1168.94H78.5894H-7.62939e-06H-392.947V775.99V697.4V-251.258L277.856 419.545L356.445 498.134Z" fill="#656565" stroke="#D6D6D6" stroke-width="785.894"/>
</g>
<rect width="78.5894" height="78.5894" transform="translate(314.358 68.6851)" fill="#D6D6D6"/>
<g clip-path="url(#clip43_82_10213)">
<rect width="78.5894" height="78.5894" transform="matrix(1 0 0 -1 0 697.4)" fill="#D6D6D6"/>
<path d="M-277.856 896.667L-948.658 225.864H0H78.5894H471.537V618.811V697.4V1646.06L-199.266 975.256L-277.856 896.667Z" fill="#9F9F9F" stroke="#D6D6D6" stroke-width="785.894"/>
<path d="M-277.856 419.545L-948.658 1090.35H0H78.5894H471.537V697.4V618.811V-329.847L-199.266 340.955L-277.856 419.545Z" fill="#474747" stroke="#D6D6D6" stroke-width="785.894"/>
</g>
<g clip-path="url(#clip44_82_10213)">
<rect width="78.5894" height="78.5894" transform="translate(314.358 147.274)" fill="#D6D6D6"/>
<path d="M36.5021 -51.9917L-634.301 618.811H314.358H392.947H785.894V225.864V147.274V-801.384L115.092 -130.581L36.5021 -51.9917Z" fill="#9F9F9F" stroke="#D6D6D6" stroke-width="785.894"/>
<path d="M36.5021 425.13L-634.301 -245.673H314.358H392.947H785.894V147.274V225.864V1174.52L115.092 503.719L36.5021 425.13Z" fill="#474747" stroke="#D6D6D6" stroke-width="785.894"/>
</g>
<g clip-path="url(#clip45_82_10213)">
<rect width="78.5894" height="78.5894" transform="matrix(1 0 0 -1 0 618.811)" fill="#D6D6D6"/>
<path d="M-277.856 818.077L-948.658 147.275H0H78.5894H471.537V540.222V618.811V1567.47L-199.266 896.667L-277.856 818.077Z" fill="#9F9F9F" stroke="#D6D6D6" stroke-width="785.894"/>
<path d="M-277.856 340.956L-948.658 1011.76H0H78.5894H471.537V618.811V540.222V-408.437L-199.266 262.366L-277.856 340.956Z" fill="#474747" stroke="#D6D6D6" stroke-width="785.894"/>
</g>
<g clip-path="url(#clip46_82_10213)">
<rect width="78.5894" height="78.5894" transform="translate(314.358 225.864)" fill="#D6D6D6"/>
<path d="M36.5021 26.5976L-634.301 697.4H314.358H392.947H785.894V304.453V225.864V-722.794L115.092 -51.9918L36.5021 26.5976Z" fill="#9F9F9F" stroke="#D6D6D6" stroke-width="785.894"/>
<path d="M36.5021 503.72L-634.301 -167.083H314.358H392.947H785.894V225.864V304.454V1253.11L115.092 582.309L36.5021 503.72Z" fill="#474747" stroke="#D6D6D6" stroke-width="785.894"/>
<path d="M670.803 503.72L1341.61 -167.083H392.947H314.358H-78.5894V225.864V304.454V1253.11L592.213 582.309L670.803 503.72Z" fill="#656565" stroke="#D6D6D6" stroke-width="785.894"/>
</g>
<g clip-path="url(#clip47_82_10213)">
<rect width="78.5894" height="78.5894" transform="matrix(1 0 0 -1 0 540.222)" fill="#D6D6D6"/>
<path d="M-277.856 739.488L-948.658 68.6852H0H78.5894H471.537V461.632V540.222V1488.88L-199.266 818.077L-277.856 739.488Z" fill="#9F9F9F" stroke="#D6D6D6" stroke-width="785.894"/>
<path d="M-277.856 262.366L-948.658 933.169H0H78.5894H471.537V540.222V461.632V-487.026L-199.266 183.777L-277.856 262.366Z" fill="#474747" stroke="#D6D6D6" stroke-width="785.894"/>
<path d="M356.445 262.366L1027.25 933.169H78.5894H-7.62939e-06H-392.947V540.222V461.632V-487.026L277.856 183.777L356.445 262.366Z" fill="#656565" stroke="#D6D6D6" stroke-width="785.894"/>
</g>
<g clip-path="url(#clip48_82_10213)">
<rect width="78.5894" height="78.5894" transform="translate(314.358 304.454)" fill="#D6D6D6"/>
<path d="M36.5021 105.187L-634.301 775.99H314.358H392.947H785.894V383.043V304.454V-644.205L115.092 26.5981L36.5021 105.187Z" fill="#9F9F9F" stroke="#D6D6D6" stroke-width="785.894"/>
<path d="M36.5021 582.309L-634.301 -88.4936H314.358H392.947H785.894V304.454V383.043V1331.7L115.092 660.899L36.5021 582.309Z" fill="#474747" stroke="#D6D6D6" stroke-width="785.894"/>
<path d="M670.803 582.309L1341.61 -88.4936H392.947H314.358H-78.5894V304.454V383.043V1331.7L592.213 660.899L670.803 582.309Z" fill="#656565" stroke="#D6D6D6" stroke-width="785.894"/>
</g>
<g clip-path="url(#clip49_82_10213)">
<rect width="78.5894" height="78.5894" transform="matrix(1 0 0 -1 0 461.632)" fill="#D6D6D6"/>
<path d="M-277.856 660.898L-948.658 -9.90421H0H78.5894H471.537V383.043V461.632V1410.29L-199.266 739.488L-277.856 660.898Z" fill="#9F9F9F" stroke="#D6D6D6" stroke-width="785.894"/>
<path d="M-277.856 183.777L-948.658 854.579H0H78.5894H471.537V461.632V383.043V-565.615L-199.266 105.187L-277.856 183.777Z" fill="#474747" stroke="#D6D6D6" stroke-width="785.894"/>
<path d="M356.445 183.777L1027.25 854.579H78.5894H-7.62939e-06H-392.947V461.632V383.043V-565.615L277.856 105.187L356.445 183.777Z" fill="#656565" stroke="#D6D6D6" stroke-width="785.894"/>
</g>
<g clip-path="url(#clip50_82_10213)">
<rect width="78.5894" height="78.5894" transform="translate(392.947 -9.9043)" fill="#D6D6D6"/>
<path d="M115.092 -209.17L-555.711 461.632H392.947H471.537H864.484V68.6851V-9.9043V-958.563L193.681 -287.76L115.092 -209.17Z" fill="#9F9F9F" stroke="#D6D6D6" stroke-width="785.894"/>
<path d="M115.092 267.951L-555.711 -402.851H392.947H471.537H864.484V-9.90437V68.6851V1017.34L193.681 346.541L115.092 267.951Z" fill="#474747" stroke="#D6D6D6" stroke-width="785.894"/>
<path d="M749.392 267.951L1420.19 -402.851H471.537H392.947H0V-9.90437V68.6851V1017.34L670.803 346.541L749.392 267.951Z" fill="#656565" stroke="#D6D6D6" stroke-width="785.894"/>
</g>
<g clip-path="url(#clip51_82_10213)">
<rect width="78.5894" height="78.5894" transform="matrix(1 0 0 -1 78.5894 775.99)" fill="#D6D6D6"/>
<path d="M-199.266 975.256L-870.069 304.453H78.5894H157.179H550.126V697.4V775.99V1724.65L-120.677 1053.85L-199.266 975.256Z" fill="#9F9F9F" stroke="#D6D6D6" stroke-width="785.894"/>
<path d="M-199.266 498.134L-870.069 1168.94H78.5894H157.179H550.126V775.99V697.4V-251.258L-120.677 419.545L-199.266 498.134Z" fill="#474747" stroke="#D6D6D6" stroke-width="785.894"/>
<path d="M435.034 498.134L1105.84 1168.94H157.179H78.5894H-314.358V775.99V697.4V-251.258L356.445 419.545L435.034 498.134Z" fill="#656565" stroke="#D6D6D6" stroke-width="785.894"/>
</g>
<g clip-path="url(#clip52_82_10213)">
<rect width="78.5894" height="78.5894" transform="translate(392.947 68.6851)" fill="#D6D6D6"/>
<path d="M115.092 -130.581L-555.711 540.222H392.947H471.537H864.484V147.274V68.6851V-879.973L193.681 -209.171L115.092 -130.581Z" fill="#9F9F9F" stroke="#D6D6D6" stroke-width="785.894"/>
<path d="M115.092 346.541L-555.711 -324.262H392.947H471.537H864.484V68.685V147.274V1095.93L193.681 425.13L115.092 346.541Z" fill="#474747" stroke="#D6D6D6" stroke-width="785.894"/>
<path d="M749.392 346.541L1420.19 -324.262H471.537H392.947H0V68.685V147.274V1095.93L670.803 425.13L749.392 346.541Z" fill="#656565" stroke="#D6D6D6" stroke-width="785.894"/>
</g>
<g clip-path="url(#clip53_82_10213)">
<rect width="78.5894" height="78.5894" transform="matrix(1 0 0 -1 78.5894 697.4)" fill="#D6D6D6"/>
<path d="M-199.266 896.667L-870.069 225.864H78.5894H157.179H550.126V618.811V697.4V1646.06L-120.677 975.256L-199.266 896.667Z" fill="#9F9F9F" stroke="#D6D6D6" stroke-width="785.894"/>
<path d="M-199.266 419.545L-870.069 1090.35H78.5894H157.179H550.126V697.4V618.811V-329.847L-120.677 340.955L-199.266 419.545Z" fill="#474747" stroke="#D6D6D6" stroke-width="785.894"/>
<path d="M435.034 419.545L1105.84 1090.35H157.179H78.5894H-314.358V697.4V618.811V-329.847L356.445 340.955L435.034 419.545Z" fill="#656565" stroke="#D6D6D6" stroke-width="785.894"/>
</g>
<g clip-path="url(#clip54_82_10213)">
<rect width="78.5894" height="78.5894" transform="translate(392.947 147.274)" fill="#D6D6D6"/>
<path d="M115.092 -51.9917L-555.711 618.811H392.947H471.537H864.484V225.864V147.274V-801.384L193.681 -130.581L115.092 -51.9917Z" fill="#9F9F9F" stroke="#D6D6D6" stroke-width="785.894"/>
<path d="M115.092 425.13L-555.711 -245.673H392.947H471.537H864.484V147.274V225.864V1174.52L193.681 503.719L115.092 425.13Z" fill="#474747" stroke="#D6D6D6" stroke-width="785.894"/>
<path d="M749.392 425.13L1420.19 -245.673H471.537H392.947H0V147.274V225.864V1174.52L670.803 503.719L749.392 425.13Z" fill="#656565" stroke="#D6D6D6" stroke-width="785.894"/>
</g>
<g clip-path="url(#clip55_82_10213)">
<rect width="78.5894" height="78.5894" transform="matrix(1 0 0 -1 78.5894 618.811)" fill="#D6D6D6"/>
<path d="M-199.266 818.077L-870.069 147.275H78.5894H157.179H550.126V540.222V618.811V1567.47L-120.677 896.667L-199.266 818.077Z" fill="#9F9F9F" stroke="#D6D6D6" stroke-width="785.894"/>
<path d="M-199.266 340.956L-870.069 1011.76H78.5894H157.179H550.126V618.811V540.222V-408.437L-120.677 262.366L-199.266 340.956Z" fill="#474747" stroke="#D6D6D6" stroke-width="785.894"/>
<path d="M435.034 340.956L1105.84 1011.76H157.179H78.5894H-314.358V618.811V540.222V-408.437L356.445 262.366L435.034 340.956Z" fill="#656565" stroke="#D6D6D6" stroke-width="785.894"/>
</g>
<g clip-path="url(#clip56_82_10213)">
<rect width="78.5894" height="78.5894" transform="translate(392.947 225.864)" fill="#D6D6D6"/>
<path d="M115.092 26.5976L-555.711 697.4H392.947H471.537H864.484V304.453V225.864V-722.794L193.681 -51.9918L115.092 26.5976Z" fill="#9F9F9F" stroke="#D6D6D6" stroke-width="785.894"/>
</g>
<g clip-path="url(#clip57_82_10213)">
<rect width="78.5894" height="78.5894" transform="matrix(1 0 0 -1 78.5894 540.222)" fill="#D6D6D6"/>
<path d="M-199.266 739.488L-870.069 68.6852H78.5894H157.179H550.126V461.632V540.222V1488.88L-120.677 818.077L-199.266 739.488Z" fill="#9F9F9F" stroke="#D6D6D6" stroke-width="785.894"/>
</g>
<g clip-path="url(#clip58_82_10213)">
<rect width="78.5894" height="78.5894" transform="translate(392.947 304.454)" fill="#D6D6D6"/>
<path d="M115.092 105.187L-555.711 775.99H392.947H471.537H864.484V383.043V304.454V-644.205L193.681 26.5981L115.092 105.187Z" fill="#9F9F9F" stroke="#D6D6D6" stroke-width="785.894"/>
<path d="M115.092 582.309L-555.711 -88.4936H392.947H471.537H864.484V304.454V383.043V1331.7L193.681 660.899L115.092 582.309Z" fill="#474747" stroke="#D6D6D6" stroke-width="785.894"/>
<path d="M749.392 582.309L1420.19 -88.4936H471.537H392.947H0V304.454V383.043V1331.7L670.803 660.899L749.392 582.309Z" fill="#656565" stroke="#D6D6D6" stroke-width="785.894"/>
</g>
<g clip-path="url(#clip59_82_10213)">
<rect width="78.5894" height="78.5894" transform="matrix(1 0 0 -1 78.5894 461.632)" fill="#D6D6D6"/>
<path d="M-199.266 660.898L-870.069 -9.90421H78.5894H157.179H550.126V383.043V461.632V1410.29L-120.677 739.488L-199.266 660.898Z" fill="#9F9F9F" stroke="#D6D6D6" stroke-width="785.894"/>
<path d="M-199.266 183.777L-870.069 854.579H78.5894H157.179H550.126V461.632V383.043V-565.615L-120.677 105.187L-199.266 183.777Z" fill="#474747" stroke="#D6D6D6" stroke-width="785.894"/>
<path d="M435.034 183.777L1105.84 854.579H157.179H78.5894H-314.358V461.632V383.043V-565.615L356.445 105.187L435.034 183.777Z" fill="#656565" stroke="#D6D6D6" stroke-width="785.894"/>
</g>
<g clip-path="url(#clip60_82_10213)">
<rect width="78.5894" height="78.5894" transform="translate(471.537 -9.9043)" fill="#D6D6D6"/>
<path d="M193.681 -209.17L-477.122 461.632H471.537H550.126H943.073V68.6851V-9.9043V-958.563L272.27 -287.76L193.681 -209.17Z" fill="#9F9F9F" stroke="#D6D6D6" stroke-width="785.894"/>
<path d="M193.681 267.951L-477.122 -402.851H471.537H550.126H943.073V-9.90437V68.6851V1017.34L272.27 346.541L193.681 267.951Z" fill="#474747" stroke="#D6D6D6" stroke-width="785.894"/>
<path d="M827.982 267.951L1498.78 -402.851H550.126H471.537H78.5894V-9.90437V68.6851V1017.34L749.392 346.541L827.982 267.951Z" fill="#656565" stroke="#D6D6D6" stroke-width="785.894"/>
</g>
<g clip-path="url(#clip61_82_10213)">
<rect width="78.5894" height="78.5894" transform="matrix(-1 0 0 -1 628.715 383.043)" fill="#D6D6D6"/>
<path d="M906.571 582.309L1577.37 -88.4936H628.715H550.126H157.179V304.454V383.043V1331.7L827.982 660.899L906.571 582.309Z" fill="#9F9F9F" stroke="#D6D6D6" stroke-width="785.894"/>
<path d="M906.571 105.187L1577.37 775.99H628.715H550.126H157.179V383.043V304.454V-644.205L827.982 26.5981L906.571 105.187Z" fill="#474747" stroke="#D6D6D6" stroke-width="785.894"/>
<path d="M272.27 105.187L-398.532 775.99H550.126H628.715H1021.66V383.043V304.454V-644.205L350.86 26.5981L272.27 105.187Z" fill="#656565" stroke="#D6D6D6" stroke-width="785.894"/>
</g>
<g clip-path="url(#clip62_82_10213)">
<rect width="78.5894" height="78.5894" transform="matrix(1 0 0 -1 157.179 775.99)" fill="#D6D6D6"/>
<path d="M-120.677 975.256L-791.479 304.453H157.179H235.768H628.715V697.4V775.99V1724.65L-42.0873 1053.85L-120.677 975.256Z" fill="#9F9F9F" stroke="#D6D6D6" stroke-width="785.894"/>
<path d="M-120.677 498.134L-791.479 1168.94H157.179H235.768H628.715V775.99V697.4V-251.258L-42.0873 419.545L-120.677 498.134Z" fill="#474747" stroke="#D6D6D6" stroke-width="785.894"/>
<path d="M513.624 498.134L1184.43 1168.94H235.768H157.179H-235.768V775.99V697.4V-251.258L435.034 419.545L513.624 498.134Z" fill="#656565" stroke="#D6D6D6" stroke-width="785.894"/>
</g>
<g clip-path="url(#clip63_82_10213)">
<rect width="78.5894" height="78.5894" transform="translate(471.537 68.6851)" fill="#D6D6D6"/>
<path d="M193.681 -130.581L-477.122 540.222H471.537H550.126H943.073V147.274V68.6851V-879.973L272.27 -209.171L193.681 -130.581Z" fill="#9F9F9F" stroke="#D6D6D6" stroke-width="785.894"/>
</g>
<g clip-path="url(#clip64_82_10213)">
<rect width="78.5894" height="78.5894" transform="matrix(-1 0 0 -1 628.715 304.454)" fill="#D6D6D6"/>
<path d="M906.571 503.72L1577.37 -167.083H628.715H550.126H157.179V225.864V304.454V1253.11L827.982 582.309L906.571 503.72Z" fill="#9F9F9F" stroke="#D6D6D6" stroke-width="785.894"/>
</g>
<g clip-path="url(#clip65_82_10213)">
<rect width="78.5894" height="78.5894" transform="matrix(1 0 0 -1 157.179 697.4)" fill="#D6D6D6"/>
<path d="M-120.677 896.667L-791.479 225.864H157.179H235.768H628.715V618.811V697.4V1646.06L-42.0873 975.256L-120.677 896.667Z" fill="#9F9F9F" stroke="#D6D6D6" stroke-width="785.894"/>
</g>
<g clip-path="url(#clip66_82_10213)">
<rect width="78.5894" height="78.5894" transform="translate(471.537 147.274)" fill="#D6D6D6"/>
<path d="M193.681 -51.9917L-477.122 618.811H471.537H550.126H943.073V225.864V147.274V-801.384L272.27 -130.581L193.681 -51.9917Z" fill="#9F9F9F" stroke="#D6D6D6" stroke-width="785.894"/>
<path d="M193.681 425.13L-477.122 -245.673H471.537H550.126H943.073V147.274V225.864V1174.52L272.27 503.719L193.681 425.13Z" fill="#474747" stroke="#D6D6D6" stroke-width="785.894"/>
<path d="M827.982 425.13L1498.78 -245.673H550.126H471.537H78.5894V147.274V225.864V1174.52L749.392 503.719L827.982 425.13Z" fill="#656565" stroke="#D6D6D6" stroke-width="785.894"/>
</g>
<g clip-path="url(#clip67_82_10213)">
<rect width="78.5894" height="78.5894" transform="matrix(-1 0 0 -1 628.715 225.864)" fill="#D6D6D6"/>
<path d="M906.571 425.13L1577.37 -245.673H628.715H550.126H157.179V147.274V225.864V1174.52L827.982 503.719L906.571 425.13Z" fill="#9F9F9F" stroke="#D6D6D6" stroke-width="785.894"/>
<path d="M906.571 -51.9917L1577.37 618.811H628.715H550.126H157.179V225.864V147.274V-801.384L827.982 -130.581L906.571 -51.9917Z" fill="#474747" stroke="#D6D6D6" stroke-width="785.894"/>
<path d="M272.27 -51.9917L-398.532 618.811H550.126H628.715H1021.66V225.864V147.274V-801.384L350.86 -130.581L272.27 -51.9917Z" fill="#656565" stroke="#D6D6D6" stroke-width="785.894"/>
</g>
<rect width="78.5894" height="78.5894" transform="matrix(1 0 0 -1 157.179 618.811)" fill="#D6D6D6"/>
<g clip-path="url(#clip68_82_10213)">
<rect width="78.5894" height="78.5894" transform="translate(471.537 225.864)" fill="#D6D6D6"/>
<path d="M193.681 26.5976L-477.122 697.4H471.537H550.126H943.073V304.453V225.864V-722.794L272.27 -51.9918L193.681 26.5976Z" fill="#9F9F9F" stroke="#D6D6D6" stroke-width="785.894"/>
<path d="M193.681 503.72L-477.122 -167.083H471.537H550.126H943.073V225.864V304.454V1253.11L272.27 582.309L193.681 503.72Z" fill="#474747" stroke="#D6D6D6" stroke-width="785.894"/>
<path d="M827.982 503.72L1498.78 -167.083H550.126H471.537H78.5894V225.864V304.454V1253.11L749.392 582.309L827.982 503.72Z" fill="#656565" stroke="#D6D6D6" stroke-width="785.894"/>
</g>
<g clip-path="url(#clip69_82_10213)">
<rect width="78.5894" height="78.5894" transform="matrix(-1 0 0 -1 628.715 147.274)" fill="#D6D6D6"/>
<path d="M906.571 346.541L1577.37 -324.262H628.715H550.126H157.179V68.685V147.274V1095.93L827.982 425.13L906.571 346.541Z" fill="#9F9F9F" stroke="#D6D6D6" stroke-width="785.894"/>
<path d="M906.571 -130.581L1577.37 540.222H628.715H550.126H157.179V147.274V68.6851V-879.973L827.982 -209.171L906.571 -130.581Z" fill="#474747" stroke="#D6D6D6" stroke-width="785.894"/>
<path d="M272.27 -130.581L-398.532 540.222H550.126H628.715H1021.66V147.274V68.6851V-879.973L350.86 -209.171L272.27 -130.581Z" fill="#656565" stroke="#D6D6D6" stroke-width="785.894"/>
</g>
<g clip-path="url(#clip70_82_10213)">
<rect width="78.5894" height="78.5894" transform="matrix(1 0 0 -1 157.179 540.222)" fill="#D6D6D6"/>
<path d="M-120.677 739.488L-791.479 68.6852H157.179H235.768H628.715V461.632V540.222V1488.88L-42.0873 818.077L-120.677 739.488Z" fill="#9F9F9F" stroke="#D6D6D6" stroke-width="785.894"/>
<path d="M-120.677 262.366L-791.479 933.169H157.179H235.768H628.715V540.222V461.632V-487.026L-42.0873 183.777L-120.677 262.366Z" fill="#474747" stroke="#D6D6D6" stroke-width="785.894"/>
<path d="M513.624 262.366L1184.43 933.169H235.768H157.179H-235.768V540.222V461.632V-487.026L435.034 183.777L513.624 262.366Z" fill="#656565" stroke="#D6D6D6" stroke-width="785.894"/>
</g>
<g clip-path="url(#clip71_82_10213)">
<rect width="78.5894" height="78.5894" transform="translate(471.537 304.454)" fill="#D6D6D6"/>
<path d="M193.681 105.187L-477.122 775.99H471.537H550.126H943.073V383.043V304.454V-644.205L272.27 26.5981L193.681 105.187Z" fill="#9F9F9F" stroke="#D6D6D6" stroke-width="785.894"/>
<path d="M193.681 582.309L-477.122 -88.4936H471.537H550.126H943.073V304.454V383.043V1331.7L272.27 660.899L193.681 582.309Z" fill="#474747" stroke="#D6D6D6" stroke-width="785.894"/>
</g>
<g clip-path="url(#clip72_82_10213)">
<rect width="78.5894" height="78.5894" transform="matrix(-1 0 0 -1 628.715 68.6851)" fill="#D6D6D6"/>
<path d="M906.571 267.951L1577.37 -402.851H628.715H550.126H157.179V-9.90437V68.6851V1017.34L827.982 346.541L906.571 267.951Z" fill="#9F9F9F" stroke="#D6D6D6" stroke-width="785.894"/>
<path d="M906.571 -209.17L1577.37 461.632H628.715H550.126H157.179V68.6851V-9.9043V-958.563L827.982 -287.76L906.571 -209.17Z" fill="#474747" stroke="#D6D6D6" stroke-width="785.894"/>
</g>
<g clip-path="url(#clip73_82_10213)">
<rect width="78.5894" height="78.5894" transform="matrix(1 0 0 -1 157.179 461.632)" fill="#D6D6D6"/>
<path d="M-120.677 660.898L-791.479 -9.90421H157.179H235.768H628.715V383.043V461.632V1410.29L-42.0873 739.488L-120.677 660.898Z" fill="#9F9F9F" stroke="#D6D6D6" stroke-width="785.894"/>
<path d="M-120.677 183.777L-791.479 854.579H157.179H235.768H628.715V461.632V383.043V-565.615L-42.0873 105.187L-120.677 183.777Z" fill="#474747" stroke="#D6D6D6" stroke-width="785.894"/>
</g>
<g clip-path="url(#clip74_82_10213)">
<rect width="78.5894" height="78.5894" transform="matrix(-1 0 0 1 628.715 540.222)" fill="#D6D6D6"/>
<path d="M906.571 340.956L1577.37 1011.76H628.715H550.126H157.179V618.811V540.222V-408.437L827.982 262.366L906.571 340.956Z" fill="#9F9F9F" stroke="#D6D6D6" stroke-width="785.894"/>
<path d="M906.571 818.077L1577.37 147.275H628.715H550.126H157.179V540.222V618.811V1567.47L827.982 896.667L906.571 818.077Z" fill="#474747" stroke="#D6D6D6" stroke-width="785.894"/>
<path d="M272.27 818.077L-398.532 147.275H550.126H628.715H1021.66V540.222V618.811V1567.47L350.86 896.667L272.27 818.077Z" fill="#656565" stroke="#D6D6D6" stroke-width="785.894"/>
</g>
<g clip-path="url(#clip75_82_10213)">
<rect width="78.5894" height="78.5894" transform="matrix(-1 0 0 1 628.715 618.811)" fill="#D6D6D6"/>
<path d="M906.571 419.545L1577.37 1090.35H628.715H550.126H157.179V697.4V618.811V-329.847L827.982 340.955L906.571 419.545Z" fill="#9F9F9F" stroke="#D6D6D6" stroke-width="785.894"/>
<path d="M906.571 896.667L1577.37 225.864H628.715H550.126H157.179V618.811V697.4V1646.06L827.982 975.256L906.571 896.667Z" fill="#474747" stroke="#D6D6D6" stroke-width="785.894"/>
<path d="M272.27 896.667L-398.532 225.864H550.126H628.715H1021.66V618.811V697.4V1646.06L350.86 975.256L272.27 896.667Z" fill="#656565" stroke="#D6D6D6" stroke-width="785.894"/>
</g>
<g clip-path="url(#clip76_82_10213)">
<rect width="78.5894" height="78.5894" transform="matrix(-1 0 0 1 628.715 697.4)" fill="#D6D6D6"/>
<path d="M906.571 498.134L1577.37 1168.94H628.715H550.126H157.179V775.99V697.4V-251.258L827.982 419.545L906.571 498.134Z" fill="#9F9F9F" stroke="#D6D6D6" stroke-width="785.894"/>
<path d="M906.571 975.256L1577.37 304.453H628.715H550.126H157.179V697.4V775.99V1724.65L827.982 1053.85L906.571 975.256Z" fill="#474747" stroke="#D6D6D6" stroke-width="785.894"/>
<path d="M272.27 975.256L-398.532 304.453H550.126H628.715H1021.66V697.4V775.99V1724.65L350.86 1053.85L272.27 975.256Z" fill="#656565" stroke="#D6D6D6" stroke-width="785.894"/>
</g>
<g clip-path="url(#clip77_82_10213)">
<rect width="78.5894" height="78.5894" transform="matrix(-1 0 0 1 628.715 383.043)" fill="#D6D6D6"/>
<path d="M906.571 183.777L1577.37 854.579H628.715H550.126H157.179V461.632V383.043V-565.615L827.982 105.187L906.571 183.777Z" fill="#9F9F9F" stroke="#D6D6D6" stroke-width="785.894"/>
</g>
<g clip-path="url(#clip78_82_10213)">
<rect width="78.5894" height="78.5894" transform="matrix(-1 0 0 1 628.715 461.632)" fill="#D6D6D6"/>
<path d="M906.571 262.366L1577.37 933.169H628.715H550.126H157.179V540.222V461.632V-487.026L827.982 183.777L906.571 262.366Z" fill="#9F9F9F" stroke="#D6D6D6" stroke-width="785.894"/>
<path d="M906.571 739.488L1577.37 68.6852H628.715H550.126H157.179V461.632V540.222V1488.88L827.982 818.077L906.571 739.488Z" fill="#474747" stroke="#D6D6D6" stroke-width="785.894"/>
<path d="M272.27 739.488L-398.532 68.6852H550.126H628.715H1021.66V461.632V540.222V1488.88L350.86 818.077L272.27 739.488Z" fill="#656565" stroke="#D6D6D6" stroke-width="785.894"/>
<path d="M272.27 262.366L-398.532 933.169H550.126H628.715H1021.66V540.222V461.632V-487.026L350.86 183.777L272.27 262.366Z" fill="#838383" stroke="#D6D6D6" stroke-width="785.894"/>
</g>
<g style="mix-blend-mode:screen">
<rect y="-9.9043" width="1100.25" height="785.894" fill="url(#paint1_linear_82_10213)"/>
</g>
</g>
</g>
<defs>
<linearGradient id="paint0_linear_82_10213" x1="0" y1="0" x2="1217.49" y2="264.24" gradientUnits="userSpaceOnUse">
<stop stop-color="#FA3329"/>
<stop offset="1" stop-color="#F7453C"/>
</linearGradient>
<linearGradient id="paint1_linear_82_10213" x1="0" y1="-9.9043" x2="1213.41" y2="252.279" gradientUnits="userSpaceOnUse">
<stop stop-color="#FA3329"/>
<stop offset="1" stop-color="#F7453C"/>
</linearGradient>
<clipPath id="clip0_82_10213">
<rect width="593" height="776" fill="white"/>
</clipPath>
<clipPath id="clip1_82_10213">
<rect width="1104.39" height="785.346" fill="white" transform="translate(0 -9.9043)"/>
</clipPath>
<clipPath id="clip2_82_10213">
<rect width="78.5894" height="78.5894" fill="white" transform="matrix(1 0 0 -1 235.768 775.99)"/>
</clipPath>
<clipPath id="clip3_82_10213">
<rect width="78.5894" height="78.5894" fill="white" transform="translate(0 68.6851)"/>
</clipPath>
<clipPath id="clip4_82_10213">
<rect width="78.5894" height="78.5894" fill="white" transform="matrix(1 0 0 -1 235.768 697.4)"/>
</clipPath>
<clipPath id="clip5_82_10213">
<rect width="78.5894" height="78.5894" fill="white" transform="translate(0 147.274)"/>
</clipPath>
<clipPath id="clip6_82_10213">
<rect width="78.5894" height="78.5894" fill="white" transform="matrix(1 0 0 -1 235.768 618.811)"/>
</clipPath>
<clipPath id="clip7_82_10213">
<rect width="78.5894" height="78.5894" fill="white" transform="translate(0 225.864)"/>
</clipPath>
<clipPath id="clip8_82_10213">
<rect width="78.5894" height="78.5894" fill="white" transform="matrix(1 0 0 -1 235.768 540.222)"/>
</clipPath>
<clipPath id="clip9_82_10213">
<rect width="78.5894" height="78.5894" fill="white" transform="translate(0 304.454)"/>
</clipPath>
<clipPath id="clip10_82_10213">
<rect width="78.5894" height="78.5894" fill="white" transform="matrix(1 0 0 -1 235.768 461.632)"/>
</clipPath>
<clipPath id="clip11_82_10213">
<rect width="78.5894" height="78.5894" fill="white" transform="translate(78.5894 -9.9043)"/>
</clipPath>
<clipPath id="clip12_82_10213">
<rect width="78.5894" height="78.5894" fill="white" transform="matrix(1 0 0 -1 314.358 775.99)"/>
</clipPath>
<clipPath id="clip13_82_10213">
<rect width="78.5894" height="78.5894" fill="white" transform="translate(78.5894 68.6851)"/>
</clipPath>
<clipPath id="clip14_82_10213">
<rect width="78.5894" height="78.5894" fill="white" transform="matrix(1 0 0 -1 314.358 697.4)"/>
</clipPath>
<clipPath id="clip15_82_10213">
<rect width="78.5894" height="78.5894" fill="white" transform="translate(78.5894 147.274)"/>
</clipPath>
<clipPath id="clip16_82_10213">
<rect width="78.5894" height="78.5894" fill="white" transform="matrix(1 0 0 -1 314.358 618.811)"/>
</clipPath>
<clipPath id="clip17_82_10213">
<rect width="78.5894" height="78.5894" fill="white" transform="translate(78.5894 225.864)"/>
</clipPath>
<clipPath id="clip18_82_10213">
<rect width="78.5894" height="78.5894" fill="white" transform="matrix(1 0 0 -1 314.358 540.222)"/>
</clipPath>
<clipPath id="clip19_82_10213">
<rect width="78.5894" height="78.5894" fill="white" transform="translate(78.5894 304.454)"/>
</clipPath>
<clipPath id="clip20_82_10213">
<rect width="78.5894" height="78.5894" fill="white" transform="matrix(1 0 0 -1 314.358 461.632)"/>
</clipPath>
<clipPath id="clip21_82_10213">
<rect width="78.5894" height="78.5894" fill="white" transform="translate(157.179 -9.9043)"/>
</clipPath>
<clipPath id="clip22_82_10213">
<rect width="78.5894" height="78.5894" fill="white" transform="matrix(1 0 0 -1 392.947 775.99)"/>
</clipPath>
<clipPath id="clip23_82_10213">
<rect width="78.5894" height="78.5894" fill="white" transform="translate(157.179 68.6851)"/>
</clipPath>
<clipPath id="clip24_82_10213">
<rect width="78.5894" height="78.5894" fill="white" transform="matrix(1 0 0 -1 392.947 697.4)"/>
</clipPath>
<clipPath id="clip25_82_10213">
<rect width="78.5894" height="78.5894" fill="white" transform="translate(157.179 147.274)"/>
</clipPath>
<clipPath id="clip26_82_10213">
<rect width="78.5894" height="78.5894" fill="white" transform="matrix(1 0 0 -1 392.947 618.811)"/>
</clipPath>
<clipPath id="clip27_82_10213">
<rect width="78.5894" height="78.5894" fill="white" transform="translate(157.179 225.864)"/>
</clipPath>
<clipPath id="clip28_82_10213">
<rect width="78.5894" height="78.5894" fill="white" transform="matrix(1 0 0 -1 392.947 540.222)"/>
</clipPath>
<clipPath id="clip29_82_10213">
<rect width="78.5894" height="78.5894" fill="white" transform="translate(157.179 304.454)"/>
</clipPath>
<clipPath id="clip30_82_10213">
<rect width="78.5894" height="78.5894" fill="white" transform="matrix(1 0 0 -1 392.947 461.632)"/>
</clipPath>
<clipPath id="clip31_82_10213">
<rect width="78.5894" height="78.5894" fill="white" transform="translate(235.768 -9.9043)"/>
</clipPath>
<clipPath id="clip32_82_10213">
<rect width="78.5894" height="78.5894" fill="white" transform="matrix(1 0 0 -1 471.537 775.99)"/>
</clipPath>
<clipPath id="clip33_82_10213">
<rect width="78.5894" height="78.5894" fill="white" transform="translate(235.768 68.6851)"/>
</clipPath>
<clipPath id="clip34_82_10213">
<rect width="78.5894" height="78.5894" fill="white" transform="matrix(1 0 0 -1 471.537 697.4)"/>
</clipPath>
<clipPath id="clip35_82_10213">
<rect width="78.5894" height="78.5894" fill="white" transform="translate(235.768 147.274)"/>
</clipPath>
<clipPath id="clip36_82_10213">
<rect width="78.5894" height="78.5894" fill="white" transform="matrix(1 0 0 -1 471.537 618.811)"/>
</clipPath>
<clipPath id="clip37_82_10213">
<rect width="78.5894" height="78.5894" fill="white" transform="translate(235.768 225.864)"/>
</clipPath>
<clipPath id="clip38_82_10213">
<rect width="78.5894" height="78.5894" fill="white" transform="matrix(1 0 0 -1 471.537 540.222)"/>
</clipPath>
<clipPath id="clip39_82_10213">
<rect width="78.5894" height="78.5894" fill="white" transform="translate(235.768 304.454)"/>
</clipPath>
<clipPath id="clip40_82_10213">
<rect width="78.5894" height="78.5894" fill="white" transform="matrix(1 0 0 -1 471.537 461.632)"/>
</clipPath>
<clipPath id="clip41_82_10213">
<rect width="78.5894" height="78.5894" fill="white" transform="translate(314.358 -9.9043)"/>
</clipPath>
<clipPath id="clip42_82_10213">
<rect width="78.5894" height="78.5894" fill="white" transform="matrix(1 0 0 -1 0 775.99)"/>
</clipPath>
<clipPath id="clip43_82_10213">
<rect width="78.5894" height="78.5894" fill="white" transform="matrix(1 0 0 -1 0 697.4)"/>
</clipPath>
<clipPath id="clip44_82_10213">
<rect width="78.5894" height="78.5894" fill="white" transform="translate(314.358 147.274)"/>
</clipPath>
<clipPath id="clip45_82_10213">
<rect width="78.5894" height="78.5894" fill="white" transform="matrix(1 0 0 -1 0 618.811)"/>
</clipPath>
<clipPath id="clip46_82_10213">
<rect width="78.5894" height="78.5894" fill="white" transform="translate(314.358 225.864)"/>
</clipPath>
<clipPath id="clip47_82_10213">
<rect width="78.5894" height="78.5894" fill="white" transform="matrix(1 0 0 -1 0 540.222)"/>
</clipPath>
<clipPath id="clip48_82_10213">
<rect width="78.5894" height="78.5894" fill="white" transform="translate(314.358 304.454)"/>
</clipPath>
<clipPath id="clip49_82_10213">
<rect width="78.5894" height="78.5894" fill="white" transform="matrix(1 0 0 -1 0 461.632)"/>
</clipPath>
<clipPath id="clip50_82_10213">
<rect width="78.5894" height="78.5894" fill="white" transform="translate(392.947 -9.9043)"/>
</clipPath>
<clipPath id="clip51_82_10213">
<rect width="78.5894" height="78.5894" fill="white" transform="matrix(1 0 0 -1 78.5894 775.99)"/>
</clipPath>
<clipPath id="clip52_82_10213">
<rect width="78.5894" height="78.5894" fill="white" transform="translate(392.947 68.6851)"/>
</clipPath>
<clipPath id="clip53_82_10213">
<rect width="78.5894" height="78.5894" fill="white" transform="matrix(1 0 0 -1 78.5894 697.4)"/>
</clipPath>
<clipPath id="clip54_82_10213">
<rect width="78.5894" height="78.5894" fill="white" transform="translate(392.947 147.274)"/>
</clipPath>
<clipPath id="clip55_82_10213">
<rect width="78.5894" height="78.5894" fill="white" transform="matrix(1 0 0 -1 78.5894 618.811)"/>
</clipPath>
<clipPath id="clip56_82_10213">
<rect width="78.5894" height="78.5894" fill="white" transform="translate(392.947 225.864)"/>
</clipPath>
<clipPath id="clip57_82_10213">
<rect width="78.5894" height="78.5894" fill="white" transform="matrix(1 0 0 -1 78.5894 540.222)"/>
</clipPath>
<clipPath id="clip58_82_10213">
<rect width="78.5894" height="78.5894" fill="white" transform="translate(392.947 304.454)"/>
</clipPath>
<clipPath id="clip59_82_10213">
<rect width="78.5894" height="78.5894" fill="white" transform="matrix(1 0 0 -1 78.5894 461.632)"/>
</clipPath>
<clipPath id="clip60_82_10213">
<rect width="78.5894" height="78.5894" fill="white" transform="translate(471.537 -9.9043)"/>
</clipPath>
<clipPath id="clip61_82_10213">
<rect width="78.5894" height="78.5894" fill="white" transform="matrix(-1 0 0 -1 628.715 383.043)"/>
</clipPath>
<clipPath id="clip62_82_10213">
<rect width="78.5894" height="78.5894" fill="white" transform="matrix(1 0 0 -1 157.179 775.99)"/>
</clipPath>
<clipPath id="clip63_82_10213">
<rect width="78.5894" height="78.5894" fill="white" transform="translate(471.537 68.6851)"/>
</clipPath>
<clipPath id="clip64_82_10213">
<rect width="78.5894" height="78.5894" fill="white" transform="matrix(-1 0 0 -1 628.715 304.454)"/>
</clipPath>
<clipPath id="clip65_82_10213">
<rect width="78.5894" height="78.5894" fill="white" transform="matrix(1 0 0 -1 157.179 697.4)"/>
</clipPath>
<clipPath id="clip66_82_10213">
<rect width="78.5894" height="78.5894" fill="white" transform="translate(471.537 147.274)"/>
</clipPath>
<clipPath id="clip67_82_10213">
<rect width="78.5894" height="78.5894" fill="white" transform="matrix(-1 0 0 -1 628.715 225.864)"/>
</clipPath>
<clipPath id="clip68_82_10213">
<rect width="78.5894" height="78.5894" fill="white" transform="translate(471.537 225.864)"/>
</clipPath>
<clipPath id="clip69_82_10213">
<rect width="78.5894" height="78.5894" fill="white" transform="matrix(-1 0 0 -1 628.715 147.274)"/>
</clipPath>
<clipPath id="clip70_82_10213">
<rect width="78.5894" height="78.5894" fill="white" transform="matrix(1 0 0 -1 157.179 540.222)"/>
</clipPath>
<clipPath id="clip71_82_10213">
<rect width="78.5894" height="78.5894" fill="white" transform="translate(471.537 304.454)"/>
</clipPath>
<clipPath id="clip72_82_10213">
<rect width="78.5894" height="78.5894" fill="white" transform="matrix(-1 0 0 -1 628.715 68.6851)"/>
</clipPath>
<clipPath id="clip73_82_10213">
<rect width="78.5894" height="78.5894" fill="white" transform="matrix(1 0 0 -1 157.179 461.632)"/>
</clipPath>
<clipPath id="clip74_82_10213">
<rect width="78.5894" height="78.5894" fill="white" transform="matrix(-1 0 0 1 628.715 540.222)"/>
</clipPath>
<clipPath id="clip75_82_10213">
<rect width="78.5894" height="78.5894" fill="white" transform="matrix(-1 0 0 1 628.715 618.811)"/>
</clipPath>
<clipPath id="clip76_82_10213">
<rect width="78.5894" height="78.5894" fill="white" transform="matrix(-1 0 0 1 628.715 697.4)"/>
</clipPath>
<clipPath id="clip77_82_10213">
<rect width="78.5894" height="78.5894" fill="white" transform="matrix(-1 0 0 1 628.715 383.043)"/>
</clipPath>
<clipPath id="clip78_82_10213">
<rect width="78.5894" height="78.5894" fill="white" transform="matrix(-1 0 0 1 628.715 461.632)"/>
</clipPath>
</defs>
</svg>
