<svg width="1440" height="260" viewBox="0 0 1440 260" fill="none" xmlns="http://www.w3.org/2000/svg">
<g clip-path="url(#clip0_224_5509)">
<rect width="1587.15" height="1128.64" transform="translate(-6.10352e-05 -627.227)" fill="url(#paint0_linear_224_5509)"/>
<g clip-path="url(#clip1_224_5509)">
<rect width="112.943" height="112.943" transform="matrix(1 0 0 -1 338.829 276.316)" fill="#D6D6D6"/>
<path d="M1016.49 276.316V1639.66L52.4581 675.629L-60.4848 562.686L-1024.51 -401.342H338.829H451.771H1016.49V163.373V276.316Z" fill="#9F9F9F" stroke="#D6D6D6" stroke-width="1129.43"/>
<path d="M1016.49 163.373V-1199.97L52.4581 -235.941L-60.4848 -122.998L-1024.51 841.03H338.829H451.771H1016.49V276.316V163.373Z" fill="#474747" stroke="#D6D6D6" stroke-width="1129.43"/>
<path d="M-225.886 163.373V-1199.97L738.142 -235.941L851.085 -122.998L1815.11 841.03H451.771H338.829H-225.886V276.316V163.373Z" fill="#656565" stroke="#D6D6D6" stroke-width="1129.43"/>
</g>
<g clip-path="url(#clip2_224_5509)">
<rect width="112.943" height="112.943" transform="matrix(1 0 0 -1 338.829 163.373)" fill="#D6D6D6"/>
<path d="M1016.49 163.373V1526.71L52.4581 562.686L-60.4848 449.743L-1024.51 -514.284H338.829H451.771H1016.49V50.4299V163.373Z" fill="#9F9F9F" stroke="#D6D6D6" stroke-width="1129.43"/>
<path d="M1016.49 50.4299V-1312.91L52.4581 -348.883L-60.4848 -235.941L-1024.51 728.087H338.829H451.771H1016.49V163.373V50.4299Z" fill="#474747" stroke="#D6D6D6" stroke-width="1129.43"/>
<path d="M-225.886 50.4299V-1312.91L738.142 -348.883L851.085 -235.941L1815.11 728.087H451.771H338.829H-225.886V163.373V50.4299Z" fill="#656565" stroke="#D6D6D6" stroke-width="1129.43"/>
</g>
<g clip-path="url(#clip3_224_5509)">
<rect width="112.943" height="112.943" transform="matrix(1 0 0 -1 338.829 50.4299)" fill="#D6D6D6"/>
<path d="M1016.49 50.4299V1413.77L52.4581 449.743L-60.4848 336.8L-1024.51 -627.227H338.829H451.771H1016.49V-62.5129V50.4299Z" fill="#9F9F9F" stroke="#D6D6D6" stroke-width="1129.43"/>
</g>
<g clip-path="url(#clip4_224_5509)">
<rect width="112.943" height="112.943" transform="matrix(1 0 0 -1 451.771 276.316)" fill="#D6D6D6"/>
<path d="M1129.43 276.316V1639.66L165.401 675.629L52.4581 562.686L-911.57 -401.342H451.771H564.714H1129.43V163.373V276.316Z" fill="#9F9F9F" stroke="#D6D6D6" stroke-width="1129.43"/>
<path d="M1129.43 163.373V-1199.97L165.401 -235.941L52.4581 -122.998L-911.57 841.03H451.771H564.714H1129.43V276.316V163.373Z" fill="#474747" stroke="#D6D6D6" stroke-width="1129.43"/>
<path d="M-112.943 163.373V-1199.97L851.085 -235.941L964.028 -122.998L1928.06 841.03H564.714H451.771H-112.943V276.316V163.373Z" fill="#656565" stroke="#D6D6D6" stroke-width="1129.43"/>
</g>
<g clip-path="url(#clip5_224_5509)">
<rect width="112.943" height="112.943" transform="matrix(1 0 0 -1 451.771 163.373)" fill="#D6D6D6"/>
<path d="M1129.43 163.373V1526.71L165.401 562.686L52.4581 449.743L-911.57 -514.284H451.771H564.714H1129.43V50.4299V163.373Z" fill="#9F9F9F" stroke="#D6D6D6" stroke-width="1129.43"/>
<path d="M1129.43 50.4299V-1312.91L165.401 -348.883L52.4581 -235.941L-911.57 728.087H451.771H564.714H1129.43V163.373V50.4299Z" fill="#474747" stroke="#D6D6D6" stroke-width="1129.43"/>
</g>
<g clip-path="url(#clip6_224_5509)">
<rect width="112.943" height="112.943" transform="matrix(1 0 0 -1 451.771 50.4299)" fill="#D6D6D6"/>
<path d="M1129.43 50.4299V1413.77L165.401 449.743L52.4581 336.8L-911.57 -627.227H451.771H564.714H1129.43V-62.5129V50.4299Z" fill="#9F9F9F" stroke="#D6D6D6" stroke-width="1129.43"/>
<path d="M1129.43 -62.513V-1425.85L165.401 -461.826L52.4581 -348.884L-911.57 615.144H451.771H564.714H1129.43V50.4299V-62.513Z" fill="#474747" stroke="#D6D6D6" stroke-width="1129.43"/>
<path d="M-112.943 -62.513V-1425.85L851.085 -461.826L964.028 -348.884L1928.06 615.144H564.714H451.771H-112.943V50.4299V-62.513Z" fill="#656565" stroke="#D6D6D6" stroke-width="1129.43"/>
</g>
<g clip-path="url(#clip7_224_5509)">
<rect width="112.943" height="112.943" transform="matrix(1 0 0 -1 564.714 276.316)" fill="#D6D6D6"/>
<path d="M1242.37 276.316V1639.66L278.344 675.629L165.401 562.686L-798.627 -401.342H564.714H677.657H1242.37V163.373V276.316Z" fill="#9F9F9F" stroke="#D6D6D6" stroke-width="1129.43"/>
<path d="M1242.37 163.373V-1199.97L278.344 -235.941L165.401 -122.998L-798.627 841.03H564.714H677.657H1242.37V276.316V163.373Z" fill="#474747" stroke="#D6D6D6" stroke-width="1129.43"/>
<path d="M-6.10352e-05 163.373V-1199.97L964.028 -235.941L1076.97 -122.998L2041 841.03H677.657H564.714H-6.10352e-05V276.316V163.373Z" fill="#656565" stroke="#D6D6D6" stroke-width="1129.43"/>
</g>
<g clip-path="url(#clip8_224_5509)">
<rect width="112.943" height="112.943" transform="matrix(1 0 0 -1 564.714 163.373)" fill="#D6D6D6"/>
<path d="M1242.37 163.373V1526.71L278.344 562.686L165.401 449.743L-798.627 -514.284H564.714H677.657H1242.37V50.4299V163.373Z" fill="#9F9F9F" stroke="#D6D6D6" stroke-width="1129.43"/>
<path d="M1242.37 50.4299V-1312.91L278.344 -348.883L165.401 -235.941L-798.627 728.087H564.714H677.657H1242.37V163.373V50.4299Z" fill="#474747" stroke="#D6D6D6" stroke-width="1129.43"/>
<path d="M-6.10352e-05 50.4299V-1312.91L964.028 -348.883L1076.97 -235.941L2041 728.087H677.657H564.714H-6.10352e-05V163.373V50.4299Z" fill="#656565" stroke="#D6D6D6" stroke-width="1129.43"/>
</g>
<g clip-path="url(#clip9_224_5509)">
<rect width="112.943" height="112.943" transform="matrix(1 0 0 -1 564.714 50.4299)" fill="#D6D6D6"/>
<path d="M1242.37 50.4299V1413.77L278.344 449.743L165.401 336.8L-798.627 -627.227H564.714H677.657H1242.37V-62.5129V50.4299Z" fill="#9F9F9F" stroke="#D6D6D6" stroke-width="1129.43"/>
<path d="M1242.37 -62.513V-1425.85L278.344 -461.826L165.401 -348.884L-798.627 615.144H564.714H677.657H1242.37V50.4299V-62.513Z" fill="#474747" stroke="#D6D6D6" stroke-width="1129.43"/>
</g>
<g clip-path="url(#clip10_224_5509)">
<rect width="112.943" height="112.943" transform="matrix(1 0 0 -1 677.657 276.316)" fill="#D6D6D6"/>
<path d="M1355.31 276.316V1639.66L391.287 675.629L278.344 562.686L-685.684 -401.342H677.657H790.6H1355.31V163.373V276.316Z" fill="#9F9F9F" stroke="#D6D6D6" stroke-width="1129.43"/>
<path d="M1355.31 163.373V-1199.97L391.287 -235.941L278.344 -122.998L-685.684 841.03H677.657H790.6H1355.31V276.316V163.373Z" fill="#474747" stroke="#D6D6D6" stroke-width="1129.43"/>
<path d="M112.943 163.373V-1199.97L1076.97 -235.941L1189.91 -122.998L2153.94 841.03H790.6H677.657H112.943V276.316V163.373Z" fill="#656565" stroke="#D6D6D6" stroke-width="1129.43"/>
</g>
<g clip-path="url(#clip11_224_5509)">
<rect width="112.943" height="112.943" transform="matrix(1 0 0 -1 677.657 163.373)" fill="#D6D6D6"/>
<path d="M1355.31 163.373V1526.71L391.287 562.686L278.344 449.743L-685.684 -514.284H677.657H790.6H1355.31V50.4299V163.373Z" fill="#9F9F9F" stroke="#D6D6D6" stroke-width="1129.43"/>
</g>
<g clip-path="url(#clip12_224_5509)">
<rect width="112.943" height="112.943" transform="matrix(1 0 0 -1 677.657 50.4299)" fill="#D6D6D6"/>
<path d="M1355.31 50.4299V1413.77L391.287 449.743L278.344 336.8L-685.684 -627.227H677.657H790.6H1355.31V-62.5129V50.4299Z" fill="#9F9F9F" stroke="#D6D6D6" stroke-width="1129.43"/>
<path d="M1355.31 -62.513V-1425.85L391.287 -461.826L278.344 -348.884L-685.684 615.144H677.657H790.6H1355.31V50.4299V-62.513Z" fill="#474747" stroke="#D6D6D6" stroke-width="1129.43"/>
<path d="M112.943 -62.513V-1425.85L1076.97 -461.826L1189.91 -348.884L2153.94 615.144H790.6H677.657H112.943V50.4299V-62.513Z" fill="#656565" stroke="#D6D6D6" stroke-width="1129.43"/>
<path d="M112.943 50.4299V1413.77L1076.97 449.743L1189.91 336.8L2153.94 -627.227H790.6H677.657H112.943V-62.513V50.4299Z" fill="#838383" stroke="#D6D6D6" stroke-width="1129.43"/>
</g>
<g clip-path="url(#clip13_224_5509)">
<rect width="112.943" height="112.943" transform="matrix(1 0 0 -1 -6.10352e-05 276.316)" fill="#D6D6D6"/>
<path d="M677.657 276.316V1639.66L-286.371 675.629L-399.313 562.686L-1363.34 -401.342H-6.10352e-05H112.943H677.657V163.373V276.316Z" fill="#9F9F9F" stroke="#D6D6D6" stroke-width="1129.43"/>
<path d="M677.657 163.373V-1199.97L-286.371 -235.941L-399.313 -122.998L-1363.34 841.03H-6.10352e-05H112.943H677.657V276.316V163.373Z" fill="#474747" stroke="#D6D6D6" stroke-width="1129.43"/>
</g>
<g clip-path="url(#clip14_224_5509)">
<rect width="112.943" height="112.943" transform="matrix(1 0 0 -1 -6.10352e-05 163.373)" fill="#D6D6D6"/>
<path d="M677.657 163.373V1526.71L-286.371 562.686L-399.313 449.743L-1363.34 -514.284H-6.10352e-05H112.943H677.657V50.4299V163.373Z" fill="#9F9F9F" stroke="#D6D6D6" stroke-width="1129.43"/>
<path d="M677.657 50.4299V-1312.91L-286.371 -348.883L-399.313 -235.941L-1363.34 728.087H-6.10352e-05H112.943H677.657V163.373V50.4299Z" fill="#474747" stroke="#D6D6D6" stroke-width="1129.43"/>
<path d="M-564.714 50.4299V-1312.91L399.313 -348.883L512.256 -235.941L1476.28 728.087H112.943H-6.86646e-05H-564.714V163.373V50.4299Z" fill="#656565" stroke="#D6D6D6" stroke-width="1129.43"/>
</g>
<g clip-path="url(#clip15_224_5509)">
<rect width="112.943" height="112.943" transform="matrix(1 0 0 -1 -6.10352e-05 50.4299)" fill="#D6D6D6"/>
<path d="M677.657 50.4299V1413.77L-286.371 449.743L-399.313 336.8L-1363.34 -627.227H-6.10352e-05H112.943H677.657V-62.5129V50.4299Z" fill="#9F9F9F" stroke="#D6D6D6" stroke-width="1129.43"/>
<path d="M677.657 -62.513V-1425.85L-286.371 -461.826L-399.313 -348.884L-1363.34 615.144H-6.10352e-05H112.943H677.657V50.4299V-62.513Z" fill="#474747" stroke="#D6D6D6" stroke-width="1129.43"/>
<path d="M-564.714 -62.513V-1425.85L399.313 -461.826L512.256 -348.884L1476.28 615.144H112.943H-6.86646e-05H-564.714V50.4299V-62.513Z" fill="#656565" stroke="#D6D6D6" stroke-width="1129.43"/>
</g>
<g clip-path="url(#clip16_224_5509)">
<rect width="112.943" height="112.943" transform="matrix(1 0 0 -1 112.943 276.316)" fill="#D6D6D6"/>
<path d="M790.6 276.316V1639.66L-173.428 675.629L-286.371 562.686L-1250.4 -401.342H112.943H225.886H790.6V163.373V276.316Z" fill="#9F9F9F" stroke="#D6D6D6" stroke-width="1129.43"/>
<path d="M790.6 163.373V-1199.97L-173.428 -235.941L-286.371 -122.998L-1250.4 841.03H112.943H225.886H790.6V276.316V163.373Z" fill="#474747" stroke="#D6D6D6" stroke-width="1129.43"/>
<path d="M-451.772 163.373V-1199.97L512.256 -235.941L625.199 -122.998L1589.23 841.03H225.886H112.943H-451.772V276.316V163.373Z" fill="#656565" stroke="#D6D6D6" stroke-width="1129.43"/>
</g>
<g clip-path="url(#clip17_224_5509)">
<rect width="112.943" height="112.943" transform="matrix(1 0 0 -1 112.943 163.373)" fill="#D6D6D6"/>
<path d="M790.6 163.373V1526.71L-173.428 562.686L-286.371 449.743L-1250.4 -514.284H112.943H225.886H790.6V50.4299V163.373Z" fill="#9F9F9F" stroke="#D6D6D6" stroke-width="1129.43"/>
</g>
<g clip-path="url(#clip18_224_5509)">
<rect width="112.943" height="112.943" transform="matrix(1 0 0 -1 112.943 50.4299)" fill="#D6D6D6"/>
<path d="M790.6 50.4299V1413.77L-173.428 449.743L-286.371 336.8L-1250.4 -627.227H112.943H225.886H790.6V-62.5129V50.4299Z" fill="#9F9F9F" stroke="#D6D6D6" stroke-width="1129.43"/>
<path d="M790.6 -62.513V-1425.85L-173.428 -461.826L-286.371 -348.884L-1250.4 615.144H112.943H225.886H790.6V50.4299V-62.513Z" fill="#474747" stroke="#D6D6D6" stroke-width="1129.43"/>
<path d="M-451.772 -62.513V-1425.85L512.256 -461.826L625.199 -348.884L1589.23 615.144H225.886H112.943H-451.772V50.4299V-62.513Z" fill="#656565" stroke="#D6D6D6" stroke-width="1129.43"/>
</g>
<rect width="112.943" height="112.943" transform="matrix(1 0 0 -1 225.886 276.316)" fill="#D6D6D6"/>
<g clip-path="url(#clip19_224_5509)">
<rect width="112.943" height="112.943" transform="matrix(1 0 0 -1 225.886 163.373)" fill="#D6D6D6"/>
<path d="M903.543 163.373V1526.71L-60.4848 562.686L-173.428 449.743L-1137.46 -514.284H225.886H338.829H903.543V50.4299V163.373Z" fill="#9F9F9F" stroke="#D6D6D6" stroke-width="1129.43"/>
<path d="M903.543 50.4299V-1312.91L-60.4848 -348.883L-173.428 -235.941L-1137.46 728.087H225.886H338.829H903.543V163.373V50.4299Z" fill="#474747" stroke="#D6D6D6" stroke-width="1129.43"/>
<path d="M-338.829 50.4299V-1312.91L625.199 -348.883L738.142 -235.941L1702.17 728.087H338.829H225.886H-338.829V163.373V50.4299Z" fill="#656565" stroke="#D6D6D6" stroke-width="1129.43"/>
</g>
<g clip-path="url(#clip20_224_5509)">
<rect width="112.943" height="112.943" transform="matrix(1 0 0 -1 225.886 50.4299)" fill="#D6D6D6"/>
<path d="M903.543 50.4299V1413.77L-60.4848 449.743L-173.428 336.8L-1137.46 -627.227H225.886H338.829H903.543V-62.5129V50.4299Z" fill="#9F9F9F" stroke="#D6D6D6" stroke-width="1129.43"/>
<path d="M903.543 -62.513V-1425.85L-60.4848 -461.826L-173.428 -348.884L-1137.46 615.144H225.886H338.829H903.543V50.4299V-62.513Z" fill="#474747" stroke="#D6D6D6" stroke-width="1129.43"/>
</g>
<g clip-path="url(#clip21_224_5509)">
<rect width="112.943" height="112.943" transform="matrix(-1 0 0 1 1242.37 163.373)" fill="#D6D6D6"/>
<path d="M564.715 163.373V-1199.97L1528.74 -235.941L1641.69 -122.998L2605.71 841.03H1242.37H1129.43H564.715V276.316V163.373Z" fill="#9F9F9F" stroke="#D6D6D6" stroke-width="1129.43"/>
<path d="M564.715 276.316V1639.66L1528.74 675.629L1641.69 562.686L2605.71 -401.342H1242.37H1129.43H564.715V163.373V276.316Z" fill="#474747" stroke="#D6D6D6" stroke-width="1129.43"/>
<path d="M1807.09 276.316V1639.66L843.058 675.629L730.116 562.686L-233.912 -401.342H1129.43H1242.37H1807.09V163.373V276.316Z" fill="#656565" stroke="#D6D6D6" stroke-width="1129.43"/>
</g>
<g clip-path="url(#clip22_224_5509)">
<rect width="112.943" height="112.943" transform="matrix(-1 0 0 1 1242.37 -62.513)" fill="#D6D6D6"/>
<path d="M564.715 -62.513V-1425.85L1528.74 -461.826L1641.69 -348.884L2605.71 615.144H1242.37H1129.43H564.715V50.4299V-62.513Z" fill="#9F9F9F" stroke="#D6D6D6" stroke-width="1129.43"/>
<path d="M564.715 50.4299V1413.77L1528.74 449.743L1641.69 336.8L2605.71 -627.227H1242.37H1129.43H564.715V-62.513V50.4299Z" fill="#474747" stroke="#D6D6D6" stroke-width="1129.43"/>
<path d="M1807.09 50.4299V1413.77L843.058 449.743L730.116 336.8L-233.912 -627.227H1129.43H1242.37H1807.09V-62.513V50.4299Z" fill="#656565" stroke="#D6D6D6" stroke-width="1129.43"/>
</g>
<g clip-path="url(#clip23_224_5509)">
<rect width="112.943" height="112.943" transform="matrix(-1 0 0 1 1242.37 50.4299)" fill="#D6D6D6"/>
<path d="M564.715 50.4299V-1312.91L1528.74 -348.883L1641.69 -235.941L2605.71 728.087H1242.37H1129.43H564.715V163.373V50.4299Z" fill="#9F9F9F" stroke="#D6D6D6" stroke-width="1129.43"/>
</g>
<g clip-path="url(#clip24_224_5509)">
<rect width="112.943" height="112.943" transform="matrix(-1 0 0 1 1129.43 163.373)" fill="#D6D6D6"/>
<path d="M451.772 163.373V-1199.97L1415.8 -235.941L1528.74 -122.998L2492.77 841.03H1129.43H1016.49H451.772V276.316V163.373Z" fill="#9F9F9F" stroke="#D6D6D6" stroke-width="1129.43"/>
</g>
<g clip-path="url(#clip25_224_5509)">
<rect width="112.943" height="112.943" transform="matrix(-1 0 0 1 1129.43 -62.513)" fill="#D6D6D6"/>
<path d="M451.772 -62.513V-1425.85L1415.8 -461.826L1528.74 -348.884L2492.77 615.144H1129.43H1016.49H451.772V50.4299V-62.513Z" fill="#9F9F9F" stroke="#D6D6D6" stroke-width="1129.43"/>
<path d="M451.772 50.4299V1413.77L1415.8 449.743L1528.74 336.8L2492.77 -627.227H1129.43H1016.49H451.772V-62.513V50.4299Z" fill="#474747" stroke="#D6D6D6" stroke-width="1129.43"/>
</g>
<g clip-path="url(#clip26_224_5509)">
<rect width="112.943" height="112.943" transform="matrix(-1 0 0 1 1129.43 50.4299)" fill="#D6D6D6"/>
<path d="M451.772 50.4299V-1312.91L1415.8 -348.883L1528.74 -235.941L2492.77 728.087H1129.43H1016.49H451.772V163.373V50.4299Z" fill="#9F9F9F" stroke="#D6D6D6" stroke-width="1129.43"/>
<path d="M451.772 163.373V1526.71L1415.8 562.686L1528.74 449.743L2492.77 -514.285H1129.43H1016.49H451.772V50.4299V163.373Z" fill="#474747" stroke="#D6D6D6" stroke-width="1129.43"/>
<path d="M1694.14 163.373V1526.71L730.116 562.686L617.173 449.743L-346.855 -514.285H1016.49H1129.43H1694.14V50.4299V163.373Z" fill="#656565" stroke="#D6D6D6" stroke-width="1129.43"/>
</g>
<g clip-path="url(#clip27_224_5509)">
<rect width="112.943" height="112.943" transform="matrix(-1 0 0 1 1016.49 163.373)" fill="#D6D6D6"/>
<path d="M338.829 163.373V-1199.97L1302.86 -235.941L1415.8 -122.998L2379.83 841.03H1016.49H903.543H338.829V276.316V163.373Z" fill="#9F9F9F" stroke="#D6D6D6" stroke-width="1129.43"/>
<path d="M338.829 276.316V1639.66L1302.86 675.629L1415.8 562.686L2379.83 -401.342H1016.49H903.543H338.829V163.373V276.316Z" fill="#474747" stroke="#D6D6D6" stroke-width="1129.43"/>
<path d="M1581.2 276.316V1639.66L617.172 675.629L504.23 562.686L-459.798 -401.342H903.543H1016.49H1581.2V163.373V276.316Z" fill="#656565" stroke="#D6D6D6" stroke-width="1129.43"/>
</g>
<g clip-path="url(#clip28_224_5509)">
<rect width="112.943" height="112.943" transform="matrix(-1 0 0 1 1016.49 -62.513)" fill="#D6D6D6"/>
<path d="M338.829 -62.513V-1425.85L1302.86 -461.826L1415.8 -348.884L2379.83 615.144H1016.49H903.543H338.829V50.4299V-62.513Z" fill="#9F9F9F" stroke="#D6D6D6" stroke-width="1129.43"/>
<path d="M338.829 50.4299V1413.77L1302.86 449.743L1415.8 336.8L2379.83 -627.227H1016.49H903.543H338.829V-62.513V50.4299Z" fill="#474747" stroke="#D6D6D6" stroke-width="1129.43"/>
<path d="M1581.2 50.4299V1413.77L617.172 449.743L504.23 336.8L-459.798 -627.227H903.543H1016.49H1581.2V-62.513V50.4299Z" fill="#656565" stroke="#D6D6D6" stroke-width="1129.43"/>
</g>
<g clip-path="url(#clip29_224_5509)">
<rect width="112.943" height="112.943" transform="matrix(-1 0 0 1 1016.49 50.4299)" fill="#D6D6D6"/>
<path d="M338.829 50.4299V-1312.91L1302.86 -348.883L1415.8 -235.941L2379.83 728.087H1016.49H903.543H338.829V163.373V50.4299Z" fill="#9F9F9F" stroke="#D6D6D6" stroke-width="1129.43"/>
<path d="M338.829 163.373V1526.71L1302.86 562.686L1415.8 449.743L2379.83 -514.285H1016.49H903.543H338.829V50.4299V163.373Z" fill="#474747" stroke="#D6D6D6" stroke-width="1129.43"/>
</g>
<g clip-path="url(#clip30_224_5509)">
<rect width="112.943" height="112.943" transform="matrix(-1 0 0 1 903.543 163.373)" fill="#D6D6D6"/>
<path d="M225.886 163.373V-1199.97L1189.91 -235.941L1302.86 -122.998L2266.88 841.03H903.543H790.6H225.886V276.316V163.373Z" fill="#9F9F9F" stroke="#D6D6D6" stroke-width="1129.43"/>
<path d="M225.886 276.316V1639.66L1189.91 675.629L1302.86 562.686L2266.88 -401.342H903.543H790.6H225.886V163.373V276.316Z" fill="#474747" stroke="#D6D6D6" stroke-width="1129.43"/>
<path d="M1468.26 276.316V1639.66L504.23 675.629L391.287 562.686L-572.741 -401.342H790.6H903.543H1468.26V163.373V276.316Z" fill="#656565" stroke="#D6D6D6" stroke-width="1129.43"/>
</g>
<g clip-path="url(#clip31_224_5509)">
<rect width="112.943" height="112.943" transform="matrix(-1 0 0 1 903.543 -62.513)" fill="#D6D6D6"/>
<path d="M225.886 -62.513V-1425.85L1189.91 -461.826L1302.86 -348.884L2266.88 615.144H903.543H790.6H225.886V50.4299V-62.513Z" fill="#9F9F9F" stroke="#D6D6D6" stroke-width="1129.43"/>
</g>
<g clip-path="url(#clip32_224_5509)">
<rect width="112.943" height="112.943" transform="matrix(-1 0 0 1 903.543 50.4299)" fill="#D6D6D6"/>
<path d="M225.886 50.4299V-1312.91L1189.91 -348.883L1302.86 -235.941L2266.88 728.087H903.543H790.6H225.886V163.373V50.4299Z" fill="#9F9F9F" stroke="#D6D6D6" stroke-width="1129.43"/>
<path d="M225.886 163.373V1526.71L1189.91 562.686L1302.86 449.743L2266.88 -514.285H903.543H790.6H225.886V50.4299V163.373Z" fill="#474747" stroke="#D6D6D6" stroke-width="1129.43"/>
<path d="M1468.26 163.373V1526.71L504.23 562.686L391.287 449.743L-572.741 -514.285H790.6H903.543H1468.26V50.4299V163.373Z" fill="#656565" stroke="#D6D6D6" stroke-width="1129.43"/>
<path d="M1468.26 50.4299V-1312.91L504.23 -348.883L391.287 -235.941L-572.741 728.087H790.6H903.543H1468.26V163.373V50.4299Z" fill="#838383" stroke="#D6D6D6" stroke-width="1129.43"/>
</g>
<g clip-path="url(#clip33_224_5509)">
<rect width="112.943" height="112.943" transform="matrix(-1 0 0 1 1468.26 163.373)" fill="#D6D6D6"/>
<path d="M790.6 163.373V-1199.97L1754.63 -235.941L1867.57 -122.998L2831.6 841.03H1468.26H1355.31H790.6V276.316V163.373Z" fill="#9F9F9F" stroke="#D6D6D6" stroke-width="1129.43"/>
<path d="M790.6 276.316V1639.66L1754.63 675.629L1867.57 562.686L2831.6 -401.342H1468.26H1355.31H790.6V163.373V276.316Z" fill="#474747" stroke="#D6D6D6" stroke-width="1129.43"/>
<path d="M2032.97 276.316V1639.66L1068.94 675.629L956.001 562.686L-8.02649 -401.342H1355.31H1468.26H2032.97V163.373V276.316Z" fill="#656565" stroke="#D6D6D6" stroke-width="1129.43"/>
</g>
<g clip-path="url(#clip34_224_5509)">
<rect width="112.943" height="112.943" transform="matrix(-1 0 0 1 1468.26 -62.513)" fill="#D6D6D6"/>
<path d="M790.6 -62.513V-1425.85L1754.63 -461.826L1867.57 -348.884L2831.6 615.144H1468.26H1355.31H790.6V50.4299V-62.513Z" fill="#9F9F9F" stroke="#D6D6D6" stroke-width="1129.43"/>
</g>
<rect width="112.943" height="112.943" transform="matrix(-1 0 0 1 1468.26 50.4299)" fill="#D6D6D6"/>
<g clip-path="url(#clip35_224_5509)">
<rect width="112.943" height="112.943" transform="matrix(-1 0 0 1 1355.31 163.373)" fill="#D6D6D6"/>
<path d="M677.657 163.373V-1199.97L1641.69 -235.941L1754.63 -122.998L2718.66 841.03H1355.31H1242.37H677.657V276.316V163.373Z" fill="#9F9F9F" stroke="#D6D6D6" stroke-width="1129.43"/>
<path d="M677.657 276.316V1639.66L1641.69 675.629L1754.63 562.686L2718.66 -401.342H1355.31H1242.37H677.657V163.373V276.316Z" fill="#474747" stroke="#D6D6D6" stroke-width="1129.43"/>
<path d="M1920.03 276.316V1639.66L956.001 675.629L843.058 562.686L-120.969 -401.342H1242.37H1355.31H1920.03V163.373V276.316Z" fill="#656565" stroke="#D6D6D6" stroke-width="1129.43"/>
</g>
<g clip-path="url(#clip36_224_5509)">
<rect width="112.943" height="112.943" transform="matrix(-1 0 0 1 1355.31 -62.513)" fill="#D6D6D6"/>
<path d="M677.657 -62.513V-1425.85L1641.69 -461.826L1754.63 -348.884L2718.66 615.144H1355.31H1242.37H677.657V50.4299V-62.513Z" fill="#9F9F9F" stroke="#D6D6D6" stroke-width="1129.43"/>
<path d="M677.657 50.4299V1413.77L1641.69 449.743L1754.63 336.8L2718.66 -627.227H1355.31H1242.37H677.657V-62.513V50.4299Z" fill="#474747" stroke="#D6D6D6" stroke-width="1129.43"/>
<path d="M1920.03 50.4299V1413.77L956.001 449.743L843.058 336.8L-120.969 -627.227H1242.37H1355.31H1920.03V-62.513V50.4299Z" fill="#656565" stroke="#D6D6D6" stroke-width="1129.43"/>
</g>
<g clip-path="url(#clip37_224_5509)">
<rect width="112.943" height="112.943" transform="matrix(-1 0 0 1 1355.31 50.4299)" fill="#D6D6D6"/>
<path d="M677.657 50.4299V-1312.91L1641.69 -348.883L1754.63 -235.941L2718.66 728.087H1355.31H1242.37H677.657V163.373V50.4299Z" fill="#9F9F9F" stroke="#D6D6D6" stroke-width="1129.43"/>
<path d="M677.657 163.373V1526.71L1641.69 562.686L1754.63 449.743L2718.66 -514.285H1355.31H1242.37H677.657V50.4299V163.373Z" fill="#474747" stroke="#D6D6D6" stroke-width="1129.43"/>
</g>
<g style="mix-blend-mode:screen">
<rect x="-6.10352e-05" y="-627.227" width="1581.2" height="1129.43" fill="url(#paint1_linear_224_5509)"/>
</g>
</g>
<defs>
<linearGradient id="paint0_linear_224_5509" x1="0" y1="0" x2="1749.69" y2="379.746" gradientUnits="userSpaceOnUse">
<stop stop-color="#FA3329"/>
<stop offset="1" stop-color="#F7453C"/>
</linearGradient>
<linearGradient id="paint1_linear_224_5509" x1="-6.10352e-05" y1="-627.227" x2="1743.82" y2="-250.437" gradientUnits="userSpaceOnUse">
<stop stop-color="#FA3329"/>
<stop offset="1" stop-color="#F7453C"/>
</linearGradient>
<clipPath id="clip0_224_5509">
<rect width="1587.15" height="1128.64" fill="white" transform="translate(-6.10352e-05 -627.227)"/>
</clipPath>
<clipPath id="clip1_224_5509">
<rect width="112.943" height="112.943" fill="white" transform="matrix(1 0 0 -1 338.829 276.316)"/>
</clipPath>
<clipPath id="clip2_224_5509">
<rect width="112.943" height="112.943" fill="white" transform="matrix(1 0 0 -1 338.829 163.373)"/>
</clipPath>
<clipPath id="clip3_224_5509">
<rect width="112.943" height="112.943" fill="white" transform="matrix(1 0 0 -1 338.829 50.4299)"/>
</clipPath>
<clipPath id="clip4_224_5509">
<rect width="112.943" height="112.943" fill="white" transform="matrix(1 0 0 -1 451.771 276.316)"/>
</clipPath>
<clipPath id="clip5_224_5509">
<rect width="112.943" height="112.943" fill="white" transform="matrix(1 0 0 -1 451.771 163.373)"/>
</clipPath>
<clipPath id="clip6_224_5509">
<rect width="112.943" height="112.943" fill="white" transform="matrix(1 0 0 -1 451.771 50.4299)"/>
</clipPath>
<clipPath id="clip7_224_5509">
<rect width="112.943" height="112.943" fill="white" transform="matrix(1 0 0 -1 564.714 276.316)"/>
</clipPath>
<clipPath id="clip8_224_5509">
<rect width="112.943" height="112.943" fill="white" transform="matrix(1 0 0 -1 564.714 163.373)"/>
</clipPath>
<clipPath id="clip9_224_5509">
<rect width="112.943" height="112.943" fill="white" transform="matrix(1 0 0 -1 564.714 50.4299)"/>
</clipPath>
<clipPath id="clip10_224_5509">
<rect width="112.943" height="112.943" fill="white" transform="matrix(1 0 0 -1 677.657 276.316)"/>
</clipPath>
<clipPath id="clip11_224_5509">
<rect width="112.943" height="112.943" fill="white" transform="matrix(1 0 0 -1 677.657 163.373)"/>
</clipPath>
<clipPath id="clip12_224_5509">
<rect width="112.943" height="112.943" fill="white" transform="matrix(1 0 0 -1 677.657 50.4299)"/>
</clipPath>
<clipPath id="clip13_224_5509">
<rect width="112.943" height="112.943" fill="white" transform="matrix(1 0 0 -1 -6.10352e-05 276.316)"/>
</clipPath>
<clipPath id="clip14_224_5509">
<rect width="112.943" height="112.943" fill="white" transform="matrix(1 0 0 -1 -6.10352e-05 163.373)"/>
</clipPath>
<clipPath id="clip15_224_5509">
<rect width="112.943" height="112.943" fill="white" transform="matrix(1 0 0 -1 -6.10352e-05 50.4299)"/>
</clipPath>
<clipPath id="clip16_224_5509">
<rect width="112.943" height="112.943" fill="white" transform="matrix(1 0 0 -1 112.943 276.316)"/>
</clipPath>
<clipPath id="clip17_224_5509">
<rect width="112.943" height="112.943" fill="white" transform="matrix(1 0 0 -1 112.943 163.373)"/>
</clipPath>
<clipPath id="clip18_224_5509">
<rect width="112.943" height="112.943" fill="white" transform="matrix(1 0 0 -1 112.943 50.4299)"/>
</clipPath>
<clipPath id="clip19_224_5509">
<rect width="112.943" height="112.943" fill="white" transform="matrix(1 0 0 -1 225.886 163.373)"/>
</clipPath>
<clipPath id="clip20_224_5509">
<rect width="112.943" height="112.943" fill="white" transform="matrix(1 0 0 -1 225.886 50.4299)"/>
</clipPath>
<clipPath id="clip21_224_5509">
<rect width="112.943" height="112.943" fill="white" transform="matrix(-1 0 0 1 1242.37 163.373)"/>
</clipPath>
<clipPath id="clip22_224_5509">
<rect width="112.943" height="112.943" fill="white" transform="matrix(-1 0 0 1 1242.37 -62.513)"/>
</clipPath>
<clipPath id="clip23_224_5509">
<rect width="112.943" height="112.943" fill="white" transform="matrix(-1 0 0 1 1242.37 50.4299)"/>
</clipPath>
<clipPath id="clip24_224_5509">
<rect width="112.943" height="112.943" fill="white" transform="matrix(-1 0 0 1 1129.43 163.373)"/>
</clipPath>
<clipPath id="clip25_224_5509">
<rect width="112.943" height="112.943" fill="white" transform="matrix(-1 0 0 1 1129.43 -62.513)"/>
</clipPath>
<clipPath id="clip26_224_5509">
<rect width="112.943" height="112.943" fill="white" transform="matrix(-1 0 0 1 1129.43 50.4299)"/>
</clipPath>
<clipPath id="clip27_224_5509">
<rect width="112.943" height="112.943" fill="white" transform="matrix(-1 0 0 1 1016.49 163.373)"/>
</clipPath>
<clipPath id="clip28_224_5509">
<rect width="112.943" height="112.943" fill="white" transform="matrix(-1 0 0 1 1016.49 -62.513)"/>
</clipPath>
<clipPath id="clip29_224_5509">
<rect width="112.943" height="112.943" fill="white" transform="matrix(-1 0 0 1 1016.49 50.4299)"/>
</clipPath>
<clipPath id="clip30_224_5509">
<rect width="112.943" height="112.943" fill="white" transform="matrix(-1 0 0 1 903.543 163.373)"/>
</clipPath>
<clipPath id="clip31_224_5509">
<rect width="112.943" height="112.943" fill="white" transform="matrix(-1 0 0 1 903.543 -62.513)"/>
</clipPath>
<clipPath id="clip32_224_5509">
<rect width="112.943" height="112.943" fill="white" transform="matrix(-1 0 0 1 903.543 50.4299)"/>
</clipPath>
<clipPath id="clip33_224_5509">
<rect width="112.943" height="112.943" fill="white" transform="matrix(-1 0 0 1 1468.26 163.373)"/>
</clipPath>
<clipPath id="clip34_224_5509">
<rect width="112.943" height="112.943" fill="white" transform="matrix(-1 0 0 1 1468.26 -62.513)"/>
</clipPath>
<clipPath id="clip35_224_5509">
<rect width="112.943" height="112.943" fill="white" transform="matrix(-1 0 0 1 1355.31 163.373)"/>
</clipPath>
<clipPath id="clip36_224_5509">
<rect width="112.943" height="112.943" fill="white" transform="matrix(-1 0 0 1 1355.31 -62.513)"/>
</clipPath>
<clipPath id="clip37_224_5509">
<rect width="112.943" height="112.943" fill="white" transform="matrix(-1 0 0 1 1355.31 50.4299)"/>
</clipPath>
</defs>
</svg>
