<svg width="311" height="519" viewBox="0 0 311 519" fill="none" xmlns="http://www.w3.org/2000/svg">
<g clip-path="url(#clip0_81_4278)">
<g clip-path="url(#clip1_81_4278)">
<rect width="1104.39" height="785.346" transform="translate(-207.342 -267.427)" fill="url(#paint0_linear_81_4278)"/>
<g clip-path="url(#clip2_81_4278)">
<rect width="78.5894" height="78.5894" transform="matrix(1 0 0 -1 28.4261 518.468)" fill="#D6D6D6"/>
<path d="M499.963 518.468V1467.13L-170.84 796.323L-249.429 717.734L-920.232 46.9312H28.4261H107.016H499.963V439.878V518.468Z" fill="#9F9F9F" stroke="#D6D6D6" stroke-width="785.894"/>
<path d="M499.963 439.878V-508.78L-170.84 162.023L-249.429 240.612L-920.232 911.415H28.4261H107.016H499.963V518.468V439.878Z" fill="#474747" stroke="#D6D6D6" stroke-width="785.894"/>
<path d="M-364.521 439.878V-508.78L306.282 162.023L384.871 240.612L1055.67 911.415H107.016H28.4261H-364.521V518.468V439.878Z" fill="#656565" stroke="#D6D6D6" stroke-width="785.894"/>
</g>
<g clip-path="url(#clip3_81_4278)">
<rect width="78.5894" height="78.5894" transform="matrix(1 0 0 -1 28.4261 439.878)" fill="#D6D6D6"/>
<path d="M499.963 439.878V1388.54L-170.84 717.734L-249.429 639.144L-920.232 -31.6582H28.4261H107.016H499.963V361.289V439.878Z" fill="#9F9F9F" stroke="#D6D6D6" stroke-width="785.894"/>
<path d="M499.963 361.289V-587.369L-170.84 83.4334L-249.429 162.023L-920.232 832.825H28.4261H107.016H499.963V439.878V361.289Z" fill="#474747" stroke="#D6D6D6" stroke-width="785.894"/>
<path d="M-364.521 361.289V-587.369L306.282 83.4334L384.871 162.023L1055.67 832.825H107.016H28.4261H-364.521V439.878V361.289Z" fill="#656565" stroke="#D6D6D6" stroke-width="785.894"/>
</g>
<g clip-path="url(#clip4_81_4278)">
<rect width="78.5894" height="78.5894" transform="matrix(1 0 0 -1 28.4261 361.289)" fill="#D6D6D6"/>
<path d="M499.963 361.289V1309.95L-170.84 639.144L-249.429 560.555L-920.232 -110.248H28.4261H107.016H499.963V282.699V361.289Z" fill="#9F9F9F" stroke="#D6D6D6" stroke-width="785.894"/>
<path d="M499.963 282.699V-665.959L-170.84 4.84378L-249.429 83.4332L-920.232 754.236H28.4261H107.016H499.963V361.289V282.699Z" fill="#474747" stroke="#D6D6D6" stroke-width="785.894"/>
<path d="M-364.521 282.699V-665.959L306.282 4.84378L384.871 83.4332L1055.67 754.236H107.016H28.4261H-364.521V361.289V282.699Z" fill="#656565" stroke="#D6D6D6" stroke-width="785.894"/>
</g>
<g clip-path="url(#clip5_81_4278)">
<rect width="78.5894" height="78.5894" transform="matrix(1 0 0 -1 28.4261 282.699)" fill="#D6D6D6"/>
<path d="M499.963 282.699V1231.36L-170.84 560.555L-249.429 481.966L-920.232 -188.837H28.4261H107.016H499.963V204.11V282.699Z" fill="#9F9F9F" stroke="#D6D6D6" stroke-width="785.894"/>
<path d="M499.963 204.11V-744.548L-170.84 -73.7456L-249.429 4.84384L-920.232 675.647H28.4261H107.016H499.963V282.699V204.11Z" fill="#474747" stroke="#D6D6D6" stroke-width="785.894"/>
<path d="M-364.521 204.11V-744.548L306.282 -73.7456L384.871 4.84384L1055.67 675.647H107.016H28.4261H-364.521V282.699V204.11Z" fill="#656565" stroke="#D6D6D6" stroke-width="785.894"/>
</g>
<g clip-path="url(#clip6_81_4278)">
<rect width="78.5894" height="78.5894" transform="matrix(1 0 0 -1 28.4261 204.11)" fill="#D6D6D6"/>
<path d="M499.963 204.11V1152.77L-170.84 481.966L-249.429 403.376L-920.232 -267.427H28.4261H107.016H499.963V125.521V204.11Z" fill="#9F9F9F" stroke="#D6D6D6" stroke-width="785.894"/>
</g>
<g clip-path="url(#clip7_81_4278)">
<rect width="78.5894" height="78.5894" transform="matrix(1 0 0 -1 107.016 518.468)" fill="#D6D6D6"/>
<path d="M578.552 518.468V1467.13L-92.2506 796.323L-170.84 717.734L-841.643 46.9312H107.016H185.605H578.552V439.878V518.468Z" fill="#9F9F9F" stroke="#D6D6D6" stroke-width="785.894"/>
</g>
<g clip-path="url(#clip8_81_4278)">
<rect width="78.5894" height="78.5894" transform="matrix(1 0 0 -1 107.016 439.878)" fill="#D6D6D6"/>
<path d="M578.552 439.878V1388.54L-92.2506 717.734L-170.84 639.144L-841.643 -31.6582H107.016H185.605H578.552V361.289V439.878Z" fill="#9F9F9F" stroke="#D6D6D6" stroke-width="785.894"/>
<path d="M578.552 361.289V-587.369L-92.2505 83.4334L-170.84 162.023L-841.643 832.825H107.016H185.605H578.552V439.878V361.289Z" fill="#474747" stroke="#D6D6D6" stroke-width="785.894"/>
<path d="M-285.931 361.289V-587.369L384.871 83.4334L463.461 162.023L1134.26 832.825H185.605H107.016H-285.931V439.878V361.289Z" fill="#656565" stroke="#D6D6D6" stroke-width="785.894"/>
</g>
<g clip-path="url(#clip9_81_4278)">
<rect width="78.5894" height="78.5894" transform="matrix(1 0 0 -1 107.016 361.289)" fill="#D6D6D6"/>
<path d="M578.552 361.289V1309.95L-92.2506 639.144L-170.84 560.555L-841.643 -110.248H107.016H185.605H578.552V282.699V361.289Z" fill="#9F9F9F" stroke="#D6D6D6" stroke-width="785.894"/>
<path d="M578.552 282.699V-665.959L-92.2505 4.84378L-170.84 83.4332L-841.643 754.236H107.016H185.605H578.552V361.289V282.699Z" fill="#474747" stroke="#D6D6D6" stroke-width="785.894"/>
<path d="M-285.931 282.699V-665.959L384.871 4.84378L463.461 83.4332L1134.26 754.236H185.605H107.016H-285.931V361.289V282.699Z" fill="#656565" stroke="#D6D6D6" stroke-width="785.894"/>
</g>
<g clip-path="url(#clip10_81_4278)">
<rect width="78.5894" height="78.5894" transform="matrix(1 0 0 -1 107.016 282.699)" fill="#D6D6D6"/>
<path d="M578.552 282.699V1231.36L-92.2506 560.555L-170.84 481.966L-841.643 -188.837H107.016H185.605H578.552V204.11V282.699Z" fill="#9F9F9F" stroke="#D6D6D6" stroke-width="785.894"/>
<path d="M578.552 204.11V-744.548L-92.2505 -73.7456L-170.84 4.84384L-841.643 675.647H107.016H185.605H578.552V282.699V204.11Z" fill="#474747" stroke="#D6D6D6" stroke-width="785.894"/>
</g>
<g clip-path="url(#clip11_81_4278)">
<rect width="78.5894" height="78.5894" transform="matrix(1 0 0 -1 107.016 204.11)" fill="#D6D6D6"/>
<path d="M578.552 204.11V1152.77L-92.2506 481.966L-170.84 403.376L-841.643 -267.427H107.016H185.605H578.552V125.521V204.11Z" fill="#9F9F9F" stroke="#D6D6D6" stroke-width="785.894"/>
<path d="M578.552 125.521V-823.138L-92.2505 -152.335L-170.84 -73.7456L-841.643 597.057H107.016H185.605H578.552V204.11V125.521Z" fill="#474747" stroke="#D6D6D6" stroke-width="785.894"/>
<path d="M-285.931 125.521V-823.138L384.871 -152.335L463.461 -73.7456L1134.26 597.057H185.605H107.016H-285.931V204.11V125.521Z" fill="#656565" stroke="#D6D6D6" stroke-width="785.894"/>
</g>
<g clip-path="url(#clip12_81_4278)">
<rect width="78.5894" height="78.5894" transform="matrix(1 0 0 -1 185.605 518.468)" fill="#D6D6D6"/>
<path d="M657.142 518.468V1467.13L-13.6612 796.323L-92.2506 717.734L-763.053 46.9312H185.605H264.194H657.142V439.878V518.468Z" fill="#9F9F9F" stroke="#D6D6D6" stroke-width="785.894"/>
<path d="M657.142 439.878V-508.78L-13.6612 162.023L-92.2506 240.612L-763.053 911.415H185.605H264.194H657.142V518.468V439.878Z" fill="#474747" stroke="#D6D6D6" stroke-width="785.894"/>
<path d="M-207.342 439.878V-508.78L463.461 162.023L542.05 240.612L1212.85 911.415H264.194H185.605H-207.342V518.468V439.878Z" fill="#656565" stroke="#D6D6D6" stroke-width="785.894"/>
</g>
<g clip-path="url(#clip13_81_4278)">
<rect width="78.5894" height="78.5894" transform="matrix(1 0 0 -1 185.605 439.878)" fill="#D6D6D6"/>
<path d="M657.142 439.878V1388.54L-13.6612 717.734L-92.2506 639.144L-763.053 -31.6582H185.605H264.194H657.142V361.289V439.878Z" fill="#9F9F9F" stroke="#D6D6D6" stroke-width="785.894"/>
<path d="M657.142 361.289V-587.369L-13.6612 83.4334L-92.2506 162.023L-763.053 832.825H185.605H264.194H657.142V439.878V361.289Z" fill="#474747" stroke="#D6D6D6" stroke-width="785.894"/>
<path d="M-207.342 361.289V-587.369L463.461 83.4334L542.05 162.023L1212.85 832.825H264.194H185.605H-207.342V439.878V361.289Z" fill="#656565" stroke="#D6D6D6" stroke-width="785.894"/>
</g>
<g clip-path="url(#clip14_81_4278)">
<rect width="78.5894" height="78.5894" transform="matrix(1 0 0 -1 185.605 361.289)" fill="#D6D6D6"/>
<path d="M657.142 361.289V1309.95L-13.6612 639.144L-92.2506 560.555L-763.053 -110.248H185.605H264.194H657.142V282.699V361.289Z" fill="#9F9F9F" stroke="#D6D6D6" stroke-width="785.894"/>
<path d="M657.142 282.699V-665.959L-13.6612 4.84378L-92.2506 83.4332L-763.053 754.236H185.605H264.194H657.142V361.289V282.699Z" fill="#474747" stroke="#D6D6D6" stroke-width="785.894"/>
<path d="M-207.342 282.699V-665.959L463.461 4.84378L542.05 83.4332L1212.85 754.236H264.194H185.605H-207.342V361.289V282.699Z" fill="#656565" stroke="#D6D6D6" stroke-width="785.894"/>
</g>
<g clip-path="url(#clip15_81_4278)">
<rect width="78.5894" height="78.5894" transform="translate(-50.1633 -31.6583)" fill="#D6D6D6"/>
<path d="M421.373 -31.6583V-980.317L-249.429 -309.514L-328.019 -230.924L-998.822 439.878H-50.1633H28.4262H421.373V46.9312V-31.6583Z" fill="#9F9F9F" stroke="#D6D6D6" stroke-width="785.894"/>
<path d="M421.373 46.9312V995.589L-249.429 324.787L-328.019 246.197L-998.822 -424.605H-50.1633H28.4262H421.373V-31.6583V46.9312Z" fill="#474747" stroke="#D6D6D6" stroke-width="785.894"/>
<path d="M-443.11 46.9312V995.589L227.692 324.787L306.282 246.197L977.084 -424.605H28.4261H-50.1633H-443.11V-31.6583V46.9312Z" fill="#656565" stroke="#D6D6D6" stroke-width="785.894"/>
</g>
<g clip-path="url(#clip16_81_4278)">
<rect width="78.5894" height="78.5894" transform="matrix(1 0 0 -1 185.605 282.699)" fill="#D6D6D6"/>
<path d="M657.142 282.699V1231.36L-13.6612 560.555L-92.2506 481.966L-763.053 -188.837H185.605H264.194H657.142V204.11V282.699Z" fill="#9F9F9F" stroke="#D6D6D6" stroke-width="785.894"/>
<path d="M657.142 204.11V-744.548L-13.6612 -73.7456L-92.2506 4.84384L-763.053 675.647H185.605H264.194H657.142V282.699V204.11Z" fill="#474747" stroke="#D6D6D6" stroke-width="785.894"/>
<path d="M-207.342 204.11V-744.548L463.461 -73.7456L542.05 4.84384L1212.85 675.647H264.194H185.605H-207.342V282.699V204.11Z" fill="#656565" stroke="#D6D6D6" stroke-width="785.894"/>
</g>
<g clip-path="url(#clip17_81_4278)">
<rect width="78.5894" height="78.5894" transform="translate(-50.1633 46.9312)" fill="#D6D6D6"/>
<path d="M421.373 46.9312V-901.727L-249.429 -230.924L-328.019 -152.335L-998.822 518.468H-50.1633H28.4262H421.373V125.521V46.9312Z" fill="#9F9F9F" stroke="#D6D6D6" stroke-width="785.894"/>
<path d="M421.373 125.521V1074.18L-249.429 403.376L-328.019 324.787L-998.822 -346.016H-50.1633H28.4262H421.373V46.9311V125.521Z" fill="#474747" stroke="#D6D6D6" stroke-width="785.894"/>
</g>
<g clip-path="url(#clip18_81_4278)">
<rect width="78.5894" height="78.5894" transform="matrix(1 0 0 -1 185.605 204.11)" fill="#D6D6D6"/>
<path d="M657.142 204.11V1152.77L-13.6612 481.966L-92.2506 403.376L-763.053 -267.427H185.605H264.194H657.142V125.521V204.11Z" fill="#9F9F9F" stroke="#D6D6D6" stroke-width="785.894"/>
<path d="M657.142 125.521V-823.138L-13.6612 -152.335L-92.2506 -73.7456L-763.053 597.057H185.605H264.194H657.142V204.11V125.521Z" fill="#474747" stroke="#D6D6D6" stroke-width="785.894"/>
</g>
<g clip-path="url(#clip19_81_4278)">
<rect width="78.5894" height="78.5894" transform="matrix(1 0 0 -1 264.194 518.468)" fill="#D6D6D6"/>
<path d="M735.731 518.468V1467.13L64.9283 796.323L-13.6611 717.734L-684.464 46.9312H264.194H342.784H735.731V439.878V518.468Z" fill="#9F9F9F" stroke="#D6D6D6" stroke-width="785.894"/>
<path d="M735.731 439.878V-508.78L64.9283 162.023L-13.6611 240.612L-684.464 911.415H264.194H342.784H735.731V518.468V439.878Z" fill="#474747" stroke="#D6D6D6" stroke-width="785.894"/>
<path d="M-128.753 439.878V-508.78L542.05 162.023L620.639 240.612L1291.44 911.415H342.784H264.194H-128.753V518.468V439.878Z" fill="#656565" stroke="#D6D6D6" stroke-width="785.894"/>
</g>
<g clip-path="url(#clip20_81_4278)">
<rect width="78.5894" height="78.5894" transform="matrix(1 0 0 -1 264.194 439.878)" fill="#D6D6D6"/>
<path d="M735.731 439.878V1388.54L64.9283 717.734L-13.6611 639.144L-684.464 -31.6582H264.194H342.784H735.731V361.289V439.878Z" fill="#9F9F9F" stroke="#D6D6D6" stroke-width="785.894"/>
<path d="M735.731 361.289V-587.369L64.9283 83.4334L-13.6611 162.023L-684.464 832.825H264.194H342.784H735.731V439.878V361.289Z" fill="#474747" stroke="#D6D6D6" stroke-width="785.894"/>
</g>
<g clip-path="url(#clip21_81_4278)">
<rect width="78.5894" height="78.5894" transform="matrix(1 0 0 -1 264.194 361.289)" fill="#D6D6D6"/>
<path d="M735.731 361.289V1309.95L64.9283 639.144L-13.6611 560.555L-684.464 -110.248H264.194H342.784H735.731V282.699V361.289Z" fill="#9F9F9F" stroke="#D6D6D6" stroke-width="785.894"/>
<path d="M735.731 282.699V-665.959L64.9283 4.84378L-13.6611 83.4332L-684.464 754.236H264.194H342.784H735.731V361.289V282.699Z" fill="#474747" stroke="#D6D6D6" stroke-width="785.894"/>
<path d="M-128.753 282.699V-665.959L542.05 4.84378L620.639 83.4332L1291.44 754.236H342.784H264.194H-128.753V361.289V282.699Z" fill="#656565" stroke="#D6D6D6" stroke-width="785.894"/>
</g>
<g clip-path="url(#clip22_81_4278)">
<rect width="78.5894" height="78.5894" transform="translate(28.4261 -31.6583)" fill="#D6D6D6"/>
<path d="M499.963 -31.6583V-980.317L-170.84 -309.514L-249.429 -230.924L-920.232 439.878H28.4261H107.016H499.963V46.9312V-31.6583Z" fill="#9F9F9F" stroke="#D6D6D6" stroke-width="785.894"/>
</g>
<g clip-path="url(#clip23_81_4278)">
<rect width="78.5894" height="78.5894" transform="matrix(1 0 0 -1 264.194 282.699)" fill="#D6D6D6"/>
<path d="M735.731 282.699V1231.36L64.9283 560.555L-13.6611 481.966L-684.464 -188.837H264.194H342.784H735.731V204.11V282.699Z" fill="#9F9F9F" stroke="#D6D6D6" stroke-width="785.894"/>
</g>
<g clip-path="url(#clip24_81_4278)">
<rect width="78.5894" height="78.5894" transform="translate(28.4261 46.9312)" fill="#D6D6D6"/>
<path d="M499.963 46.9312V-901.727L-170.84 -230.924L-249.429 -152.335L-920.232 518.468H28.4261H107.016H499.963V125.521V46.9312Z" fill="#9F9F9F" stroke="#D6D6D6" stroke-width="785.894"/>
<path d="M499.963 125.521V1074.18L-170.84 403.376L-249.429 324.787L-920.232 -346.016H28.4261H107.016H499.963V46.9311V125.521Z" fill="#474747" stroke="#D6D6D6" stroke-width="785.894"/>
<path d="M-364.521 125.521V1074.18L306.282 403.376L384.871 324.787L1055.67 -346.016H107.016H28.4261H-364.521V46.9311V125.521Z" fill="#656565" stroke="#D6D6D6" stroke-width="785.894"/>
<path d="M-364.521 46.9311V-901.727L306.282 -230.924L384.871 -152.335L1055.67 518.468H107.016H28.4261H-364.521V125.521V46.9311Z" fill="#838383" stroke="#D6D6D6" stroke-width="785.894"/>
</g>
<g clip-path="url(#clip25_81_4278)">
<rect width="78.5894" height="78.5894" transform="matrix(1 0 0 -1 264.194 204.11)" fill="#D6D6D6"/>
<path d="M735.731 204.11V1152.77L64.9283 481.966L-13.6611 403.376L-684.464 -267.427H264.194H342.784H735.731V125.521V204.11Z" fill="#9F9F9F" stroke="#D6D6D6" stroke-width="785.894"/>
<path d="M735.731 125.521V-823.138L64.9283 -152.335L-13.6611 -73.7456L-684.464 597.057H264.194H342.784H735.731V204.11V125.521Z" fill="#474747" stroke="#D6D6D6" stroke-width="785.894"/>
<path d="M-128.753 125.521V-823.138L542.05 -152.335L620.639 -73.7456L1291.44 597.057H342.784H264.194H-128.753V204.11V125.521Z" fill="#656565" stroke="#D6D6D6" stroke-width="785.894"/>
<path d="M-128.753 204.11V1152.77L542.05 481.966L620.639 403.376L1291.44 -267.427H342.784H264.194H-128.753V125.521V204.11Z" fill="#838383" stroke="#D6D6D6" stroke-width="785.894"/>
</g>
<g clip-path="url(#clip26_81_4278)">
<rect width="78.5894" height="78.5894" transform="translate(107.016 -31.6583)" fill="#D6D6D6"/>
<path d="M578.552 -31.6583V-980.317L-92.2506 -309.514L-170.84 -230.924L-841.643 439.878H107.016H185.605H578.552V46.9312V-31.6583Z" fill="#9F9F9F" stroke="#D6D6D6" stroke-width="785.894"/>
<path d="M578.552 46.9312V995.589L-92.2505 324.787L-170.84 246.197L-841.643 -424.605H107.016H185.605H578.552V-31.6583V46.9312Z" fill="#474747" stroke="#D6D6D6" stroke-width="785.894"/>
<path d="M-285.931 46.9312V995.589L384.871 324.787L463.461 246.197L1134.26 -424.605H185.605H107.016H-285.931V-31.6583V46.9312Z" fill="#656565" stroke="#D6D6D6" stroke-width="785.894"/>
</g>
<g clip-path="url(#clip27_81_4278)">
<rect width="78.5894" height="78.5894" transform="translate(107.016 46.9312)" fill="#D6D6D6"/>
<path d="M578.552 46.9312V-901.727L-92.2506 -230.924L-170.84 -152.335L-841.643 518.468H107.016H185.605H578.552V125.521V46.9312Z" fill="#9F9F9F" stroke="#D6D6D6" stroke-width="785.894"/>
<path d="M578.552 125.521V1074.18L-92.2505 403.376L-170.84 324.787L-841.643 -346.016H107.016H185.605H578.552V46.9311V125.521Z" fill="#474747" stroke="#D6D6D6" stroke-width="785.894"/>
<path d="M-285.931 125.521V1074.18L384.871 403.376L463.461 324.787L1134.26 -346.016H185.605H107.016H-285.931V46.9311V125.521Z" fill="#656565" stroke="#D6D6D6" stroke-width="785.894"/>
</g>
<g clip-path="url(#clip28_81_4278)">
<rect width="78.5894" height="78.5894" transform="translate(185.605 -31.6583)" fill="#D6D6D6"/>
<path d="M657.142 -31.6583V-980.317L-13.6612 -309.514L-92.2506 -230.924L-763.053 439.878H185.605H264.194H657.142V46.9312V-31.6583Z" fill="#9F9F9F" stroke="#D6D6D6" stroke-width="785.894"/>
</g>
<g clip-path="url(#clip29_81_4278)">
<rect width="78.5894" height="78.5894" transform="translate(185.605 46.9312)" fill="#D6D6D6"/>
<path d="M657.142 46.9312V-901.727L-13.6612 -230.924L-92.2506 -152.335L-763.053 518.468H185.605H264.194H657.142V125.521V46.9312Z" fill="#9F9F9F" stroke="#D6D6D6" stroke-width="785.894"/>
<path d="M657.142 125.521V1074.18L-13.6612 403.376L-92.2506 324.787L-763.053 -346.016H185.605H264.194H657.142V46.9311V125.521Z" fill="#474747" stroke="#D6D6D6" stroke-width="785.894"/>
<path d="M-207.342 125.521V1074.18L463.461 403.376L542.05 324.787L1212.85 -346.016H264.194H185.605H-207.342V46.9311V125.521Z" fill="#656565" stroke="#D6D6D6" stroke-width="785.894"/>
</g>
<g clip-path="url(#clip30_81_4278)">
<rect width="78.5894" height="78.5894" transform="matrix(1 0 0 -1 -50.1633 518.468)" fill="#D6D6D6"/>
<path d="M421.373 518.468V1467.13L-249.429 796.323L-328.019 717.734L-998.822 46.9312H-50.1633H28.4262H421.373V439.878V518.468Z" fill="#9F9F9F" stroke="#D6D6D6" stroke-width="785.894"/>
<path d="M421.373 439.878V-508.78L-249.429 162.023L-328.019 240.612L-998.822 911.415H-50.1633H28.4262H421.373V518.468V439.878Z" fill="#474747" stroke="#D6D6D6" stroke-width="785.894"/>
<path d="M-443.11 439.878V-508.78L227.692 162.023L306.282 240.612L977.084 911.415H28.4261H-50.1633H-443.11V518.468V439.878Z" fill="#656565" stroke="#D6D6D6" stroke-width="785.894"/>
</g>
<g clip-path="url(#clip31_81_4278)">
<rect width="78.5894" height="78.5894" transform="matrix(1 0 0 -1 -50.1633 439.878)" fill="#D6D6D6"/>
<path d="M421.373 439.878V1388.54L-249.429 717.734L-328.019 639.144L-998.822 -31.6582H-50.1633H28.4262H421.373V361.289V439.878Z" fill="#9F9F9F" stroke="#D6D6D6" stroke-width="785.894"/>
</g>
<rect width="78.5894" height="78.5894" transform="matrix(1 0 0 -1 -50.1633 361.289)" fill="#D6D6D6"/>
<g clip-path="url(#clip32_81_4278)">
<rect width="78.5894" height="78.5894" transform="translate(264.194 -31.6583)" fill="#D6D6D6"/>
<path d="M735.731 -31.6583V-980.317L64.9283 -309.514L-13.6611 -230.924L-684.464 439.878H264.194H342.784H735.731V46.9312V-31.6583Z" fill="#9F9F9F" stroke="#D6D6D6" stroke-width="785.894"/>
<path d="M735.731 46.9312V995.589L64.9283 324.787L-13.6611 246.197L-684.464 -424.605H264.194H342.784H735.731V-31.6583V46.9312Z" fill="#474747" stroke="#D6D6D6" stroke-width="785.894"/>
<path d="M-128.753 46.9312V995.589L542.05 324.787L620.639 246.197L1291.44 -424.605H342.784H264.194H-128.753V-31.6583V46.9312Z" fill="#656565" stroke="#D6D6D6" stroke-width="785.894"/>
</g>
<g clip-path="url(#clip33_81_4278)">
<rect width="78.5894" height="78.5894" transform="matrix(1 0 0 -1 -50.1633 282.699)" fill="#D6D6D6"/>
<path d="M421.373 282.699V1231.36L-249.429 560.555L-328.019 481.966L-998.822 -188.837H-50.1633H28.4262H421.373V204.11V282.699Z" fill="#9F9F9F" stroke="#D6D6D6" stroke-width="785.894"/>
<path d="M421.373 204.11V-744.548L-249.429 -73.7456L-328.019 4.84384L-998.822 675.647H-50.1633H28.4262H421.373V282.699V204.11Z" fill="#474747" stroke="#D6D6D6" stroke-width="785.894"/>
<path d="M-443.11 204.11V-744.548L227.692 -73.7456L306.282 4.84384L977.084 675.647H28.4261H-50.1633H-443.11V282.699V204.11Z" fill="#656565" stroke="#D6D6D6" stroke-width="785.894"/>
</g>
<g clip-path="url(#clip34_81_4278)">
<rect width="78.5894" height="78.5894" transform="translate(264.194 46.9312)" fill="#D6D6D6"/>
<path d="M735.731 46.9312V-901.727L64.9283 -230.924L-13.6611 -152.335L-684.464 518.468H264.194H342.784H735.731V125.521V46.9312Z" fill="#9F9F9F" stroke="#D6D6D6" stroke-width="785.894"/>
<path d="M735.731 125.521V1074.18L64.9283 403.376L-13.6611 324.787L-684.464 -346.016H264.194H342.784H735.731V46.9311V125.521Z" fill="#474747" stroke="#D6D6D6" stroke-width="785.894"/>
</g>
<g clip-path="url(#clip35_81_4278)">
<rect width="78.5894" height="78.5894" transform="matrix(1 0 0 -1 -50.1633 204.11)" fill="#D6D6D6"/>
<path d="M421.373 204.11V1152.77L-249.429 481.966L-328.019 403.376L-998.822 -267.427H-50.1633H28.4262H421.373V125.521V204.11Z" fill="#9F9F9F" stroke="#D6D6D6" stroke-width="785.894"/>
<path d="M421.373 125.521V-823.138L-249.429 -152.335L-328.019 -73.7456L-998.822 597.057H-50.1633H28.4262H421.373V204.11V125.521Z" fill="#474747" stroke="#D6D6D6" stroke-width="785.894"/>
</g>
<g style="mix-blend-mode:screen">
<rect x="-207.342" y="-267.427" width="1100.25" height="785.894" fill="url(#paint1_linear_81_4278)"/>
</g>
</g>
</g>
<defs>
<linearGradient id="paint0_linear_81_4278" x1="0" y1="0" x2="1217.49" y2="264.24" gradientUnits="userSpaceOnUse">
<stop stop-color="#FA3329"/>
<stop offset="1" stop-color="#F7453C"/>
</linearGradient>
<linearGradient id="paint1_linear_81_4278" x1="-207.342" y1="-267.427" x2="1006.07" y2="-5.24305" gradientUnits="userSpaceOnUse">
<stop stop-color="#FA3329"/>
<stop offset="1" stop-color="#F7453C"/>
</linearGradient>
<clipPath id="clip0_81_4278">
<rect width="517.684" height="517.684" fill="white" transform="translate(-207.342 0.477539)"/>
</clipPath>
<clipPath id="clip1_81_4278">
<rect width="1104.39" height="785.346" fill="white" transform="translate(-207.342 -267.427)"/>
</clipPath>
<clipPath id="clip2_81_4278">
<rect width="78.5894" height="78.5894" fill="white" transform="matrix(1 0 0 -1 28.4261 518.468)"/>
</clipPath>
<clipPath id="clip3_81_4278">
<rect width="78.5894" height="78.5894" fill="white" transform="matrix(1 0 0 -1 28.4261 439.878)"/>
</clipPath>
<clipPath id="clip4_81_4278">
<rect width="78.5894" height="78.5894" fill="white" transform="matrix(1 0 0 -1 28.4261 361.289)"/>
</clipPath>
<clipPath id="clip5_81_4278">
<rect width="78.5894" height="78.5894" fill="white" transform="matrix(1 0 0 -1 28.4261 282.699)"/>
</clipPath>
<clipPath id="clip6_81_4278">
<rect width="78.5894" height="78.5894" fill="white" transform="matrix(1 0 0 -1 28.4261 204.11)"/>
</clipPath>
<clipPath id="clip7_81_4278">
<rect width="78.5894" height="78.5894" fill="white" transform="matrix(1 0 0 -1 107.016 518.468)"/>
</clipPath>
<clipPath id="clip8_81_4278">
<rect width="78.5894" height="78.5894" fill="white" transform="matrix(1 0 0 -1 107.016 439.878)"/>
</clipPath>
<clipPath id="clip9_81_4278">
<rect width="78.5894" height="78.5894" fill="white" transform="matrix(1 0 0 -1 107.016 361.289)"/>
</clipPath>
<clipPath id="clip10_81_4278">
<rect width="78.5894" height="78.5894" fill="white" transform="matrix(1 0 0 -1 107.016 282.699)"/>
</clipPath>
<clipPath id="clip11_81_4278">
<rect width="78.5894" height="78.5894" fill="white" transform="matrix(1 0 0 -1 107.016 204.11)"/>
</clipPath>
<clipPath id="clip12_81_4278">
<rect width="78.5894" height="78.5894" fill="white" transform="matrix(1 0 0 -1 185.605 518.468)"/>
</clipPath>
<clipPath id="clip13_81_4278">
<rect width="78.5894" height="78.5894" fill="white" transform="matrix(1 0 0 -1 185.605 439.878)"/>
</clipPath>
<clipPath id="clip14_81_4278">
<rect width="78.5894" height="78.5894" fill="white" transform="matrix(1 0 0 -1 185.605 361.289)"/>
</clipPath>
<clipPath id="clip15_81_4278">
<rect width="78.5894" height="78.5894" fill="white" transform="translate(-50.1633 -31.6583)"/>
</clipPath>
<clipPath id="clip16_81_4278">
<rect width="78.5894" height="78.5894" fill="white" transform="matrix(1 0 0 -1 185.605 282.699)"/>
</clipPath>
<clipPath id="clip17_81_4278">
<rect width="78.5894" height="78.5894" fill="white" transform="translate(-50.1633 46.9312)"/>
</clipPath>
<clipPath id="clip18_81_4278">
<rect width="78.5894" height="78.5894" fill="white" transform="matrix(1 0 0 -1 185.605 204.11)"/>
</clipPath>
<clipPath id="clip19_81_4278">
<rect width="78.5894" height="78.5894" fill="white" transform="matrix(1 0 0 -1 264.194 518.468)"/>
</clipPath>
<clipPath id="clip20_81_4278">
<rect width="78.5894" height="78.5894" fill="white" transform="matrix(1 0 0 -1 264.194 439.878)"/>
</clipPath>
<clipPath id="clip21_81_4278">
<rect width="78.5894" height="78.5894" fill="white" transform="matrix(1 0 0 -1 264.194 361.289)"/>
</clipPath>
<clipPath id="clip22_81_4278">
<rect width="78.5894" height="78.5894" fill="white" transform="translate(28.4261 -31.6583)"/>
</clipPath>
<clipPath id="clip23_81_4278">
<rect width="78.5894" height="78.5894" fill="white" transform="matrix(1 0 0 -1 264.194 282.699)"/>
</clipPath>
<clipPath id="clip24_81_4278">
<rect width="78.5894" height="78.5894" fill="white" transform="translate(28.4261 46.9312)"/>
</clipPath>
<clipPath id="clip25_81_4278">
<rect width="78.5894" height="78.5894" fill="white" transform="matrix(1 0 0 -1 264.194 204.11)"/>
</clipPath>
<clipPath id="clip26_81_4278">
<rect width="78.5894" height="78.5894" fill="white" transform="translate(107.016 -31.6583)"/>
</clipPath>
<clipPath id="clip27_81_4278">
<rect width="78.5894" height="78.5894" fill="white" transform="translate(107.016 46.9312)"/>
</clipPath>
<clipPath id="clip28_81_4278">
<rect width="78.5894" height="78.5894" fill="white" transform="translate(185.605 -31.6583)"/>
</clipPath>
<clipPath id="clip29_81_4278">
<rect width="78.5894" height="78.5894" fill="white" transform="translate(185.605 46.9312)"/>
</clipPath>
<clipPath id="clip30_81_4278">
<rect width="78.5894" height="78.5894" fill="white" transform="matrix(1 0 0 -1 -50.1633 518.468)"/>
</clipPath>
<clipPath id="clip31_81_4278">
<rect width="78.5894" height="78.5894" fill="white" transform="matrix(1 0 0 -1 -50.1633 439.878)"/>
</clipPath>
<clipPath id="clip32_81_4278">
<rect width="78.5894" height="78.5894" fill="white" transform="translate(264.194 -31.6583)"/>
</clipPath>
<clipPath id="clip33_81_4278">
<rect width="78.5894" height="78.5894" fill="white" transform="matrix(1 0 0 -1 -50.1633 282.699)"/>
</clipPath>
<clipPath id="clip34_81_4278">
<rect width="78.5894" height="78.5894" fill="white" transform="translate(264.194 46.9312)"/>
</clipPath>
<clipPath id="clip35_81_4278">
<rect width="78.5894" height="78.5894" fill="white" transform="matrix(1 0 0 -1 -50.1633 204.11)"/>
</clipPath>
</defs>
</svg>
